<?xml version="1.0" encoding="iso-8859-1"?>
<!-- Generator: Adobe Illustrator 19.0.0, SVG Export Plug-In . SVG Version: 6.00 Build 0)  -->
<svg version="1.1" id="Layer_1" xmlns="http://www.w3.org/2000/svg" xmlns:xlink="http://www.w3.org/1999/xlink" x="0px" y="0px"
	 viewBox="0 0 512 512" style="enable-background:new 0 0 512 512;" xml:space="preserve">
<g>
	<g>
		<g>
			<path d="M470.1,445.623v-241.48c0-5.773-2.25-11.215-6.367-15.36c-4.124-4.099-9.574-6.354-15.35-6.354H428.47v-22.595
				l-38.433-5.896c-1.055-5.066-2.388-10.066-3.994-14.948l30.318-24.32l-21.993-38.123l-36.25,14.113
				c-3.443-3.853-7.099-7.511-10.936-10.936l14.116-36.237l-38.134-22.011L298.862,51.8c-4.892-1.605-9.889-2.941-14.95-3.994
				l-5.896-38.436h-44.027l-5.896,38.436c-5.061,1.052-10.058,2.388-14.948,3.994l-24.312-30.323L150.71,43.485l14.111,36.237
				c-3.835,3.42-7.488,7.078-10.941,10.941l-36.257-14.118l-21.985,38.124l30.318,24.32c-1.61,4.887-2.941,9.887-3.994,14.948
				l-38.426,5.903v22.589H63.613c-5.819,0-11.282,2.271-15.342,6.374c-4.111,4.106-6.372,9.556-6.372,15.34v241.48H0v28.506
				c0,7.642,2.97,14.805,8.356,20.168c5.391,5.371,12.547,8.333,20.15,8.333h454.981c7.619,0,14.781-2.962,20.168-8.34
				c5.381-5.379,8.346-12.534,8.346-20.16v-28.506H470.1z M99.482,173.523l36.224-5.563l0.932-5.719
				c1.288-7.908,3.364-15.685,6.17-23.109l2.045-5.419l-28.575-22.922l8.32-14.415l34.153,13.294l3.668-4.467
				c5.1-6.218,10.798-11.914,16.932-16.932l4.48-3.668l-13.299-34.145l14.42-8.328l22.915,28.577l5.414-2.048
				c7.437-2.808,15.214-4.887,23.124-6.188l5.709-0.934l5.558-36.221h16.663l5.558,36.221l5.709,0.934
				c7.895,1.298,15.677,3.377,23.127,6.188l5.412,2.045l22.904-28.575l14.423,8.328l-13.297,34.145l4.483,3.668
				c6.136,5.028,11.832,10.724,16.927,16.927l3.669,4.47l34.153-13.294l8.317,14.415l-28.582,22.925l2.051,5.417
				c2.806,7.419,4.885,15.191,6.175,23.114l0.932,5.716l36.229,5.563v8.906h-54.781v-0.584c0-56.102-45.645-101.747-101.745-101.747
				s-101.745,45.642-101.745,101.747v0.584H99.482V173.523z M224.499,182.429v-0.584c0-17.367,14.129-31.491,31.496-31.491
				c17.367,0,31.496,14.124,31.496,31.491v0.584H224.499z M255.997,134.409c-26.156,0-47.439,21.281-47.439,47.429l0,0.591h-38.359
				v-0.584c0-47.311,38.487-85.804,85.798-85.804c47.314,0,85.801,38.492,85.801,85.804v0.584h-38.362v-0.584
				C303.437,155.69,282.153,134.409,255.997,134.409z M57.846,204.146c0-1.528,0.607-2.97,1.728-4.091
				c1.073-1.085,2.506-1.679,4.042-1.679h384.771c1.533,0,2.993,0.609,4.073,1.685c1.098,1.101,1.7,2.55,1.7,4.083v241.48h-17.121
				V215.492H74.977v230.131H57.846V204.146z M421.092,445.623H90.921V231.435h330.171V445.623z M496.061,474.129
				c0,3.366-1.306,6.513-3.669,8.873c-2.373,2.373-5.535,3.681-8.901,3.681H28.508c-3.354,0-6.513-1.306-8.899-3.686
				c-2.363-2.355-3.663-5.504-3.663-8.868v-12.559h480.115V474.129z"/>
			<path d="M253.55,342.227h24.809c7.373,0,14.316-2.872,19.553-8.102c5.212-5.217,8.079-12.16,8.079-19.538
				s-2.867-14.318-8.082-19.543c-5.225-5.225-12.17-8.105-19.551-8.105h-40.755v94.63h15.946V342.227z M253.55,302.883h24.809
				c3.118,0,6.057,1.219,8.266,3.425c2.207,2.214,3.42,5.148,3.42,8.276c0,3.128-1.213,6.065-3.407,8.264
				c-2.222,2.214-5.158,3.433-8.279,3.433H253.55V302.883z"/>
			<path d="M164.367,342.217h36.511v39.352h15.946v-39.352v-15.946v-11.684c0-7.378-2.872-14.31-8.09-19.543
				c-5.225-5.225-12.17-8.105-19.551-8.105h-13.125c-7.383,0-14.323,2.88-19.535,8.105c-5.225,5.225-8.1,12.165-8.1,19.543v11.684
				v15.946v39.352h15.944V342.217z M164.367,314.587c0-3.118,1.219-6.054,3.436-8.276c2.207-2.207,5.138-3.425,8.256-3.425h13.125
				c3.121,0,6.06,1.219,8.266,3.425c2.209,2.214,3.428,5.156,3.428,8.276v11.684h-36.511V314.587z"/>
			<polygon points="363.576,365.618 353.098,365.618 353.098,302.895 363.576,302.895 363.576,286.949 326.656,286.949 
				326.656,302.895 337.152,302.895 337.152,365.618 326.656,365.618 326.656,381.564 363.576,381.564 			"/>
			<rect x="385.101" y="326.271" width="15.946" height="15.946"/>
			<rect x="110.976" y="326.271" width="15.946" height="15.946"/>
		</g>
	</g>
</g>
<g>
</g>
<g>
</g>
<g>
</g>
<g>
</g>
<g>
</g>
<g>
</g>
<g>
</g>
<g>
</g>
<g>
</g>
<g>
</g>
<g>
</g>
<g>
</g>
<g>
</g>
<g>
</g>
<g>
</g>
</svg>
