<?xml version="1.0" encoding="iso-8859-1"?>
<!-- Generator: Adobe Illustrator 19.0.0, SVG Export Plug-In . SVG Version: 6.00 Build 0)  -->
<svg version="1.1" id="Layer_1" xmlns="http://www.w3.org/2000/svg" xmlns:xlink="http://www.w3.org/1999/xlink" x="0px" y="0px"
	 viewBox="0 0 512 512" style="enable-background:new 0 0 512 512;" xml:space="preserve">
<g>
	<g>
		<g>
			<path d="M0,0.547v61.775v17.792v370.657h225.357v60.682h17.792v-93.67h25.702v93.67h17.789v-60.682H512V80.114V62.322V0.547H0z
				 M256,366.261c-60.495,0-109.714-49.216-109.714-109.714S195.502,146.833,256,146.833c60.495,0,109.714,49.216,109.714,109.714
				S316.493,366.261,256,366.261z M221.407,379.281c11.005,3.106,22.608,4.771,34.593,4.771c11.986,0,23.59-1.665,34.596-4.771
				v20.71h-69.189V379.281z M494.211,432.982h-207.57v-15.199h21.745V372.79c44.255-20.022,75.12-64.595,75.118-116.243
				c0-70.305-57.196-127.506-127.503-127.506s-127.506,57.201-127.506,127.506c0,51.646,30.866,96.22,75.121,116.242v44.994h21.742
				v15.199H17.792V80.114h476.419V432.982z M17.792,62.322V18.339h476.419v43.983H17.792z"/>
			<rect x="117.965" y="31.436" width="17.792" height="17.792"/>
			<rect x="82.355" y="31.436" width="17.792" height="17.792"/>
			<rect x="46.784" y="31.436" width="17.792" height="17.792"/>
			<polygon points="216.62,216.134 176.207,256.554 216.622,296.969 229.202,284.389 201.37,256.554 229.207,228.714 			"/>
			<polygon points="295.375,216.142 282.796,228.722 310.633,256.554 282.796,284.381 295.375,296.961 335.793,256.554 			"/>
			
				<rect x="247.119" y="197.637" transform="matrix(-0.9848 -0.1735 0.1735 -0.9848 463.6351 553.6096)" width="17.791" height="117.807"/>
			<rect x="64.256" y="212.061" width="17.792" height="17.792"/>
			<rect x="64.256" y="247.645" width="17.792" height="17.792"/>
			<rect x="64.256" y="283.229" width="17.792" height="17.792"/>
			<rect x="429.952" y="212.061" width="17.789" height="17.792"/>
			<rect x="429.952" y="247.645" width="17.789" height="17.792"/>
			<rect x="429.952" y="283.229" width="17.789" height="17.792"/>
		</g>
	</g>
</g>
<g>
</g>
<g>
</g>
<g>
</g>
<g>
</g>
<g>
</g>
<g>
</g>
<g>
</g>
<g>
</g>
<g>
</g>
<g>
</g>
<g>
</g>
<g>
</g>
<g>
</g>
<g>
</g>
<g>
</g>
</svg>
