<?xml version="1.0" encoding="iso-8859-1"?>
<!-- Generator: Adobe Illustrator 19.0.0, SVG Export Plug-In . SVG Version: 6.00 Build 0)  -->
<svg version="1.1" id="Layer_1" xmlns="http://www.w3.org/2000/svg" xmlns:xlink="http://www.w3.org/1999/xlink" x="0px" y="0px"
	 viewBox="0 0 512 512" style="enable-background:new 0 0 512 512;" xml:space="preserve">
<g>
	<g>
		<g>
			<polygon points="9.517,59.479 9.517,76.611 9.517,512 387.332,512 387.332,494.871 26.648,494.871 26.648,76.611 387.332,76.611 
				387.332,59.479 26.648,59.479 26.648,17.129 387.332,17.129 387.332,0 9.517,0 			"/>
			<rect x="113.563" y="29.74" width="17.129" height="17.129"/>
			<rect x="79.31" y="29.74" width="17.129" height="17.129"/>
			<rect x="45.05" y="29.74" width="17.129" height="17.129"/>
			<polygon points="45.05,476.475 387.332,476.475 387.332,459.346 62.181,459.346 62.181,112.141 387.332,112.141 387.332,95.012 
				45.05,95.012 			"/>
			<rect x="169.166" y="143.949" width="174.95" height="17.132"/>
			<rect x="169.166" y="182.016" width="87.475" height="17.129"/>
			<polygon points="144.076,148.088 115.345,176.822 99.086,160.566 86.975,172.677 115.345,201.044 156.187,160.202 			"/>
			<rect x="169.166" y="220.076" width="174.95" height="17.129"/>
			<rect x="169.166" y="258.15" width="87.475" height="17.132"/>
			<polygon points="144.076,224.223 115.345,252.956 99.086,236.698 86.975,248.809 115.345,277.176 156.187,236.334 			"/>
			<rect x="169.166" y="296.218" width="174.95" height="17.129"/>
			<rect x="169.166" y="334.285" width="87.475" height="17.129"/>
			<path d="M149.18,296.207H93.981v55.199h55.199V296.207z M132.051,334.275h-20.938v-20.938h20.938V334.275z"/>
			<rect x="169.166" y="372.352" width="174.95" height="17.129"/>
			<rect x="169.166" y="410.419" width="87.475" height="17.129"/>
			<path d="M93.981,427.54h55.199v-55.199H93.981V427.54z M111.113,389.471h20.938v20.938h-20.938V389.471z"/>
			<path d="M494.962,7.531C490.108,2.673,483.659,0,476.794,0h-34.266c-6.861,0-13.315,2.67-18.168,7.526
				c-4.854,4.856-7.526,11.31-7.526,18.176v42.342v8.566v359.48l42.826,74.941l42.824-74.941V76.611v-8.566V25.702
				C502.483,18.836,499.813,12.383,494.962,7.531z M433.967,25.702c0-2.289,0.891-4.442,2.509-6.062
				c1.621-1.615,3.768-2.509,6.054-2.509h34.266c2.284,0,4.434,0.888,6.052,2.509c1.613,1.62,2.506,3.771,2.506,6.062v33.777
				h-51.387V25.702z M451.099,76.611v319.383l-17.134,17.14V76.611H451.099z M436.081,435.242l23.579-23.579l23.578,23.58
				l-23.578,41.262L436.081,435.242z M485.354,413.132l-17.126-17.131V76.611h17.126V413.132z"/>
		</g>
	</g>
</g>
<g>
</g>
<g>
</g>
<g>
</g>
<g>
</g>
<g>
</g>
<g>
</g>
<g>
</g>
<g>
</g>
<g>
</g>
<g>
</g>
<g>
</g>
<g>
</g>
<g>
</g>
<g>
</g>
<g>
</g>
</svg>
