<?xml version="1.0" encoding="iso-8859-1"?>
<!-- Generator: Adobe Illustrator 19.0.0, SVG Export Plug-In . SVG Version: 6.00 Build 0)  -->
<svg version="1.1" id="Layer_1" xmlns="http://www.w3.org/2000/svg" xmlns:xlink="http://www.w3.org/1999/xlink" x="0px" y="0px"
	 viewBox="0 0 512 512" style="enable-background:new 0 0 512 512;" xml:space="preserve">
<g>
	<g>
		<g>
			<path d="M0,36.608v62.257v17.93v358.597h512V116.795v-17.93V36.608H0z M17.93,116.795h141.455v340.667H17.93V116.795z
				 M494.07,457.462H177.306V116.795H494.07V457.462z M17.93,98.865V54.538h476.14v44.326H17.93z"/>
			<rect x="118.528" y="67.735" width="19.922" height="17.92"/>
			<rect x="78.692" y="67.735" width="19.922" height="17.92"/>
			<rect x="38.848" y="67.735" width="19.922" height="17.92"/>
			<path d="M312.778,138.708h-57.774v57.774h57.774V138.708z M294.848,178.552h-21.914v-21.914h21.914V178.552z"/>
			<path d="M392.468,138.708h-57.774v57.774h57.774V138.708z M374.538,178.552h-21.916v-21.914h21.916V178.552z"/>
			<path d="M472.156,138.708h-57.772v57.774h57.772V138.708z M454.226,178.552h-21.914v-21.914h21.914V178.552z"/>
			<path d="M472.156,218.399H255.004v57.772h217.152V218.399z M454.223,258.24H272.934v-21.914h181.289V258.24z"/>
			<path d="M472.156,298.086H255.004v57.774h217.152V298.086z M454.223,337.93H272.934v-21.916h181.289V337.93z"/>
			<path d="M352.622,377.777h-97.618v57.772h97.618V377.777z M334.692,417.618h-61.757v-21.914h61.757V417.618z"/>
			<polygon points="236.078,415.626 236.078,397.699 217.152,397.699 217.152,335.923 236.07,335.923 236.07,318.003 
				217.152,318.003 217.152,256.23 236.07,256.23 236.07,238.31 217.152,238.31 217.152,176.561 236.078,176.561 236.078,158.63 
				199.222,158.63 199.222,415.626 			"/>
			<rect x="453.222" y="397.696" width="19.922" height="17.92"/>
			<rect x="413.389" y="397.696" width="19.922" height="17.92"/>
			<rect x="373.53" y="397.696" width="19.922" height="17.92"/>
			<rect x="38.848" y="258.227" width="99.61" height="17.92"/>
			<rect x="38.848" y="298.086" width="99.61" height="17.92"/>
			<rect x="38.848" y="337.92" width="99.61" height="17.92"/>
			<rect x="38.848" y="377.779" width="99.61" height="17.92"/>
			<rect x="38.848" y="417.613" width="99.61" height="17.92"/>
			<path d="M137.462,138.708H39.844v97.618h97.618V138.708z M119.534,218.399h-61.76v-61.76h61.76V218.399z"/>
		</g>
	</g>
</g>
<g>
</g>
<g>
</g>
<g>
</g>
<g>
</g>
<g>
</g>
<g>
</g>
<g>
</g>
<g>
</g>
<g>
</g>
<g>
</g>
<g>
</g>
<g>
</g>
<g>
</g>
<g>
</g>
<g>
</g>
</svg>
