<?xml version="1.0" encoding="iso-8859-1"?>
<!-- Generator: Adobe Illustrator 19.0.0, SVG Export Plug-In . SVG Version: 6.00 Build 0)  -->
<svg version="1.1" id="Layer_1" xmlns="http://www.w3.org/2000/svg" xmlns:xlink="http://www.w3.org/1999/xlink" x="0px" y="0px"
	 viewBox="0 0 512 512" style="enable-background:new 0 0 512 512;" xml:space="preserve">
<g>
	<g>
		<g>
			<path d="M0,41.871v61.775v17.795v348.687h512V121.441v-17.795V41.871H0z M494.211,452.337H17.792V121.441h476.419V452.337z
				 M17.792,103.647V59.663h476.419v43.983H17.792z"/>
			<rect x="117.965" y="72.76" width="17.792" height="17.792"/>
			<rect x="82.381" y="72.76" width="17.792" height="17.792"/>
			<rect x="46.789" y="72.76" width="17.792" height="17.792"/>
			<path d="M203.102,351.209h-32.24v55.606h17.792v-37.814h24.097c9.787,14.816,22.965,27.456,38.795,36.616l4.454,2.58l4.454-2.58
				c15.829-9.16,29.006-21.8,38.793-36.616h24.089v37.814h17.792v-55.606h-32.232c5.117-11.746,8.319-24.365,9.327-37.379h22.97
				v-17.792h-22.957c-0.991-12.98-4.144-25.584-9.274-37.363h32.168v-50.857h-17.792v33.065h-24.055
				c-2.315-3.489-4.831-6.863-7.534-10.113c2.967-5.619,4.655-12.013,4.655-18.797c0-22.277-18.125-40.402-40.402-40.402
				s-40.402,18.125-40.402,40.402c0,6.783,1.688,13.177,4.655,18.795c-2.705,3.251-5.221,6.625-7.537,10.115h-24.061v-33.065
				h-17.792v50.857h32.173c-5.13,11.778-8.281,24.382-9.272,37.363h-22.96v17.792h22.972
				C194.783,326.844,197.986,339.463,203.102,351.209z M264.906,380.91V268.672h-17.789v112.259
				c-22.456-18.548-35.909-46.429-35.909-75.986c0-22.058,7.35-43.209,20.839-60.461c6.708,4.955,14.993,7.892,23.953,7.892
				c8.959,0,17.243-2.936,23.95-7.889c13.49,17.255,20.837,38.409,20.837,60.459C300.787,334.492,287.346,362.359,264.906,380.91z
				 M256,189.363c12.462,0,22.61,10.138,22.61,22.61c0,12.465-10.148,22.61-22.61,22.61c-12.472,0-22.61-10.145-22.61-22.61
				C233.39,199.501,243.528,189.363,256,189.363z"/>
			<rect x="57.661" y="280.32" width="38.095" height="17.792"/>
			<rect x="95.77" y="352.794" width="44.931" height="17.789"/>
			<rect x="95.77" y="389.018" width="44.931" height="17.792"/>
			<rect x="57.661" y="316.518" width="83.029" height="17.789"/>
			<rect x="95.77" y="207.821" width="44.931" height="17.792"/>
			<rect x="95.77" y="244.045" width="44.931" height="17.792"/>
			<rect x="57.661" y="171.571" width="83.029" height="17.792"/>
			<rect x="416.256" y="280.269" width="38.093" height="17.789"/>
			<rect x="371.302" y="207.795" width="44.936" height="17.792"/>
			<rect x="371.302" y="171.571" width="44.936" height="17.792"/>
			<rect x="371.302" y="244.045" width="83.029" height="17.792"/>
			<rect x="371.302" y="352.768" width="44.936" height="17.792"/>
			<rect x="371.302" y="316.518" width="44.936" height="17.789"/>
			<rect x="371.302" y="389.018" width="83.029" height="17.792"/>
		</g>
	</g>
</g>
<g>
</g>
<g>
</g>
<g>
</g>
<g>
</g>
<g>
</g>
<g>
</g>
<g>
</g>
<g>
</g>
<g>
</g>
<g>
</g>
<g>
</g>
<g>
</g>
<g>
</g>
<g>
</g>
<g>
</g>
</svg>
