<?xml version="1.0" encoding="iso-8859-1"?>
<!-- Generator: Adobe Illustrator 19.0.0, SVG Export Plug-In . SVG Version: 6.00 Build 0)  -->
<svg version="1.1" id="Layer_1" xmlns="http://www.w3.org/2000/svg" xmlns:xlink="http://www.w3.org/1999/xlink" x="0px" y="0px"
	 viewBox="0 0 512 512" style="enable-background:new 0 0 512 512;" xml:space="preserve">
<g>
	<g>
		<g>
			<path d="M147.447,166.479v16.42V512h326.572V182.899v-16.42v-57.014H147.447V166.479z M457.599,495.58H163.867V182.899h293.732
				V495.58z M163.867,125.885h293.732v40.594H163.867V125.885z"/>
			<rect x="259.662" y="137.974" width="16.417" height="16.42"/>
			<rect x="226.817" y="137.974" width="16.42" height="16.42"/>
			<rect x="193.972" y="137.974" width="16.42" height="16.42"/>
			<rect x="193.972" y="212.439" width="51.085" height="16.42"/>
			<rect x="245.044" y="280.218" width="54.93" height="16.42"/>
			<rect x="245.044" y="314.086" width="54.93" height="16.42"/>
			<rect x="245.044" y="415.718" width="54.93" height="16.42"/>
			<rect x="245.044" y="449.587" width="54.93" height="16.42"/>
			<rect x="193.972" y="246.298" width="106.01" height="16.422"/>
			<rect x="193.972" y="347.955" width="51.085" height="16.42"/>
			<rect x="193.972" y="381.824" width="106.01" height="16.42"/>
			<rect x="321.46" y="280.218" width="54.943" height="16.42"/>
			<rect x="321.46" y="314.086" width="106.035" height="16.42"/>
			<rect x="321.46" y="246.298" width="54.943" height="16.422"/>
			<rect x="321.46" y="415.744" width="54.943" height="16.42"/>
			<rect x="321.46" y="449.613" width="106.035" height="16.42"/>
			<rect x="321.46" y="381.824" width="54.943" height="16.42"/>
			<polygon points="109.134,71.153 402.866,71.153 402.866,90.309 419.286,90.309 419.286,54.733 92.714,54.733 92.714,457.267 
				128.291,457.267 128.291,440.847 109.134,440.847 			"/>
			<polygon points="73.558,386.115 54.401,386.115 54.401,16.42 348.133,16.42 348.133,35.576 364.553,35.576 364.553,0 37.981,0 
				37.981,402.534 73.558,402.534 			"/>
			<polygon points="429.321,0 429.321,16.42 457.599,16.42 457.599,44.698 474.019,44.698 474.019,0 			"/>
			<polygon points="54.401,467.295 37.981,467.295 37.981,512 82.682,512 82.682,495.58 54.401,495.58 			"/>
		</g>
	</g>
</g>
<g>
</g>
<g>
</g>
<g>
</g>
<g>
</g>
<g>
</g>
<g>
</g>
<g>
</g>
<g>
</g>
<g>
</g>
<g>
</g>
<g>
</g>
<g>
</g>
<g>
</g>
<g>
</g>
<g>
</g>
</svg>
