<?xml version="1.0" encoding="iso-8859-1"?>
<!-- Generator: Adobe Illustrator 19.0.0, SVG Export Plug-In . SVG Version: 6.00 Build 0)  -->
<svg version="1.1" id="Layer_1" xmlns="http://www.w3.org/2000/svg" xmlns:xlink="http://www.w3.org/1999/xlink" x="0px" y="0px"
	 viewBox="0 0 512 512" style="enable-background:new 0 0 512 512;" xml:space="preserve">
<g>
	<g>
		<g>
			<path d="M0,5.437v61.775v17.792v348.69h174.83v-17.792H17.792V85.005h476.416v330.898H337.17v17.792H512V85.005V67.213V5.437H0z
				 M17.792,67.213V23.227h476.416v43.986H17.792z"/>
			<rect x="117.965" y="36.324" width="17.792" height="17.792"/>
			<rect x="82.381" y="36.324" width="17.792" height="17.792"/>
			<rect x="46.787" y="36.324" width="17.792" height="17.792"/>
			<path d="M96.394,256.568l159.583,249.994l159.629-249.994l-69.476-69.43H165.862L96.394,256.568z M225.079,248.909l30.889-38.652
				l30.916,38.652H225.079z M294.39,266.701l-38.402,180.495l-38.365-180.495H294.39z M199.431,266.701l37.672,177.233
				L123.967,266.701H199.431z M129.224,248.909l38.557-38.536l23.129,38.536H129.224z M312.583,266.701h75.451l-113.15,177.192
				L312.583,266.701z M321.063,248.909l23.131-38.559l38.584,38.559H321.063z M304.32,242.229l-29.835-37.301h52.211L304.32,242.229
				z M207.648,242.221l-22.383-37.293h52.185L207.648,242.221z"/>
			<rect x="282.675" y="138.701" width="17.792" height="17.792"/>
			<rect x="247.117" y="138.701" width="17.792" height="17.792"/>
			<rect x="211.507" y="138.701" width="17.792" height="17.792"/>
		</g>
	</g>
</g>
<g>
</g>
<g>
</g>
<g>
</g>
<g>
</g>
<g>
</g>
<g>
</g>
<g>
</g>
<g>
</g>
<g>
</g>
<g>
</g>
<g>
</g>
<g>
</g>
<g>
</g>
<g>
</g>
<g>
</g>
</svg>
