<?xml version="1.0" encoding="iso-8859-1"?>
<!-- Generator: Adobe Illustrator 19.0.0, SVG Export Plug-In . SVG Version: 6.00 Build 0)  -->
<svg version="1.1" id="Layer_1" xmlns="http://www.w3.org/2000/svg" xmlns:xlink="http://www.w3.org/1999/xlink" x="0px" y="0px"
	 viewBox="0 0 512 512" style="enable-background:new 0 0 512 512;" xml:space="preserve">
<g>
	<g>
		<g>
			<path d="M0,41.871v61.775v17.795v348.687h512V121.441v-17.795V41.871H0z M158.147,247.949h-51.395v-10.975
				c13.03-3.272,23.311-13.553,26.578-26.583h121.685v37.558h-39.539H158.147z M197.686,265.743v186.593h-21.745V265.743H197.686z
				 M342.208,292.539c-17.866-6.838-29.867-24.261-29.867-43.346c0-14.249,6.687-27.725,17.789-36.462v41.405h57.331v-41.405
				c11.105,8.737,17.789,22.213,17.789,36.462c0,19.085-12.006,36.508-29.867,43.346l-5.714,2.186v157.611h-21.747V294.725
				L342.208,292.539z M494.211,452.337H387.458v-145.7c21.512-10.772,35.581-33.126,35.581-57.444
				c0-22.651-12.186-43.868-31.808-55.373l-2.084-1.221h-19.482v43.745h-21.745v-43.745H328.44l-2.084,1.221
				c-19.622,11.505-31.808,32.719-31.808,55.373c0,24.312,14.07,46.666,35.581,57.444v145.7H215.475V265.743h57.326h0.003v-73.147
				H116.636v8.896c0,10.355-8.425,18.78-18.78,18.78H88.96v45.471h69.187v186.593H17.792V121.441h476.419V452.337z M17.792,103.647
				V59.663h476.419v43.983H17.792z"/>
			<rect x="120.909" y="72.76" width="19.768" height="17.792"/>
			<rect x="81.385" y="72.76" width="19.768" height="17.792"/>
			<rect x="41.846" y="72.76" width="19.768" height="17.792"/>
			<rect x="264.909" y="309.683" width="17.792" height="19.768"/>
			<rect x="264.909" y="349.21" width="17.792" height="19.768"/>
			<rect x="264.909" y="388.736" width="17.792" height="19.771"/>
		</g>
	</g>
</g>
<g>
</g>
<g>
</g>
<g>
</g>
<g>
</g>
<g>
</g>
<g>
</g>
<g>
</g>
<g>
</g>
<g>
</g>
<g>
</g>
<g>
</g>
<g>
</g>
<g>
</g>
<g>
</g>
<g>
</g>
</svg>
