<?xml version="1.0" encoding="iso-8859-1"?>
<!-- Generator: Adobe Illustrator 19.0.0, SVG Export Plug-In . SVG Version: 6.00 Build 0)  -->
<svg version="1.1" id="Layer_1" xmlns="http://www.w3.org/2000/svg" xmlns:xlink="http://www.w3.org/1999/xlink" x="0px" y="0px"
	 viewBox="0 0 512 512" style="enable-background:new 0 0 512 512;" xml:space="preserve">
<g>
	<g>
		<g>
			<path d="M22.51,0v511.992h380.114V85.804L316.815,0H22.51z M322.022,30.371l50.228,50.223h-50.228V30.371z M40.302,494.2V17.792
				h263.931v80.594h80.599V494.2H40.302z"/>
			<path d="M212.564,124.539c-72.486,0-131.459,58.975-131.459,131.461c0,72.489,58.972,131.456,131.459,131.456
				S344.023,328.486,344.023,256S285.048,124.539,212.564,124.539z M212.564,369.664c-62.674,0-113.667-50.993-113.667-113.664
				c0-62.679,50.993-113.667,113.667-113.667c62.679,0,113.669,50.987,113.667,113.667
				C326.231,318.671,275.241,369.664,212.564,369.664z"/>
			<polygon points="167.944,210.171 122.117,256 167.946,301.824 180.526,289.242 147.279,256 180.526,222.748 			"/>
			<polygon points="244.611,222.756 277.852,256 244.611,289.239 257.19,301.821 303.02,256 257.19,210.179 			"/>
			
				<rect x="203.662" y="187.748" transform="matrix(-0.9847 -0.1741 0.1741 -0.9847 377.2998 545.0895)" width="17.792" height="136.495"/>
			<rect x="163.146" y="80.594" width="19.768" height="17.792"/>
			<rect x="202.675" y="80.594" width="19.768" height="17.792"/>
			<rect x="242.227" y="80.594" width="19.768" height="17.792"/>
			<rect x="242.227" y="413.619" width="19.768" height="17.792"/>
			<rect x="202.675" y="413.619" width="19.768" height="17.792"/>
			<rect x="163.146" y="413.619" width="19.768" height="17.792"/>
			<path d="M458.872,0.829l-30.61,47.339v402.604v17.789v12.828c0,8.169,3.18,15.852,8.965,21.652
				c5.783,5.775,13.468,8.957,21.645,8.957c8.184,0,15.867-3.182,21.652-8.963c5.783-5.788,8.965-13.476,8.965-21.647v-12.828
				v-17.789V48.169L458.872,0.829z M471.698,481.39c0,3.425-1.336,6.648-3.761,9.073c-4.833,4.836-13.297,4.828-18.122,0.005
				c-2.427-2.432-3.763-5.658-3.763-9.078v-12.828h25.646V481.39z M446.052,450.772V53.422l12.82-19.827l12.826,19.827v397.35
				H446.052z"/>
		</g>
	</g>
</g>
<g>
</g>
<g>
</g>
<g>
</g>
<g>
</g>
<g>
</g>
<g>
</g>
<g>
</g>
<g>
</g>
<g>
</g>
<g>
</g>
<g>
</g>
<g>
</g>
<g>
</g>
<g>
</g>
<g>
</g>
</svg>
