<?xml version="1.0" encoding="iso-8859-1"?>
<!-- Generator: Adobe Illustrator 19.0.0, SVG Export Plug-In . SVG Version: 6.00 Build 0)  -->
<svg version="1.1" id="Layer_1" xmlns="http://www.w3.org/2000/svg" xmlns:xlink="http://www.w3.org/1999/xlink" x="0px" y="0px"
	 viewBox="0 0 512 512" style="enable-background:new 0 0 512 512;" xml:space="preserve">
<g>
	<g>
		<g>
			<path d="M256.005,118.633c-75.745,0-137.365,61.624-137.365,137.365s61.622,137.354,137.365,137.354
				c75.74,0,137.354-61.614,137.354-137.354S331.745,118.633,256.005,118.633z M256.005,375.567
				c-65.933,0-119.575-53.642-119.575-119.567c0-65.935,53.64-119.578,119.575-119.578S375.572,190.062,375.572,256
				C375.572,321.928,321.938,375.567,256.005,375.567z"/>
			<path d="M511.951,282.071v-52.134l-54.738-11.011c-1.969-10.619-4.803-21.153-8.479-31.452l41.907-37.071l-25.894-44.79
				l-53.084,17.846c-7.073-8.284-14.815-16.018-23.137-23.099l17.951-53.164l-45.033-25.894l-36.982,42.091
				c-10.284-3.663-20.782-6.484-31.36-8.438L282.04,0h-51.976l-11.067,54.938c-10.596,1.948-21.115,4.774-31.406,8.443
				l-36.995-42.076l-45.018,25.892l17.948,53.21c-8.284,7.071-16.008,14.799-23.06,23.068l-53.12-17.861l-25.917,44.79
				l41.992,37.166c-3.656,10.26-6.479,20.749-8.428,31.317L0.049,229.942l0.097,52.132l54.851,10.977
				c1.953,10.578,4.78,21.077,8.438,31.352L21.435,361.49l25.91,44.887l53.128-17.928c7.073,8.299,14.797,16.02,23.066,23.071
				l-17.958,53.176l45.02,25.94l36.961-42.107c10.291,3.676,20.815,6.5,31.424,8.448L230.065,512h51.983l11.064-55.037
				c10.591-1.953,21.097-4.777,31.383-8.445l37.036,42.122l44.941-25.948l-17.951-53.125c8.307-7.066,16.056-14.802,23.137-23.091
				l53.1,17.902l25.887-44.895l-41.923-36.995c3.681-10.322,6.523-20.861,8.492-31.483L511.951,282.071z M467.973,365.197
				l-11.343,19.671l-50.97-17.193l-3.891,4.849c-8.607,10.747-18.427,20.544-29.181,29.13l-4.872,3.891l17.239,51.034
				l-19.694,11.364l-35.569-40.456l-5.806,2.271c-12.887,5.041-26.219,8.622-39.613,10.652l-6.162,0.927l-10.629,52.877h-22.856
				l-10.639-52.867l-6.164-0.924c-13.422-2.022-26.762-5.604-39.657-10.655l-5.809-2.278l-35.51,40.456l-19.753-11.379
				l17.244-51.054l-4.859-3.891c-10.703-8.571-20.498-18.36-29.115-29.115l-3.891-4.854l-51.008,17.216l-11.356-19.671l40.343-35.62
				l-2.26-5.791c-5.036-12.884-8.617-26.202-10.647-39.583l-0.934-6.159l-52.703-10.555l-0.046-22.986l52.749-10.614l0.934-6.162
				c2.03-13.371,5.604-26.678,10.629-39.534l2.258-5.783l-40.32-35.692l11.349-19.615l51.016,17.16l3.889-4.849
				c8.584-10.716,18.378-20.513,29.11-29.12l4.849-3.891l-17.226-51.062l19.755-11.364l35.546,40.42l5.801-2.266
				c12.9-5.038,26.237-8.62,39.639-10.647l6.162-0.929l10.629-52.772h22.856l10.621,52.785l6.152,0.934
				c13.389,2.03,26.714,5.612,39.608,10.65l5.806,2.263l35.528-40.438l19.758,11.364l-17.226,51.031l4.864,3.891
				c10.77,8.617,20.587,18.422,29.174,29.133l3.884,4.846l50.977-17.134l11.343,19.615l-40.241,35.594l2.255,5.786
				c5.043,12.892,8.632,26.245,10.685,39.683l0.934,6.152l52.559,10.568v22.979l-52.552,10.501l-0.942,6.162
				c-2.045,13.427-5.642,26.788-10.701,39.721l-2.263,5.791L467.973,365.197z"/>
			<polygon points="212.746,211.579 168.325,256.01 212.746,300.424 225.321,287.841 193.48,256.003 225.321,224.156 			"/>
			<polygon points="286.687,224.164 318.536,256.005 286.687,287.841 299.264,300.424 343.688,256.005 299.264,211.587 			"/>
			
				<rect x="247.099" y="190.177" transform="matrix(-0.9847 -0.174 0.174 -0.9847 463.5357 552.6478)" width="17.789" height="131.655"/>
			<rect x="247.117" y="85.043" width="17.789" height="17.787"/>
			<rect x="247.117" y="409.165" width="17.789" height="17.787"/>
			<rect x="85.043" y="247.117" width="17.787" height="17.789"/>
			<rect x="409.19" y="247.117" width="17.787" height="17.789"/>
		</g>
	</g>
</g>
<g>
</g>
<g>
</g>
<g>
</g>
<g>
</g>
<g>
</g>
<g>
</g>
<g>
</g>
<g>
</g>
<g>
</g>
<g>
</g>
<g>
</g>
<g>
</g>
<g>
</g>
<g>
</g>
<g>
</g>
</svg>
