<?xml version="1.0" encoding="iso-8859-1"?>
<!-- Generator: Adobe Illustrator 19.0.0, SVG Export Plug-In . SVG Version: 6.00 Build 0)  -->
<svg version="1.1" id="Layer_1" xmlns="http://www.w3.org/2000/svg" xmlns:xlink="http://www.w3.org/1999/xlink" x="0px" y="0px"
	 viewBox="0 0 512 512" style="enable-background:new 0 0 512 512;" xml:space="preserve">
<g>
	<g>
		<g>
			<path d="M16.686,112.854h21.368c6.799,0,13.197-2.647,18.02-7.46c4.805-4.813,7.45-11.21,7.45-18.01
				c0-6.797-2.645-13.192-7.455-18.007c-4.81-4.813-11.208-7.462-18.015-7.462H0.878v86.067h15.808V112.854z M16.686,77.725h21.371
				c2.583,0,5.013,1.006,6.83,2.826c1.823,1.823,2.829,4.252,2.829,6.833c0,2.583-1.006,5.015-2.821,6.83
				c-1.825,1.823-4.257,2.829-6.84,2.829H16.686V77.725z"/>
			<path d="M180.621,112.854h21.371c6.797,0,13.192-2.644,18.007-7.455c4.813-4.81,7.462-11.208,7.462-18.015
				c0-6.805-2.65-13.199-7.462-18.007c-4.81-4.813-11.203-7.462-18.007-7.462h-37.179v86.067h15.808V112.854z M180.621,77.725
				h21.371c2.578,0,5.007,1.004,6.83,2.829c1.823,1.825,2.829,4.25,2.829,6.83c0,2.583-1.003,5.012-2.826,6.83
				c-1.823,1.823-4.252,2.829-6.833,2.829h-21.371V77.725z"/>
			<polygon points="98.652,112.851 129.685,112.851 129.685,147.969 145.492,147.969 145.492,112.851 145.492,97.043 
				145.492,61.902 129.685,61.902 129.685,97.043 98.652,97.043 98.652,61.902 82.844,61.902 82.844,97.043 82.844,112.851 
				82.844,147.969 98.652,147.969 			"/>
			<path d="M512,183.988c0-72.154-58.701-130.854-130.849-130.857c-72.154,0-130.854,58.701-130.854,130.854
				c0,21.986,5.437,43.278,15.816,62.357H0.878v212.526h446.72V296.735C487.442,273.226,512,230.461,512,183.988z M431.79,443.06
				H16.686V262.148H431.79V443.06z M447.598,277.904v-31.561H284.487c-12.038-18.609-18.383-40.078-18.383-62.357
				c0-63.437,51.607-115.046,115.044-115.046s115.046,51.61,115.046,115.046C496.195,221.619,477.866,256.478,447.598,277.904z"/>
			<path d="M334.31,140.955h-11.717c-6.802,0-13.197,2.65-18.004,7.462c-4.815,4.81-7.462,11.203-7.462,18.007v35.126
				c0,6.804,2.647,13.197,7.462,18.007c4.808,4.813,11.203,7.462,18.004,7.462h11.717c6.802,0,13.194-2.647,18.005-7.462
				c4.813-4.81,7.462-11.203,7.462-18.007v-7.903h-15.808v7.903c0,2.578-1.003,5.007-2.829,6.83
				c-1.825,1.823-4.252,2.829-6.83,2.829h-11.717c-2.581,0-5.007-1.006-6.83-2.829c-1.823-1.823-2.829-4.25-2.829-6.83v-35.126
				c0-2.578,1.004-5.007,2.829-6.83c1.825-1.823,4.25-2.829,6.83-2.829h11.717c2.578,0,5.007,1.006,6.83,2.829
				c1.823,1.823,2.829,4.25,2.829,6.83v7.903h15.808v-7.903c0-6.804-2.65-13.197-7.462-18.007
				C347.505,143.604,341.112,140.955,334.31,140.955z"/>
			<path d="M465.175,174.327v-15.808h-17.572v-17.564h-15.808v17.564H412.48v-17.564h-15.808v17.564H379.11v15.808h17.562v19.313
				H379.11v15.808h17.562v17.572h15.808v-17.572h19.315v17.572h15.808v-17.572h17.572V193.64h-17.572v-19.313H465.175z
				 M431.795,193.64H412.48v-19.313h19.315V193.64z"/>
			<path d="M347.187,395.639h37.179v-15.811h-37.179c-2.58,0-5.007-1.004-6.83-2.829c-1.823-1.825-2.829-4.25-2.829-6.83v-60.598
				h-15.811v60.598c0,6.802,2.65,13.197,7.46,18.004C333.985,392.987,340.38,395.639,347.187,395.639z"/>
			<path d="M243.85,339.304l15.301,18.363c3.005,3.599,9.139,3.599,12.145,0l15.293-18.355v56.328h15.808v-78.162
				c0-3.325-2.084-6.298-5.215-7.429c-3.11-1.132-6.628-0.189-8.76,2.371l-23.199,27.843l-23.204-27.843
				c-2.135-2.56-5.642-3.505-8.76-2.371c-3.131,1.132-5.215,4.101-5.215,7.429v78.162h15.805V339.304z"/>
			<polygon points="169.498,395.649 185.306,395.649 185.306,325.393 208.719,325.393 208.719,309.582 185.306,309.582 
				169.498,309.582 146.074,309.582 146.074,325.393 169.498,325.393 			"/>
			<polygon points="79.91,360.513 110.95,360.513 110.95,395.649 126.758,395.649 126.758,309.582 110.95,309.582 110.95,344.705 
				79.91,344.705 79.91,309.582 64.102,309.582 64.102,344.705 64.102,360.513 64.102,395.649 79.91,395.649 			"/>
			<rect x="70.257" y="189.257" width="17.564" height="15.808"/>
			<rect x="35.128" y="189.257" width="17.564" height="15.808"/>
			<rect y="189.257" width="17.564" height="15.808"/>
		</g>
	</g>
</g>
<g>
</g>
<g>
</g>
<g>
</g>
<g>
</g>
<g>
</g>
<g>
</g>
<g>
</g>
<g>
</g>
<g>
</g>
<g>
</g>
<g>
</g>
<g>
</g>
<g>
</g>
<g>
</g>
<g>
</g>
</svg>
