<?xml version="1.0" encoding="iso-8859-1"?>
<!-- Generator: Adobe Illustrator 19.0.0, SVG Export Plug-In . SVG Version: 6.00 Build 0)  -->
<svg version="1.1" id="Layer_1" xmlns="http://www.w3.org/2000/svg" xmlns:xlink="http://www.w3.org/1999/xlink" x="0px" y="0px"
	 viewBox="0 0 512 512" style="enable-background:new 0 0 512 512;" xml:space="preserve">
<g>
	<g>
		<g>
			<path d="M499.47,84.526c-3.062-3.064-7.135-4.754-11.469-4.754H264.227V72c0-6.482-2.519-12.567-7.096-17.132
				c-4.575-4.575-10.66-7.096-17.129-7.096h-48c-2.076,0-4.024-0.809-5.496-2.278c-1.464-1.469-2.276-3.418-2.276-5.494
				c0-2.079,0.804-4.029,2.276-5.496c1.467-1.469,3.42-2.276,5.496-2.276h96.003c6.469,0,12.549-2.522,17.134-7.104
				c4.575-4.577,7.094-10.66,7.094-17.124V0h-16.458v7.997c0,2.074-0.814,4.027-2.278,5.494c-1.475,1.469-3.423,2.278-5.494,2.278
				h-96c-6.474,0-12.557,2.522-17.124,7.091c-4.58,4.567-7.104,10.657-7.104,17.139c0,6.472,2.519,12.554,7.096,17.129
				c4.577,4.577,10.665,7.099,17.132,7.099h48c2.076,0,4.024,0.809,5.496,2.284c1.469,1.459,2.276,3.41,2.276,5.489v7.772H24.001
				c-4.334,0-8.41,1.69-11.474,4.754C9.463,87.588,7.773,91.663,7.773,96v176.003c0,4.331,1.69,8.407,4.754,11.471
				c3.064,3.067,7.142,4.754,11.474,4.754h23.772v81.265l24,64v16.541c-1.166,0.69-2.264,1.515-3.254,2.5
				c-3.059,3.067-4.746,7.14-4.746,11.466v48h16.458l-0.23-47.772L175.773,464v48h16.456v-47.997c0-4.326-1.685-8.399-4.767-11.489
				c-0.981-0.976-2.071-1.795-3.231-2.481v-14.707c9.065-9.641,40-44.767,40-75.141v-32.177c0-6.459-2.516-12.541-7.104-17.139
				c-4.577-4.572-10.662-7.089-17.124-7.089c-2.683,0-5.299,0.44-7.772,1.276v-16.83h127.539v16.825
				c-2.472-0.835-5.088-1.276-7.77-1.276c-6.464,0-12.541,2.516-17.142,7.101c-4.575,4.582-7.089,10.665-7.089,17.124v32.177
				c0,30.377,30.938,65.5,40,75.141v14.715c-1.168,0.691-2.269,1.518-3.261,2.507c-3.059,3.069-4.739,7.14-4.739,11.461v48h16.458
				l-0.228-47.772l95.77-0.228v48h16.458v-48c0-4.334-1.692-8.41-4.769-11.489c-0.98-0.978-2.072-1.798-3.233-2.484v-16.529l24-64
				v-73.492c0-2.685-0.441-5.302-1.28-7.777h25.054c4.326,0,8.407-1.687,11.464-4.751c3.069-3.059,4.762-7.137,4.762-11.477V96
				C504.227,91.658,502.534,87.58,499.47,84.526z M194.5,322.514c2.949-2.944,8.067-2.929,10.993-0.013
				c1.472,1.475,2.281,3.428,2.281,5.501v32.177c0,23.25-27.136,55.529-37.594,66.007l-2.406,2.412v19.177H88.229v-17.262l-24-64
				V264.005c0-2.076,0.812-4.029,2.271-5.494c2.939-2.936,8.061-2.929,10.99-0.008c1.472,1.475,2.281,3.425,2.281,5.499v48h16.458v0
				h0.003v-64c0-2.076,0.812-4.029,2.271-5.494c2.939-2.936,8.061-2.929,10.99-0.008c1.472,1.475,2.281,3.428,2.281,5.499v64h16.456
				h0.003v-80c0-2.076,0.812-4.029,2.271-5.494c2.939-2.936,8.061-2.924,10.99-0.01c1.472,1.475,2.281,3.433,2.281,5.504v16v64
				h16.456h0.003v-64c0-2.071,0.812-4.029,2.268-5.489c2.949-2.944,8.067-2.929,10.993-0.015c1.472,1.475,2.281,3.433,2.281,5.504
				v104h16.458v-23.995C192.232,325.932,193.043,323.976,194.5,322.514z M447.771,366.508l-24,64v17.265h-79.544l-0.005-19.177
				l-2.401-2.406c-10.455-10.478-37.594-42.757-37.594-66.007v-32.177c0-2.074,0.809-4.029,2.266-5.491
				c2.949-2.944,8.072-2.929,10.993-0.013c1.475,1.475,2.286,3.428,2.286,5.501V352h16.456v-23.997h0.003
				c0-0.035-0.002-0.07-0.003-0.105v-95.895c0-2.071,0.809-4.029,2.266-5.489c2.949-2.944,8.072-2.929,10.993-0.015
				c1.475,1.475,2.286,3.433,2.286,5.504v51.553c0,0.035-0.003,0.07-0.003,0.105v28.342h0.003h16.456h0.003v-28.394
				c0.014-2.054,0.819-3.992,2.263-5.439c2.949-2.944,8.072-2.929,10.993-0.015c1.466,1.466,2.275,3.409,2.284,5.47
				c0,0.012-0.001,0.024-0.001,0.037v28.342h16.458V312v-28.337v-0.003c0-2.074,0.809-4.032,2.266-5.491
				c2.949-2.944,8.072-2.929,10.993-0.015c1.475,1.475,2.286,3.43,2.286,5.504v12.239c0,0.035-0.003,0.07-0.003,0.105v16h16.458V312
				v-15.997c0-2.074,0.809-4.029,2.266-5.491c2.949-2.944,8.072-2.929,10.993-0.013c1.475,1.475,2.286,3.428,2.286,5.501V366.508z
				 M440.001,271.772v0.005c-0.001,0-0.002,0-0.003,0c-3.447,0-6.78,0.722-9.842,2.085c-1.195-2.695-2.885-5.182-5.037-7.338
				c-4.58-4.572-10.665-7.091-17.121-7.091c-5.945,0-11.56,2.136-16.002,6.045c-4.429-3.905-10.055-6.045-15.998-6.045
				c-2.683,0-5.298,0.44-7.77,1.276v-28.706c0-6.461-2.519-12.544-7.107-17.139c-4.58-4.575-10.665-7.091-17.121-7.091
				c-6.464,0-12.541,2.516-17.142,7.104c-4.575,4.582-7.089,10.662-7.089,17.124v39.77H192.232v-23.767
				c0-6.461-2.516-12.544-7.104-17.139c-4.577-4.575-10.662-7.091-17.124-7.091c-3.019,0-5.953,0.556-8.694,1.609
				c-1.111-3.929-3.209-7.538-6.185-10.518c-4.577-4.575-10.662-7.091-17.124-7.091c-6.467,0-12.549,2.516-17.134,7.099
				c-2.969,2.972-5.065,6.579-6.176,10.511c-2.738-1.051-5.671-1.607-8.69-1.607c-6.467,0-12.549,2.516-17.134,7.099
				c-2.967,2.971-5.063,6.576-6.175,10.506c-2.738-1.052-5.672-1.608-8.691-1.608c-6.467,0-12.549,2.516-17.134,7.099
				c-4.575,4.58-7.094,10.662-7.094,17.129v7.831L24.229,272L24.001,96.228L487.771,96l0.23,175.772H440.001z"/>
			<rect x="56.001" y="111.772" width="16" height="16.458"/>
			<rect x="88.001" y="111.772" width="16" height="16.458"/>
			<rect x="120.001" y="111.772" width="16" height="16.458"/>
			<rect x="151.988" y="111.772" width="16" height="16.458"/>
			<rect x="184.001" y="111.772" width="16" height="16.458"/>
			<rect x="215.988" y="111.772" width="16" height="16.458"/>
			<rect x="247.988" y="111.772" width="16" height="16.458"/>
			<rect x="279.988" y="111.772" width="16" height="16.458"/>
			<rect x="311.988" y="111.772" width="16" height="16.458"/>
			<rect x="343.988" y="111.772" width="16" height="16.458"/>
			<rect x="375.988" y="111.772" width="16" height="16.458"/>
			<rect x="407.988" y="111.772" width="16" height="16.458"/>
			<rect x="439.988" y="111.772" width="16" height="16.458"/>
			<rect x="40.001" y="143.77" width="16" height="16.458"/>
			<rect x="71.988" y="143.77" width="16" height="16.458"/>
			<rect x="104.001" y="143.77" width="16" height="16.458"/>
			<rect x="135.988" y="143.77" width="16" height="16.458"/>
			<rect x="167.988" y="143.77" width="16" height="16.458"/>
			<rect x="199.988" y="143.77" width="16" height="16.458"/>
			<rect x="231.988" y="143.77" width="16" height="16.458"/>
			<rect x="263.988" y="143.77" width="16" height="16.458"/>
			<rect x="295.988" y="143.77" width="16" height="16.458"/>
			<rect x="327.988" y="143.77" width="16" height="16.458"/>
			<rect x="359.988" y="143.77" width="16" height="16.458"/>
			<rect x="391.988" y="143.77" width="16" height="16.458"/>
			<rect x="423.988" y="143.77" width="16" height="16.458"/>
			<rect x="455.988" y="143.77" width="16" height="16.458"/>
			<rect x="56.001" y="175.77" width="16" height="16.458"/>
			<rect x="88.001" y="175.77" width="16" height="16.458"/>
			<rect x="120.001" y="175.77" width="16" height="16.458"/>
			<rect x="151.988" y="175.77" width="16" height="16.458"/>
			<rect x="184.001" y="175.77" width="16" height="16.458"/>
			<rect x="215.988" y="175.77" width="16" height="16.458"/>
			<rect x="247.988" y="175.77" width="16" height="16.458"/>
			<rect x="279.988" y="175.77" width="16" height="16.458"/>
			<rect x="311.988" y="175.77" width="16" height="16.458"/>
			<rect x="343.988" y="175.77" width="16" height="16.458"/>
			<rect x="375.988" y="175.77" width="16" height="16.458"/>
			<rect x="407.988" y="175.77" width="16" height="16.458"/>
			<rect x="439.988" y="175.77" width="16" height="16.458"/>
			<rect x="40.001" y="207.77" width="16" height="16.458"/>
			<rect x="71.988" y="207.77" width="16" height="16.458"/>
			<rect x="199.988" y="207.77" width="16" height="16.458"/>
			<rect x="231.988" y="207.77" width="16" height="16.458"/>
			<rect x="263.988" y="207.77" width="16" height="16.458"/>
			<rect x="295.988" y="207.77" width="16" height="16.458"/>
			<rect x="423.988" y="207.77" width="16" height="16.458"/>
			<rect x="391.988" y="207.77" width="16" height="16.458"/>
			<rect x="455.988" y="207.77" width="16" height="16.458"/>
			<rect x="215.988" y="239.77" width="80" height="16.458"/>
		</g>
	</g>
</g>
<g>
</g>
<g>
</g>
<g>
</g>
<g>
</g>
<g>
</g>
<g>
</g>
<g>
</g>
<g>
</g>
<g>
</g>
<g>
</g>
<g>
</g>
<g>
</g>
<g>
</g>
<g>
</g>
<g>
</g>
</svg>
