<?xml version="1.0" encoding="iso-8859-1"?>
<!-- Generator: Adobe Illustrator 19.0.0, SVG Export Plug-In . SVG Version: 6.00 Build 0)  -->
<svg version="1.1" id="Layer_1" xmlns="http://www.w3.org/2000/svg" xmlns:xlink="http://www.w3.org/1999/xlink" x="0px" y="0px"
	 viewBox="0 0 512 512" style="enable-background:new 0 0 512 512;" xml:space="preserve">
<g>
	<g>
		<g>
			<path d="M65.536,123.904v18.432h252.857c4.023,14.165,17.067,24.576,32.501,24.576c18.634,0,33.792-15.16,33.792-33.792
				c0-18.632-15.16-33.792-33.792-33.792c-15.434,0-28.478,10.411-32.501,24.576H65.536z M350.894,117.76
				c8.471,0,15.36,6.886,15.36,15.36c0,8.469-6.889,15.36-15.36,15.36c-8.468,0-15.36-6.891-15.36-15.36
				C335.534,124.646,342.426,117.76,350.894,117.76z"/>
			<rect x="404.147" y="123.904" width="42.319" height="18.432"/>
			<rect x="271.872" y="369.664" width="174.592" height="18.429"/>
			<path d="M218.624,345.088c-15.437,0-28.481,10.411-32.504,24.576H65.536v18.429H186.12c4.022,14.167,17.067,24.579,32.505,24.579
				c18.632,0,33.792-15.16,33.792-33.792C252.416,360.248,237.256,345.088,218.624,345.088z M218.624,394.24
				c-8.469,0-15.36-6.892-15.36-15.36c0-8.474,6.892-15.36,15.36-15.36c8.471,0,15.36,6.886,15.36,15.36
				C233.984,387.348,227.098,394.24,218.624,394.24z"/>
			<rect x="311.296" y="185.344" width="135.171" height="18.432"/>
			<path d="M258.048,228.352c18.632,0,33.792-15.16,33.792-33.792s-15.16-33.792-33.792-33.792
				c-15.437,0-28.481,10.411-32.504,24.576H65.536v18.432h160.008C229.567,217.941,242.611,228.352,258.048,228.352z M258.048,179.2
				c8.471,0,15.36,6.886,15.36,15.36c0,8.468-6.886,15.36-15.36,15.36c-8.468,0-15.36-6.892-15.36-15.36
				C242.688,186.086,249.58,179.2,258.048,179.2z"/>
			<path d="M65.536,265.216h28.255c4.023,14.165,17.067,24.576,32.504,24.576c18.632,0,33.792-15.16,33.792-33.792
				c0-18.632-15.16-33.792-33.792-33.792c-15.437,0-28.481,10.411-32.504,24.576H65.536V265.216z M126.295,240.64
				c8.474,0,15.36,6.886,15.36,15.36c0,8.468-6.889,15.36-15.36,15.36c-8.469,0-15.36-6.892-15.36-15.36
				C110.935,247.526,117.827,240.64,126.295,240.64z"/>
			<rect x="179.533" y="246.784" width="266.931" height="18.432"/>
			<path d="M65.536,326.653h201.991c4.022,14.167,17.067,24.579,32.505,24.579c18.634,0,33.792-15.16,33.792-33.792
				c0-18.632-15.16-33.792-33.792-33.792c-15.437,0-28.481,10.411-32.504,24.576H65.536V326.653z M300.032,302.08
				c8.469,0,15.36,6.886,15.36,15.36c0,8.468-6.891,15.36-15.36,15.36c-8.468,0-15.36-6.892-15.36-15.36
				C284.672,308.966,291.564,302.08,300.032,302.08z"/>
			<rect x="353.28" y="308.224" width="93.184" height="18.429"/>
			<path d="M512,246.784c-4.099,0-7.954-1.6-10.865-4.508c-2.9-2.893-4.495-6.748-4.495-10.852V75.776
				c0-9.024-3.515-17.513-9.894-23.887c-6.38-6.387-14.863-9.905-23.9-9.905h-16.381v18.432h16.384c4.104,0,7.959,1.59,10.86,4.495
				c2.9,2.906,4.5,6.761,4.5,10.865v155.648c0,9.034,3.517,17.521,9.9,23.89c0.234,0.234,0.477,0.456,0.716,0.682
				c-0.241,0.227-0.484,0.45-0.719,0.685c-6.382,6.385-9.9,14.874-9.9,23.895v155.648c0,4.101-1.6,7.959-4.5,10.862
				c-2.895,2.898-6.753,4.498-10.86,4.498h-16.381v18.432h16.384c9.027,0,17.518-3.51,23.89-9.897c6.385-6.38,9.9-14.874,9.9-23.895
				V280.576c0-4.101,1.6-7.959,4.5-10.862c2.906-2.901,6.758-4.498,10.86-4.498v0c0.001,0,0.002,0,0.003,0V246.784z"/>
			<path d="M38.295,447.086c-2.903-2.903-4.503-6.758-4.503-10.862V280.576c0-9.024-3.512-17.51-9.897-23.892
				c-0.235-0.235-0.478-0.459-0.719-0.686c0.238-0.225,0.479-0.446,0.711-0.678c6.387-6.374,9.905-14.863,9.905-23.895V75.776
				c0-4.104,1.6-7.959,4.506-10.865c2.9-2.898,6.756-4.495,10.857-4.495h16.384V41.984H49.155c-9.029,0-17.513,3.512-23.89,9.897
				c-6.385,6.382-9.905,14.871-9.905,23.895v155.648c0,4.104-1.592,7.959-4.503,10.859c-2.898,2.901-6.753,4.5-10.857,4.5v18.432
				c4.104,0,7.959,1.597,10.865,4.498c2.898,2.903,4.495,6.758,4.495,10.862v155.648c0,9.024,3.52,17.516,9.902,23.905
				c6.385,6.377,14.866,9.887,23.89,9.887h16.384v-18.432H49.152C45.046,451.584,41.19,449.984,38.295,447.086z"/>
		</g>
	</g>
</g>
<g>
</g>
<g>
</g>
<g>
</g>
<g>
</g>
<g>
</g>
<g>
</g>
<g>
</g>
<g>
</g>
<g>
</g>
<g>
</g>
<g>
</g>
<g>
</g>
<g>
</g>
<g>
</g>
<g>
</g>
</svg>
