<?xml version="1.0" encoding="iso-8859-1"?>
<!-- Generator: Adobe Illustrator 19.0.0, SVG Export Plug-In . SVG Version: 6.00 Build 0)  -->
<svg version="1.1" id="Layer_1" xmlns="http://www.w3.org/2000/svg" xmlns:xlink="http://www.w3.org/1999/xlink" x="0px" y="0px"
	 viewBox="0 0 512.003 512.003" style="enable-background:new 0 0 512.003 512.003;" xml:space="preserve">
<g>
	<g>
		<g>
			<rect x="219.291" y="495.488" width="73.403" height="16.515"/>
			<path d="M256.004,0C159.464,0,80.925,78.541,80.925,175.078c0,49.001,20.81,96.125,57.354,129.526
				c1.16,0.975,2.345,2.015,3.548,3.059l0.975,0.852c23.218,21.178,37.328,50.564,39.465,81.628h-14.05v16.517h14.344v0h0.018
				v18.606h-14.362v16.515h14.362v18.583h-14.362v16.517h175.565v-16.517h-14.357v-18.583h14.357v-16.515h-14.357v-18.606h14.357
				v-16.517h-14.068c2.138-31.113,16.277-60.495,39.555-81.623c1.475-1.347,2.987-2.696,4.695-4.152
				c36.293-33.17,57.111-80.289,57.111-129.29C431.077,78.541,352.539,0,256.004,0z M312.91,460.365H199.098v-18.583H312.91V460.365
				z M199.098,425.267v-18.606H312.91v18.606H199.098z M363.06,291.973c-1.62,1.367-3.282,2.852-4.902,4.326
				c-26.708,24.246-42.836,58.079-45.002,93.842h-26.865V336h-16.517v54.141h-27.54V336h-16.517v54.141h-26.885
				c-2.166-35.702-18.266-69.532-45.038-93.949l-1.093-0.96c-1.29-1.124-2.563-2.235-3.548-3.052
				c-32.865-30.047-51.715-72.73-51.715-117.102c0-87.429,71.135-158.561,158.564-158.561c87.434,0,158.559,71.132,158.559,158.561
				C414.56,219.448,395.708,262.131,363.06,291.973z"/>
			<path d="M256.004,38.382l-118.367,68.344V243.42l118.367,68.347l118.362-68.347V106.726L256.004,38.382z M357.851,233.884
				l-101.847,58.811l-101.85-58.811V116.262l101.85-58.806l101.847,58.806V233.884z"/>
			<rect x="247.758" y="133.786" width="16.515" height="16.517"/>
			<rect x="247.758" y="166.81" width="16.515" height="16.517"/>
			<rect x="247.758" y="199.859" width="16.515" height="16.515"/>
			<polygon points="215.773,130.214 170.925,175.076 215.779,219.93 227.455,208.251 194.28,175.076 227.455,141.893 			"/>
			<polygon points="296.232,219.93 341.091,175.076 296.232,130.214 284.553,141.893 317.736,175.076 284.553,208.248 			"/>
		</g>
	</g>
</g>
<g>
</g>
<g>
</g>
<g>
</g>
<g>
</g>
<g>
</g>
<g>
</g>
<g>
</g>
<g>
</g>
<g>
</g>
<g>
</g>
<g>
</g>
<g>
</g>
<g>
</g>
<g>
</g>
<g>
</g>
</svg>
