<?xml version="1.0" encoding="iso-8859-1"?>
<!-- Generator: Adobe Illustrator 19.0.0, SVG Export Plug-In . SVG Version: 6.00 Build 0)  -->
<svg version="1.1" id="Layer_1" xmlns="http://www.w3.org/2000/svg" xmlns:xlink="http://www.w3.org/1999/xlink" x="0px" y="0px"
	 viewBox="0 0 512 512" style="enable-background:new 0 0 512 512;" xml:space="preserve">
<g>
	<g>
		<g>
			<path d="M96.384,421.44l-8.753-110.162H45.898l35.594-104.143l0.107-22.451c0-92.104,74.939-167.037,167.05-167.037V0.929
				c-98.529,0-179.192,77.939-183.583,175.396h-0.294v28.029L22.515,327.992h49.674l8.878,111.782l80.968-8.125l9.882,80.141
				l16.594-2.045l-11.884-96.358L96.384,421.44z"/>
			<polygon points="398.628,313.434 368.789,400.719 385.347,512 401.882,509.54 385.925,402.281 415.345,316.211 415.345,279.283 
				398.628,279.283 			"/>
			<rect x="98.071" y="169.216" width="18.143" height="16.714"/>
			<rect x="98.071" y="205.491" width="18.143" height="16.717"/>
			<rect x="471.345" y="169.216" width="18.14" height="16.714"/>
			<rect x="471.345" y="205.491" width="18.14" height="16.717"/>
			<rect x="267.287" width="16.717" height="18.145"/>
			<rect x="303.562" width="16.714" height="18.145"/>
			<rect x="267.287" y="492.621" width="16.717" height="18.138"/>
			<rect x="321.636" y="150.198" width="18.575" height="16.717"/>
			<rect x="284.49" y="150.198" width="18.573" height="16.717"/>
			<rect x="247.345" y="150.198" width="18.573" height="16.717"/>
			<rect x="321.636" y="187.341" width="18.575" height="16.717"/>
			<rect x="284.49" y="187.341" width="18.573" height="16.717"/>
			<rect x="247.345" y="187.341" width="18.573" height="16.717"/>
			<rect x="321.636" y="224.486" width="18.575" height="16.714"/>
			<rect x="284.49" y="224.486" width="18.573" height="16.714"/>
			<rect x="247.345" y="224.486" width="18.573" height="16.714"/>
			<path d="M381.998,149.647h34.263v-16.717h-34.263v-25.451h-25.446v-53.55h59.72V37.212h-76.437v70.267h-19.558V36.283h-16.714
				v71.196h-19.558V36.283h-16.717v71.196h-19.561V73.206h-16.714v34.273H205.55v25.451h-34.273v16.717h34.273v19.569h-71.204
				v16.714h71.204v19.561h-71.204v16.717h71.204v19.558h-34.273v16.717h34.273v25.441h25.449v48.755l-20.349,20.349v29.581h16.714
				v-22.659l20.352-20.349v-55.677h19.571V474.47h16.717V283.924h19.558v226.821h16.714V283.924h19.561v34.266h16.714v-34.266
				h25.446v-25.441h34.263v-16.717h-34.263v-19.558h71.196v-16.717h-71.196V185.93h71.196v-16.714h-71.196V149.647z M365.281,267.21
				H222.267V124.196h143.014V267.21z"/>
		</g>
	</g>
</g>
<g>
</g>
<g>
</g>
<g>
</g>
<g>
</g>
<g>
</g>
<g>
</g>
<g>
</g>
<g>
</g>
<g>
</g>
<g>
</g>
<g>
</g>
<g>
</g>
<g>
</g>
<g>
</g>
<g>
</g>
</svg>
