<?xml version="1.0" encoding="iso-8859-1"?>
<!-- Generator: Adobe Illustrator 19.0.0, SVG Export Plug-In . SVG Version: 6.00 Build 0)  -->
<svg version="1.1" id="Layer_1" xmlns="http://www.w3.org/2000/svg" xmlns:xlink="http://www.w3.org/1999/xlink" x="0px" y="0px"
	 viewBox="0 0 512 512" style="enable-background:new 0 0 512 512;" xml:space="preserve">
<g>
	<g>
		<g>
			<polygon points="337.572,444.37 319.78,444.37 319.78,480.486 192.212,480.486 192.212,444.37 174.42,444.37 174.42,480.486 
				141.85,480.486 141.85,498.276 174.42,498.276 174.42,498.286 337.572,498.286 337.572,498.276 370.15,498.276 370.15,480.486 
				337.572,480.486 			"/>
			<path d="M512,348.511V40.046c0-7.012-2.739-13.617-7.711-18.606c-4.956-4.979-11.566-7.726-18.624-7.726H26.342
				c-7.022,0-13.635,2.734-18.65,7.726C2.732,26.429,0,33.034,0,40.046v308.465V366.3v31.793c0,7.066,2.752,13.688,7.69,18.591
				c4.941,4.992,11.564,7.741,18.644,7.741h459.331c7.081,0,13.696-2.749,18.586-7.693c4.997-4.956,7.749-11.576,7.749-18.639
				L512,348.511L512,348.511z M17.792,40.044c0-2.276,0.893-4.426,2.486-6.026c1.628-1.62,3.781-2.511,6.065-2.511h459.323
				c2.286,0,4.421,0.886,6.019,2.491c1.628,1.631,2.524,3.779,2.524,6.049v308.465H17.792V40.044z M494.208,398.093
				c0,2.286-0.883,4.424-2.542,6.072c-1.574,1.592-3.707,2.468-6.001,2.468H26.335c-2.296,0-4.426-0.873-6.057-2.519
				c-1.6-1.595-2.486-3.73-2.486-6.021V366.3h476.416V398.093z"/>
			<path d="M203.177,62.502l-74.683,74.685v105.638l74.683,74.685h105.638l74.69-74.685V137.188l-74.69-74.685H203.177z
				 M365.714,235.459l-64.266,64.264h-90.895l-64.266-64.264v-90.903l64.266-64.264h90.895l64.266,64.264V235.459z"/>
			<polygon points="295.897,162.699 283.317,150.119 255.987,177.449 228.677,150.143 216.098,162.724 243.407,190.028 
				216.105,217.331 228.686,229.911 255.989,202.608 283.32,229.936 295.899,217.355 268.568,190.029 			"/>
			<polygon points="426.639,80.294 445.419,80.294 445.419,99.069 463.211,99.069 463.211,62.502 426.639,62.502 			"/>
			<polygon points="445.419,299.722 426.639,299.722 426.639,317.512 463.211,317.512 463.211,280.942 445.419,280.942 			"/>
			<polygon points="48.788,99.069 66.578,99.069 66.578,80.294 85.358,80.294 85.358,62.502 48.788,62.502 			"/>
			<polygon points="66.578,280.942 48.788,280.942 48.788,317.512 85.358,317.512 85.358,299.722 66.578,299.722 			"/>
		</g>
	</g>
</g>
<g>
</g>
<g>
</g>
<g>
</g>
<g>
</g>
<g>
</g>
<g>
</g>
<g>
</g>
<g>
</g>
<g>
</g>
<g>
</g>
<g>
</g>
<g>
</g>
<g>
</g>
<g>
</g>
<g>
</g>
</svg>
