<?xml version="1.0" encoding="iso-8859-1"?>
<!-- Generator: Adobe Illustrator 19.0.0, SVG Export Plug-In . SVG Version: 6.00 Build 0)  -->
<svg version="1.1" id="Layer_1" xmlns="http://www.w3.org/2000/svg" xmlns:xlink="http://www.w3.org/1999/xlink" x="0px" y="0px"
	 viewBox="0 0 512 512" style="enable-background:new 0 0 512 512;" xml:space="preserve">
<g>
	<g>
		<g>
			<polygon points="337.567,444.371 319.775,444.371 319.775,480.485 192.21,480.485 192.21,444.371 174.418,444.371 
				174.418,480.485 141.85,480.485 141.85,498.277 174.418,498.277 174.418,498.287 337.567,498.287 337.567,498.277 
				370.176,498.277 370.176,480.485 337.567,480.485 			"/>
			<path d="M504.287,21.439c-4.956-4.982-11.569-7.726-18.619-7.726H26.34c-7.02,0-13.629,2.729-18.65,7.731
				C2.729,26.436,0,33.038,0,40.045v308.465v17.792v31.79c0,7.068,2.749,13.688,7.683,18.588c4.941,4.997,11.561,7.744,18.65,7.744
				h459.336c7.081,0,13.706-2.747,18.588-7.688c4.997-4.959,7.744-11.581,7.744-18.645v-31.79v-17.792V40.045
				C512,33.041,509.258,26.431,504.287,21.439z M494.211,398.092c0,2.289-0.891,4.424-2.55,6.077
				c-1.574,1.587-3.699,2.465-5.993,2.465H26.332c-2.299,0-4.426-0.876-6.054-2.522c-1.605-1.595-2.486-3.73-2.486-6.021v-31.79
				h476.419V398.092z M17.792,40.045c0-2.273,0.891-4.426,2.478-6.026c1.631-1.623,3.789-2.514,6.07-2.514h459.328
				c2.281,0,4.419,0.883,6.008,2.483c1.636,1.636,2.534,3.791,2.534,6.057v308.465H17.792V40.045z"/>
			<polygon points="417.638,161.343 417.638,143.551 349.76,143.551 349.76,181.119 349.747,181.119 349.747,198.911 
				349.76,198.911 349.76,236.463 417.638,236.463 417.638,218.669 367.552,218.669 367.552,198.911 392.581,198.911 
				392.581,181.119 367.552,181.119 367.552,161.343 			"/>
			<path d="M247.368,171.227c0-7.393-2.88-14.344-8.108-19.571c-5.225-5.228-12.175-8.105-19.569-8.105h-12.521
				c-7.398,0-14.346,2.877-19.571,8.105c-5.228,5.227-8.105,12.178-8.105,19.571v37.56c0,7.391,2.877,14.336,8.105,19.563
				c5.228,5.233,12.178,8.113,19.571,8.113h12.521c7.391,0,14.341-2.883,19.571-8.113c5.225-5.228,8.105-12.178,8.105-19.564
				V171.227z M229.573,208.785c0,2.639-1.027,5.117-2.895,6.986c-1.869,1.869-4.352,2.898-6.989,2.898h-12.521
				c-2.637,0-5.12-1.029-6.991-2.898c-1.864-1.869-2.89-4.349-2.89-6.986v-37.56c0-2.644,1.027-5.123,2.895-6.991
				c1.866-1.864,4.344-2.89,6.989-2.89v0.003h12.518c2.642,0,5.123,1.024,6.989,2.89c1.869,1.869,2.895,4.349,2.895,6.991V208.785z"
				/>
			<path d="M162.235,180.123v-8.896c0-7.393-2.88-14.344-8.107-19.571c-5.222-5.228-12.17-8.105-19.569-8.105h-12.526
				c-7.391,0-14.341,2.877-19.569,8.105c-5.228,5.227-8.108,12.178-8.108,19.571v37.56c0,7.386,2.88,14.336,8.108,19.563
				c5.228,5.233,12.178,8.113,19.569,8.113h12.526c7.388,0,14.339-2.883,19.569-8.113c5.227-5.228,8.107-12.178,8.107-19.564v-8.896
				h-17.792v8.896c0,2.639-1.029,5.117-2.895,6.986c-1.866,1.869-4.349,2.898-6.986,2.898h-12.526c-2.634,0-5.12-1.029-6.989-2.898
				c-1.864-1.869-2.895-4.349-2.895-6.986v-37.56c0-2.639,1.029-5.123,2.895-6.991c1.869-1.864,4.347-2.89,6.989-2.89h12.526
				c2.639,0,5.123,1.024,6.986,2.89c1.869,1.869,2.895,4.349,2.895,6.991v8.896H162.235z"/>
			<path d="M332.503,208.787v-37.56c0-7.393-2.88-14.344-8.108-19.571c-5.23-5.228-12.18-8.105-19.571-8.105h-40.2v92.913h40.2
				c7.391,0,14.341-2.883,19.571-8.113C329.623,223.123,332.503,216.173,332.503,208.787z M314.708,208.785
				c0,2.639-1.029,5.117-2.895,6.986c-1.869,1.869-4.355,2.898-6.989,2.898h-22.408v-57.323h22.408c2.642,0,5.12,1.024,6.989,2.89
				c1.869,1.869,2.895,4.349,2.895,6.991V208.785z"/>
			<rect x="282.675" y="57.202" width="17.789" height="17.792"/>
			<rect x="247.117" y="57.202" width="17.789" height="17.792"/>
			<rect x="211.533" y="57.202" width="17.792" height="17.792"/>
			<rect x="282.675" y="305.023" width="17.789" height="17.792"/>
			<rect x="247.117" y="305.023" width="17.789" height="17.792"/>
			<rect x="211.533" y="305.023" width="17.792" height="17.792"/>
			<polygon points="318.269,74.994 450.719,74.994 450.719,121.45 468.511,121.45 468.511,57.202 318.269,57.202 			"/>
			<polygon points="61.281,74.994 193.731,74.994 193.731,57.202 43.492,57.202 43.492,121.45 61.281,121.45 			"/>
			<polygon points="450.719,305.018 318.269,305.018 318.269,322.81 468.511,322.81 468.511,258.561 450.719,258.561 			"/>
			<polygon points="61.281,258.561 43.492,258.561 43.492,322.81 193.731,322.81 193.731,305.018 61.281,305.018 			"/>
		</g>
	</g>
</g>
<g>
</g>
<g>
</g>
<g>
</g>
<g>
</g>
<g>
</g>
<g>
</g>
<g>
</g>
<g>
</g>
<g>
</g>
<g>
</g>
<g>
</g>
<g>
</g>
<g>
</g>
<g>
</g>
<g>
</g>
</svg>
