<?xml version="1.0" encoding="iso-8859-1"?>
<!-- Generator: Adobe Illustrator 19.0.0, SVG Export Plug-In . SVG Version: 6.00 Build 0)  -->
<svg version="1.1" id="Layer_1" xmlns="http://www.w3.org/2000/svg" xmlns:xlink="http://www.w3.org/1999/xlink" x="0px" y="0px"
	 viewBox="0 0 512 512" style="enable-background:new 0 0 512 512;" xml:space="preserve">
<g>
	<g>
		<g>
			<path d="M426.738,216.432L512,159.566L341.251,45.777l-56.051,37.317l9.349,14.044l46.694-31.089l140.344,93.524l-70.057,46.729
				l-0.021-0.014l-0.003,0.002l-116.954-78l-9.359,14.036l111.11,74.098l-68.869,45.909l-71.438,47.597l-140.301-93.494
				l111.086-74.066l-0.02-0.03l0.02-0.013l-9.357-14.036l-116.947,78.005l-0.007-0.005l-0.012,0.008l-70.052-46.726l140.329-93.524
				l46.689,31.122l9.357-14.034l-56.046-37.361L0.003,159.566l85.252,56.863L0,273.225l92.047,61.393v67.793L256,511.722
				L419.945,402.41v-67.795L512,273.225L426.738,216.432z M337.349,275.999l74.177-49.424l0.002,0.001l0.004-0.003l70.053,46.656
				l-140.326,93.586l-70.057-46.723L337.349,275.999z M100.458,226.571l0.009,0.006l0.012-0.008l14.38,9.583l125.934,83.942
				l-70.077,46.723L30.41,273.23L100.458,226.571z M108.913,345.866l61.806,41.223l76.859-51.247v149.993l-138.665-92.451V345.866z
				 M403.077,393.384l-138.632,92.435V335.857l76.815,51.232l61.816-41.224V393.384z"/>
			<polygon points="224.433,209.993 212.506,221.92 256.003,265.422 299.497,221.92 287.572,209.993 264.445,233.118 
				264.445,112.716 247.578,112.716 247.578,233.136 			"/>
			<rect x="247.578" y="75.24" width="16.868" height="18.742"/>
			<rect x="247.578" y="37.756" width="16.868" height="18.742"/>
			<rect x="247.578" y="0.278" width="16.868" height="18.737"/>
		</g>
	</g>
</g>
<g>
</g>
<g>
</g>
<g>
</g>
<g>
</g>
<g>
</g>
<g>
</g>
<g>
</g>
<g>
</g>
<g>
</g>
<g>
</g>
<g>
</g>
<g>
</g>
<g>
</g>
<g>
</g>
<g>
</g>
</svg>
