<?xml version="1.0" encoding="iso-8859-1"?>
<!-- Generator: Adobe Illustrator 19.0.0, SVG Export Plug-In . SVG Version: 6.00 Build 0)  -->
<svg version="1.1" id="Layer_1" xmlns="http://www.w3.org/2000/svg" xmlns:xlink="http://www.w3.org/1999/xlink" x="0px" y="0px"
	 viewBox="0 0 512 512" style="enable-background:new 0 0 512 512;" xml:space="preserve">
<g>
	<g>
		<g>
			<path d="M512,80.118h-32.63V58.115H312.694v15.944h150.73v315.177h-150.73v15.944H479.37V96.061h16.683v325.803H295.862V66.086
				h-0.003V34.202c0-6.387-2.488-12.393-7.007-16.917c-4.513-4.518-10.519-7.004-16.906-7.004h-31.892
				c-6.385,0-12.388,2.486-16.914,7.004c-4.513,4.521-7.002,10.529-7.002,16.917v31.885v7.972v347.807H15.946V96.061H32.63v309.117
				h166.676v-15.944H48.576V74.058h150.73V58.115H32.63v22.003H0v357.693h219.485L256,501.719l36.515-63.908H512V80.118z
				 M232.082,34.202c0-2.133,0.832-4.14,2.332-5.642c1.508-1.508,3.512-2.335,5.64-2.335h31.895c2.127,0,4.127,0.829,5.629,2.33
				c1.51,1.508,2.34,3.515,2.34,5.647v23.913h-47.836V34.202z M248.038,74.058v95.808h15.946V74.058h15.933v336.536l-15.933-15.938
				V292.992h-15.946v101.641l-15.956,15.96V74.058H248.038z M234.053,431.17L256,409.224l21.947,21.947L256,469.583L234.053,431.17z
				"/>
			<rect x="248.038" y="186.772" width="15.946" height="17.715"/>
			<rect x="248.038" y="222.208" width="15.946" height="17.715"/>
			<rect x="248.038" y="257.638" width="15.946" height="17.715"/>
			<rect x="123.981" y="220.15" width="36.291" height="15.946"/>
			<rect x="160.282" y="285.107" width="39.032" height="15.946"/>
			<rect x="160.282" y="317.568" width="39.032" height="15.946"/>
			<rect x="123.981" y="252.595" width="75.32" height="15.946"/>
			<rect x="160.282" y="155.187" width="39.032" height="15.946"/>
			<rect x="160.282" y="187.648" width="39.032" height="15.946"/>
			<rect x="123.981" y="122.696" width="75.32" height="15.946"/>
			<rect x="351.718" y="220.122" width="36.293" height="15.946"/>
			<rect x="312.704" y="155.162" width="39.03" height="15.946"/>
			<rect x="312.704" y="122.696" width="39.03" height="15.946"/>
			<rect x="312.704" y="187.648" width="75.323" height="15.946"/>
			<rect x="312.704" y="285.082" width="39.03" height="15.946"/>
			<rect x="312.704" y="252.595" width="39.03" height="15.946"/>
			<rect x="312.704" y="317.568" width="75.323" height="15.946"/>
			<path d="M419.313,97.541c-5.519-5.522-12.861-8.563-20.672-8.563h-10.627v15.944h10.627c3.553,0,6.889,1.382,9.4,3.896
				c2.509,2.504,3.889,5.839,3.889,9.39v88.64c0,7.811,3.044,15.148,8.563,20.664c0.203,0.204,0.414,0.397,0.623,0.594
				c-0.207,0.195-0.416,0.387-0.618,0.589c-5.524,5.522-8.566,12.864-8.566,20.672v88.632c0,3.548-1.385,6.889-3.894,9.4
				c-2.509,2.506-5.842,3.889-9.395,3.889h-10.627v15.946h10.627c7.811,0,15.15-3.039,20.669-8.558
				c5.522-5.522,8.563-12.864,8.563-20.672v-88.637c0-3.551,1.388-6.886,3.894-9.398c2.511-2.511,5.845-3.889,9.395-3.889v-15.946
				c-0.001,0-0.002,0-0.003,0v0c-3.551,0-6.886-1.385-9.398-3.896c-2.511-2.509-3.891-5.842-3.891-9.39v-88.64
				C427.873,110.395,424.832,103.055,419.313,97.541z"/>
			<path d="M92.69,358.674c5.519,5.519,12.856,8.561,20.667,8.561h10.629v-15.941h-10.629c-3.548,0-6.886-1.382-9.393-3.889
				c-2.509-2.514-3.894-5.852-3.894-9.4v-88.637c0-7.811-3.041-15.153-8.563-20.672c-0.202-0.202-0.412-0.394-0.619-0.59
				c0.205-0.194,0.413-0.384,0.614-0.585c5.527-5.524,8.568-12.861,8.568-20.672v-88.64c0-3.551,1.382-6.886,3.896-9.398
				c2.504-2.509,5.839-3.891,9.39-3.891h10.629V88.975h-10.629c-7.811,0-15.153,3.041-20.664,8.561
				c-5.527,5.519-8.568,12.859-8.568,20.672v88.637c0,3.548-1.382,6.884-3.896,9.395c-2.504,2.509-5.839,3.894-9.39,3.894v15.946
				c0.001,0,0.002,0,0.003,0v0c3.548,0,6.886,1.377,9.393,3.889c2.509,2.514,3.894,5.847,3.894,9.398v88.635
				C84.127,345.81,87.168,353.152,92.69,358.674z"/>
		</g>
	</g>
</g>
<g>
</g>
<g>
</g>
<g>
</g>
<g>
</g>
<g>
</g>
<g>
</g>
<g>
</g>
<g>
</g>
<g>
</g>
<g>
</g>
<g>
</g>
<g>
</g>
<g>
</g>
<g>
</g>
<g>
</g>
</svg>
