<?xml version="1.0" encoding="iso-8859-1"?>
<!-- Generator: Adobe Illustrator 19.0.0, SVG Export Plug-In . SVG Version: 6.00 Build 0)  -->
<svg version="1.1" id="Layer_1" xmlns="http://www.w3.org/2000/svg" xmlns:xlink="http://www.w3.org/1999/xlink" x="0px" y="0px"
	 viewBox="0 0 512 512" style="enable-background:new 0 0 512 512;" xml:space="preserve">
<g>
	<g>
		<g>
			<path d="M423.419,313.585c0-81.206-58.929-150.851-138.186-164.818v-8.801h83.909l18.842-18.842V43.648l-18.842-18.839h-83.909V0
				H226.77v24.809h-84.375l-47.299,57.58l47.299,57.577h84.375v8.801c-79.257,13.965-138.189,83.612-138.189,164.818
				s58.932,150.849,138.189,164.818V512h58.463v-33.597C364.49,464.434,423.416,394.791,423.419,313.585z M242.714,15.946h26.575
				v8.863h-26.575V15.946z M149.932,124.022L115.73,82.388l34.202-41.633H362.54l9.503,9.505v64.256l-9.503,9.505h-77.307H226.77
				H149.932z M104.527,313.585c0-72.522,51.945-134.849,122.243-148.598v297.196C156.472,448.432,104.527,386.107,104.527,313.585z
				 M269.289,496.054h-26.575V139.965h26.575V496.054z M285.233,462.183V164.986c70.299,13.748,122.243,76.076,122.243,148.599
				C407.475,386.108,355.531,448.433,285.233,462.183z"/>
			<rect x="304.717" y="269.286" width="15.946" height="17.715"/>
			<rect x="304.717" y="304.717" width="15.946" height="17.715"/>
			<rect x="304.717" y="340.147" width="15.946" height="17.715"/>
			<rect x="191.334" y="269.286" width="15.944" height="17.715"/>
			<rect x="191.334" y="304.717" width="15.944" height="17.715"/>
			<rect x="191.334" y="340.147" width="15.944" height="17.715"/>
			<polygon points="160.01,272.507 118.94,313.587 160.013,354.647 171.287,343.373 141.491,313.582 171.287,283.784 			"/>
			<polygon points="351.99,272.515 340.718,283.789 370.506,313.585 340.718,343.373 351.99,354.647 393.062,313.585 			"/>
		</g>
	</g>
</g>
<g>
</g>
<g>
</g>
<g>
</g>
<g>
</g>
<g>
</g>
<g>
</g>
<g>
</g>
<g>
</g>
<g>
</g>
<g>
</g>
<g>
</g>
<g>
</g>
<g>
</g>
<g>
</g>
<g>
</g>
</svg>
