<?xml version="1.0" encoding="iso-8859-1"?>
<!-- Generator: Adobe Illustrator 19.0.0, SVG Export Plug-In . SVG Version: 6.00 Build 0)  -->
<svg version="1.1" id="Layer_1" xmlns="http://www.w3.org/2000/svg" xmlns:xlink="http://www.w3.org/1999/xlink" x="0px" y="0px"
	 viewBox="0 0 512.001 512.001" style="enable-background:new 0 0 512.001 512.001;" xml:space="preserve">
<g>
	<g>
		<g>
			<path d="M256,53.318h8.128V22.649l47.834,47.828l-47.834,47.836V87.65H256c-92.833,0-168.353,75.52-168.353,168.346h16.264
				c0-81.129,63.859-147.628,143.956-151.869v25.091c0,4.759,2.839,9.016,7.27,10.859c4.406,1.818,9.423,0.806,12.779-2.555
				l67.041-67.044L267.917,3.439c-3.351-3.361-8.369-4.362-12.813-2.542c-4.398,1.83-7.235,6.09-7.235,10.847v25.459
				C130.888,41.491,37.051,137.993,37.051,255.996h16.264C53.315,144.239,144.239,53.318,256,53.318z"/>
			<path d="M458.686,255.998c0,111.754-90.926,202.678-202.685,202.678h-8.131v30.666l-47.834-47.828l47.834-47.828v30.661H256
				c92.828,0,168.346-75.517,168.346-168.351h-16.264c0,81.134-63.857,147.635-143.949,151.877v-25.096
				c0-4.777-2.86-9.039-7.247-10.847c-4.408-1.823-9.434-0.832-12.808,2.547l-67.041,67.036l67.041,67.041
				c2.253,2.25,5.245,3.446,8.294,3.446c1.518,0,3.057-0.297,4.521-0.904c4.398-1.828,7.24-6.09,7.24-10.847v-25.459
				c116.982-4.285,210.816-100.79,210.816-218.793H458.686z"/>
			<path d="M256,162.942c-51.315,0-93.061,41.746-93.061,93.053c0,51.315,41.746,93.059,93.061,93.059
				c51.313,0,93.061-41.743,93.061-93.059C349.062,204.686,307.313,162.942,256,162.942z M256,332.791
				c-42.345,0-76.797-34.445-76.797-76.795c0-42.34,34.452-76.79,76.797-76.79s76.797,34.45,76.797,76.79
				C332.798,298.346,298.345,332.791,256,332.791z"/>
			<polygon points="247.258,267.923 223.652,244.317 212.153,255.817 247.261,290.922 299.851,238.319 288.354,226.819 			"/>
			<path d="M104.623,346.761l-15.485,9.311c3.261,5.427,6.84,10.762,10.624,15.859l14.505-10.78
				C110.828,356.527,107.579,351.686,104.623,346.761z"/>
			<path d="M140.13,412.284c5.094,3.784,10.437,7.355,15.867,10.616l9.306-15.493c-4.928-2.959-9.777-6.203-14.4-9.636
				L140.13,412.284z"/>
			<path d="M125.264,374.526l-13.384,12.147c4.257,4.695,8.804,9.234,13.496,13.489l12.14-13.384
				C133.254,382.91,129.132,378.789,125.264,374.526z"/>
			<path d="M89.813,315.526l-17.011,6.093c2.133,5.957,4.595,11.894,7.314,17.631l16.325-7.744
				C93.978,326.304,91.748,320.925,89.813,315.526z"/>
			<path d="M81.421,281.977l-17.879,2.632c0.924,6.269,2.173,12.572,3.712,18.734l17.533-4.383
				C83.392,293.377,82.261,287.66,81.421,281.977z"/>
			<path d="M407.378,165.231l15.483-9.308c-3.267-5.437-6.843-10.773-10.621-15.862l-14.505,10.778
				C401.165,155.454,404.406,160.298,407.378,165.231z"/>
			<path d="M430.585,230.014l17.882-2.632c-0.932-6.282-2.181-12.585-3.72-18.734l-17.528,4.39
				C428.611,218.607,429.745,224.318,430.585,230.014z"/>
			<path d="M422.193,196.466l17.011-6.098c-2.145-5.98-4.608-11.909-7.319-17.626l-16.328,7.741
				C418.015,185.673,420.245,191.043,422.193,196.466z"/>
			<path d="M386.729,137.455l13.389-12.132c-4.247-4.687-8.794-9.226-13.501-13.496l-12.132,13.389
				C378.755,129.091,382.877,133.205,386.729,137.455z"/>
			<path d="M371.858,99.713c-5.087-3.784-10.424-7.355-15.867-10.624l-9.303,15.493c4.936,2.967,9.782,6.205,14.4,9.636
				L371.858,99.713z"/>
		</g>
	</g>
</g>
<g>
</g>
<g>
</g>
<g>
</g>
<g>
</g>
<g>
</g>
<g>
</g>
<g>
</g>
<g>
</g>
<g>
</g>
<g>
</g>
<g>
</g>
<g>
</g>
<g>
</g>
<g>
</g>
<g>
</g>
</svg>
