<?xml version="1.0" encoding="iso-8859-1"?>
<!-- Generator: Adobe Illustrator 19.0.0, SVG Export Plug-In . SVG Version: 6.00 Build 0)  -->
<svg version="1.1" id="Layer_1" xmlns="http://www.w3.org/2000/svg" xmlns:xlink="http://www.w3.org/1999/xlink" x="0px" y="0px"
	 viewBox="0 0 512 512" style="enable-background:new 0 0 512 512;" xml:space="preserve">
<g>
	<g>
		<g>
			<rect x="247.249" y="42.26" width="19.796" height="17.129"/>
			<rect x="214.913" y="452.659" width="84.447" height="17.129"/>
			<path d="M212.622,122.601h-59.005v59.003h59.005V122.601z M195.491,164.475h-24.742V139.73h24.742V164.475z"/>
			<path d="M306.208,122.601v59.003h59.003v-59.003H306.208z M348.082,164.475H323.34V139.73h24.742V164.475z"/>
			<path d="M288.915,181.604v-59.003h-59.003v59.003h59H288.915z M271.784,164.475h-24.742V139.73h24.742V164.475z"/>
			<path d="M212.622,198.894h-59.005v59.003h59.005V198.894z M195.491,240.768h-24.742v-24.745h24.742V240.768z"/>
			<path d="M288.915,257.897v-59.003h-59.003v59.003h59H288.915z M271.784,240.768h-24.742v-24.745h24.742V240.768z"/>
			<rect x="287.953" y="330.522" width="19.034" height="17.129"/>
			<rect x="249.885" y="330.522" width="19.034" height="17.129"/>
			<rect x="211.818" y="330.522" width="19.034" height="17.129"/>
			<path d="M472.421,368.581h-12.349v-0.003h-56.789V43.889C403.283,19.686,383.61,0,359.43,0H159.428
				c-24.202,0-43.894,19.689-43.891,43.889v324.69H55.305L9.724,398.052l45.581,29.481h60.229v40.617
				c0,24.177,19.692,43.85,43.894,43.85H359.43c24.182,0,43.853-19.674,43.848-43.85v-40.617h39.662h17.132h12.349
				c7.862,0,15.263-3.064,20.844-8.637c5.565-5.563,8.63-12.969,8.63-20.841c0-7.877-3.064-15.281-8.63-20.841
				C487.697,371.643,480.293,368.581,472.421,368.581z M159.428,17.132h200.005c14.73,0,26.721,11.999,26.721,26.757v40.643H132.666
				V43.889C132.666,29.133,144.669,17.132,159.428,17.132z M132.666,101.66h253.489v266.918H132.666V101.66z M386.149,468.15
				c0,14.728-11.988,26.721-26.721,26.721H159.425c-14.758,0-26.762-11.994-26.762-26.721v-40.617h253.486V468.15z M394.705,410.401
				v-0.008H124.113v0.008H60.361l-19.09-12.352l19.09-12.342H442.94v24.694H394.705z M481.156,406.771
				c-2.337,2.342-5.443,3.63-8.735,3.63h-12.349V385.71h12.349c3.297,0,6.397,1.288,8.732,3.612c2.327,2.327,3.61,5.427,3.61,8.73
				C484.763,401.352,483.48,404.454,481.156,406.771z"/>
			<rect x="16.541" y="189.23" width="38.989" height="17.131"/>
			<rect x="55.53" y="259.021" width="41.933" height="17.129"/>
			<rect x="55.53" y="293.914" width="41.933" height="17.129"/>
			<rect x="16.541" y="224.102" width="80.922" height="17.132"/>
			<rect x="55.53" y="119.432" width="41.933" height="17.129"/>
			<rect x="55.53" y="154.317" width="41.933" height="17.129"/>
			<rect x="16.541" y="84.531" width="80.922" height="17.129"/>
			<rect x="463.287" y="189.202" width="38.989" height="17.129"/>
			<rect x="421.354" y="119.404" width="41.933" height="17.129"/>
			<rect x="421.354" y="84.531" width="41.933" height="17.129"/>
			<rect x="421.354" y="154.317" width="80.922" height="17.129"/>
			<rect x="421.354" y="258.995" width="41.933" height="17.129"/>
			<rect x="421.354" y="224.102" width="41.933" height="17.132"/>
			<rect x="421.354" y="293.914" width="80.922" height="17.129"/>
		</g>
	</g>
</g>
<g>
</g>
<g>
</g>
<g>
</g>
<g>
</g>
<g>
</g>
<g>
</g>
<g>
</g>
<g>
</g>
<g>
</g>
<g>
</g>
<g>
</g>
<g>
</g>
<g>
</g>
<g>
</g>
<g>
</g>
</svg>
