<?xml version="1.0" encoding="iso-8859-1"?>
<!-- Generator: Adobe Illustrator 19.0.0, SVG Export Plug-In . SVG Version: 6.00 Build 0)  -->
<svg version="1.1" id="Layer_1" xmlns="http://www.w3.org/2000/svg" xmlns:xlink="http://www.w3.org/1999/xlink" x="0px" y="0px"
	 viewBox="0 0 512 512" style="enable-background:new 0 0 512 512;" xml:space="preserve">
<g>
	<g>
		<g>
			<path d="M190.385,300.352c0-36.178,29.435-65.613,65.615-65.613v-16.635c-45.35,0-82.25,36.897-82.25,82.248
				s36.897,82.25,82.25,82.25s82.25-36.9,82.25-82.25h-16.635c0,36.18-29.435,65.615-65.615,65.615S190.385,336.53,190.385,300.352z
				"/>
			<path d="M256,105.367c42.944,0,83.684,13.681,117.816,39.565l10.051-13.256C346.821,103.583,302.605,88.732,256,88.732
				s-90.821,14.851-127.864,42.947l10.051,13.256C172.316,119.05,213.056,105.367,256,105.367z"/>
			<path d="M424.65,172.498L411.4,182.556C437.304,216.663,451,257.403,451,300.367c0,107.52-87.475,194.998-195,194.998
				S61.002,407.887,61.002,300.367c0-42.964,13.691-83.704,39.598-117.811l-13.248-10.058
				c-28.122,37.025-42.985,81.239-42.985,127.869C44.367,417.057,139.307,512,256,512c116.695,0,211.633-94.943,211.633-211.633
				C467.633,253.737,452.772,209.521,424.65,172.498z"/>
			<path d="M81.334,300.355c0,96.307,78.354,174.666,174.666,174.666s174.666-78.362,174.666-174.666
				c0-96.312-78.354-174.666-174.666-174.666C159.69,125.688,81.334,204.045,81.334,300.355z M414.031,300.352
				c0,87.137-70.894,158.031-158.031,158.031S97.969,387.489,97.969,300.352c0-87.14,70.892-158.029,158.031-158.029
				C343.137,142.323,414.031,213.212,414.031,300.352z"/>
		</g>
	</g>
</g>
<g id="SVGCleanerId_0">
	<g>
		<rect x="362.818" y="148.257" transform="matrix(0.7071 -0.7071 0.7071 0.7071 6.3808 328.55)" width="73.935" height="16.632"/>
	</g>
</g>
<g>
	<g>
		
			<rect x="417.589" y="102.711" transform="matrix(0.7071 -0.7071 0.7071 0.7071 32.5119 339.3645)" width="16.632" height="55.452"/>
	</g>
</g>
<g id="SVGCleanerId_1">
	<g>
		
			<rect x="103.909" y="119.608" transform="matrix(0.7071 -0.7071 0.7071 0.7071 -77.8451 125.2159)" width="16.635" height="73.935"/>
	</g>
</g>
<g>
	<g>
		<g>
			
				<rect x="77.775" y="102.729" transform="matrix(-0.7069 -0.7073 0.7073 -0.7069 54.6829 283.567)" width="16.637" height="55.449"/>
			<path d="M320.842,10.012C314.381,3.556,305.792,0,296.663,0h-81.326c-9.129,0-17.718,3.556-24.182,10.017
				c-6.456,6.459-10.012,15.045-10.012,24.177s3.558,17.718,10.015,24.184c6.461,6.454,15.05,10.01,24.179,10.01h32.343v28.659
				h16.635V68.388h32.348c9.129,0,17.718-3.556,24.184-10.015c6.454-6.459,10.01-15.045,10.01-24.177S327.301,16.476,320.842,10.012
				z M309.084,46.612c-3.318,3.318-7.731,5.143-12.421,5.143h-32.348V34.194H247.68v17.562h-32.343
				c-4.687,0-9.101-1.828-12.413-5.138c-3.32-3.32-5.146-7.731-5.146-12.421s1.825-9.103,5.141-12.416
				c3.318-3.318,7.729-5.146,12.419-5.146h81.326c4.69,0,9.103,1.828,12.416,5.138c3.318,3.323,5.146,7.734,5.146,12.424
				S312.397,43.297,309.084,46.612z"/>
		</g>
	</g>
</g>
<g>
	<g>
		<rect x="362.818" y="148.257" transform="matrix(0.7071 -0.7071 0.7071 0.7071 6.3808 328.55)" width="73.935" height="16.632"/>
	</g>
</g>
<g>
	<g>
		
			<rect x="103.909" y="119.608" transform="matrix(0.7071 -0.7071 0.7071 0.7071 -77.8451 125.2159)" width="16.635" height="73.935"/>
	</g>
</g>
<g>
	<g>
		<g>
			<path d="M256,269.855c-16.814,0-30.497,13.683-30.497,30.497s13.683,30.497,30.497,30.497c13.927,0,25.697-9.391,29.332-22.17
				h70.252v-16.635h-70.247C281.71,279.256,269.934,269.855,256,269.855z M256,314.214c-7.642,0-13.862-6.218-13.862-13.862
				S248.358,286.49,256,286.49c7.642,0,13.862,6.218,13.862,13.862S263.642,314.214,256,314.214z"/>
			<rect x="247.68" y="161.946" width="16.635" height="18.483"/>
			<rect x="287.573" y="168.271" transform="matrix(0.951 0.3091 -0.3091 0.951 69.3615 -82.769)" width="16.634" height="18.483"/>
			
				<rect x="323.622" y="186.629" transform="matrix(0.8091 0.5877 -0.5877 0.8091 178.4835 -157.6827)" width="16.633" height="18.484"/>
			
				<rect x="351.245" y="216.119" transform="matrix(0.8091 -0.5877 0.5877 0.8091 -63.0763 254.7016)" width="18.484" height="16.633"/>
			
				<rect x="369.598" y="252.103" transform="matrix(0.9511 -0.3088 0.3088 0.9511 -61.905 129.7173)" width="18.483" height="16.642"/>
			<rect x="375.936" y="292.045" width="18.483" height="16.635"/>
		</g>
	</g>
</g>
<g>
</g>
<g>
</g>
<g>
</g>
<g>
</g>
<g>
</g>
<g>
</g>
<g>
</g>
<g>
</g>
<g>
</g>
<g>
</g>
<g>
</g>
<g>
</g>
<g>
</g>
<g>
</g>
<g>
</g>
</svg>
