<?xml version="1.0" encoding="iso-8859-1"?>
<!-- Generator: Adobe Illustrator 19.0.0, SVG Export Plug-In . SVG Version: 6.00 Build 0)  -->
<svg version="1.1" id="Layer_1" xmlns="http://www.w3.org/2000/svg" xmlns:xlink="http://www.w3.org/1999/xlink" x="0px" y="0px"
	 viewBox="0 0 512 512" style="enable-background:new 0 0 512 512;" xml:space="preserve">
<g>
	<g>
		<g>
			<rect x="248.294" y="66.815" width="15.411" height="15.411"/>
			<rect x="224.23" y="429.772" width="63.501" height="15.411"/>
			<path d="M401.513,426.088c0,17.236-14.047,31.263-31.306,31.263H141.806c-17.275,0-31.324-14.026-31.324-31.263v-95.946H95.071
				v95.946c0,25.731,20.966,46.674,46.735,46.674h228.401c25.761,0,46.715-20.943,46.717-46.674v-95.946h-15.411V426.088z"/>
			<path d="M110.482,85.971c0-17.272,14.049-31.322,31.324-31.322h228.398c17.262,0,31.306,14.049,31.306,31.322v95.946h15.411
				V85.971c0-25.766-20.954-46.733-46.715-46.733H141.806c-25.769,0-46.735,20.966-46.735,46.733v95.946h15.411V85.971z"/>
			<path d="M255.995,272.646c19.044,0,34.534-15.491,34.534-34.532s-15.491-34.532-34.534-34.532
				c-19.041,0-34.529,15.493-34.529,34.532S236.954,272.646,255.995,272.646z M255.995,218.994c10.542,0,19.123,8.576,19.123,19.121
				c0,10.545-8.579,19.121-19.123,19.121c-10.542,0-19.118-8.576-19.118-19.121C236.877,227.57,245.453,218.994,255.995,218.994z"/>
			<path d="M256,344.186c48.625,0,88.184-39.56,88.184-88.189c0-48.625-39.56-88.184-88.184-88.184
				c-48.63,0-88.192,39.56-88.192,88.184C167.808,304.626,207.37,344.186,256,344.186z M228.083,323.198
				c0.651-6.405,3.456-12.343,8.072-16.952c5.297-5.304,12.342-8.22,19.843-8.22c7.488,0,14.538,2.924,19.845,8.22
				c4.608,4.611,7.414,10.544,8.065,16.955c-8.599,3.585-18.024,5.573-27.907,5.573
				C246.113,328.774,236.685,326.785,228.083,323.198z M256,183.223c40.128,0,72.773,32.648,72.773,72.773
				c0,24.44-12.121,46.088-30.654,59.293c-1.902-7.483-5.779-14.345-11.379-19.946c-8.223-8.207-19.139-12.731-30.74-12.731
				c-11.62,0-22.538,4.523-30.743,12.736c-5.601,5.597-9.481,12.457-11.384,19.938c-18.531-13.205-30.651-34.852-30.651-59.29
				C183.222,215.868,215.869,183.223,256,183.223z"/>
			<rect x="475.853" y="231.576" width="16.727" height="15.411"/>
			<rect x="475.853" y="265.01" width="16.727" height="15.411"/>
			<path d="M484.227,337.514c-4.864,0-9.438,1.259-13.419,3.464l-42.517-42.517h-45.066v-18.04h75.922V265.01h-75.922v-18.022
				h75.922v-15.411h-75.922v-18.04h45.066l42.52-42.529c3.98,2.204,8.553,3.464,13.416,3.464c15.316,0,27.773-12.457,27.773-27.773
				s-12.46-27.779-27.773-27.779c-15.319,0-27.781,12.462-27.781,27.779c0,4.864,1.261,9.437,3.467,13.417l-38.009,38.011h-38.679
				V94.396H128.776v103.729H90.097l-38.009-38.014c2.205-3.979,3.464-8.55,3.464-13.412c0-15.316-12.462-27.779-27.779-27.779
				C12.46,118.921,0,131.383,0,146.7c0,15.314,12.46,27.771,27.773,27.771c4.862,0,9.435-1.259,13.414-3.463l42.521,42.528h45.066
				v18.04H52.861v15.411h75.914v18.022H52.861v15.411h75.914v18.04H83.709l-42.517,42.517c-3.981-2.205-8.554-3.465-13.419-3.465
				C12.46,337.514,0,349.969,0,365.288c0,15.319,12.46,27.781,27.773,27.781c15.316,0,27.779-12.462,27.779-27.781
				c0-4.864-1.26-9.436-3.465-13.415l38.009-38.002h38.679v103.734h254.449V313.87h38.679l38.008,38.001
				c-2.205,3.98-3.466,8.553-3.466,13.417c0,15.319,12.465,27.781,27.781,27.781S512,380.607,512,365.288
				S499.54,337.514,484.227,337.514z M484.227,134.332c6.815,0,12.36,5.548,12.36,12.367c0,6.817-5.545,12.362-12.36,12.362
				c-6.82,0-12.367-5.545-12.367-12.362C471.859,139.88,477.407,134.332,484.227,134.332z M27.773,159.062
				c-6.817,0-12.362-5.545-12.362-12.362c0-6.82,5.545-12.367,12.362-12.367c6.82,0,12.367,5.548,12.367,12.367
				C40.141,153.517,34.593,159.062,27.773,159.062z M27.773,377.655c-6.817,0-12.362-5.55-12.362-12.367
				c0-6.815,5.545-12.36,12.362-12.36c6.82,0,12.367,5.545,12.367,12.36C40.141,372.105,34.593,377.655,27.773,377.655z
				 M367.813,402.193H144.187V109.807h223.626V402.193z M484.227,377.655c-6.82,0-12.367-5.55-12.367-12.367
				c0-6.815,5.548-12.36,12.367-12.36c6.815,0,12.36,5.545,12.36,12.36C496.586,372.105,491.041,377.655,484.227,377.655z"/>
			<rect x="19.412" y="231.576" width="16.727" height="15.411"/>
			<rect x="19.412" y="265.01" width="16.727" height="15.411"/>
		</g>
	</g>
</g>
<g>
</g>
<g>
</g>
<g>
</g>
<g>
</g>
<g>
</g>
<g>
</g>
<g>
</g>
<g>
</g>
<g>
</g>
<g>
</g>
<g>
</g>
<g>
</g>
<g>
</g>
<g>
</g>
<g>
</g>
</svg>
