<svg width="0" height="0" style="display:none;" viewBox="0 0 512 512" version="1.1" xmlns="http://www.w3.org/2000/svg" xmlns:xlink="http://www.w3.org/1999/xlink"><symbol viewBox="0 0 493.917 493.917" id="icon-dedicated-development-team"><title>dedicated-development-team</title> <g> <path d="M259.782,105.981c9.661,14.115,25.887,23.399,44.245,23.399c18.38,0,34.625-9.306,44.281-23.45
		c22.143-11.938,21.881-32.249,21.762-40.984c-0.493-36.033-27.425-63.325-64.039-64.894c-19.322-0.828-30.502,8.581-33.923,12.025
		c-2.991,0.678-9.642,2.705-16.295,8.248c-7.913,6.591-17.451,19.646-17.958,44.408C237.676,73.502,237.272,93.911,259.782,105.981z
		 M304.027,120.879c-24.86,0-45.085-20.225-45.085-45.084V63.237c11.656-4.42,18.84-16.708,22.37-24.55
		c9.609,10.114,33.231,30.551,67.799,31.61v5.497C349.112,100.655,328.887,120.879,304.027,120.879z M246.353,64.906
		c0.826-40.374,27.356-44.55,28.461-44.705c1.059-0.136,2.044-0.685,2.731-1.503c0.376-0.447,9.451-10.95,28.121-10.156
		c31.964,1.37,55.475,25.14,55.904,56.518c0.079,5.745,0.195,14.839-5.404,23.051c0.935-3.958,1.445-8.078,1.445-12.317v-5.832
		c1.664-0.64,2.817-2.273,2.728-4.152c-0.112-2.344-2.098-4.164-4.447-4.043c-44.766,2.129-72.33-33.373-72.6-33.727l-0.009,0.006
		c-0.521-0.69-1.247-1.234-2.138-1.506c-2.243-0.683-4.621,0.578-5.307,2.822c-0.078,0.253-8.191,25.384-24.217,26.955
		c-2.336,0.229-4.044,2.308-3.815,4.644c0.159,1.627,1.219,2.946,2.636,3.521v11.311c0,4.362,0.537,8.6,1.525,12.662
		C246.973,81.355,246.186,73.086,246.353,64.906z"/> <path d="M305.509,87.108h-5.393c-10.273,0-18.631,8.358-18.631,18.631v5.572c0,2.347,1.903,4.25,4.25,4.25
		c2.347,0,4.25-1.903,4.25-4.25v-5.572c0-5.586,4.545-10.131,10.131-10.131h5.393c5.586,0,10.131,4.545,10.131,10.131v5.572
		c0,2.347,1.903,4.25,4.25,4.25c2.347,0,4.25-1.903,4.25-4.25v-5.572C324.14,95.466,315.782,87.108,305.509,87.108z"/> <path d="M307.822,103.574h-10.019c-2.347,0-4.25,1.903-4.25,4.25c0,2.347,1.903,4.25,4.25,4.25h10.019
		c2.347,0,4.25-1.903,4.25-4.25C312.072,105.477,310.169,103.574,307.822,103.574z"/> <path d="M318.264,198.129l14.375,10c0.729,0.507,1.578,0.761,2.427,0.761c0.848,0,1.695-0.253,2.424-0.759l14.403-10
		c1.144-0.794,1.826-2.099,1.826-3.491v-18.75c0-2.347-1.903-4.25-4.25-4.25h-28.778c-2.347,0-4.25,1.903-4.25,4.25v18.75
		C316.442,196.031,317.123,197.335,318.264,198.129z M324.942,180.14h20.278v12.277l-10.15,7.047l-10.127-7.045V180.14z"/> <path d="M328.525,169.807h20.944c2.347,0,4.25-1.903,4.25-4.25c0-2.347-1.903-4.25-4.25-4.25h-20.944
		c-2.347,0-4.25,1.903-4.25,4.25C324.275,167.904,326.178,169.807,328.525,169.807z"/> <path d="M477.182,276.183h-24.64c1.717-2.234,2.75-5.02,2.75-8.049c0-4.963-2.747-9.292-6.796-11.562
		c0.196-0.184,0.405-0.347,0.596-0.539c9.312-9.312,9.312-24.463,0-33.776l-81.205-81.205c-5.176-6.268-13.004-10.27-21.749-10.27
		h-23.672c-2.171,0-3.994,1.637-4.226,3.796c-0.661,6.15-6.893,10.968-14.189,10.968c-7.295,0-13.527-4.818-14.188-10.968
		c-0.232-2.159-2.054-3.796-4.226-3.796h-23.672c-8.219,0-15.626,3.537-20.785,9.167c-0.032,0.03-0.069,0.051-0.1,0.082
		l-23.679,23.678v-43.377c0-7.857-6.393-14.25-14.25-14.25H41.82c-7.857,0-14.25,6.393-14.25,14.25v118
		c0,7.857,6.393,14.25,14.25,14.25h51.417v23.6H16.735c-7.78,0-14.11,6.393-14.11,14.25v11.875c0,7.857,6.33,14.25,14.11,14.25
		h13.251v173.108c0,2.347,1.903,4.25,4.25,4.25h428.567c2.347,0,4.25-1.903,4.25-4.25V316.558h10.129
		c7.78,0,14.109-6.393,14.109-14.25v-11.875C491.292,282.576,484.962,276.183,477.182,276.183z M374.336,159.523l19.567,19.567
		l-19.567,19.567V159.523z M374.336,215.256l40.29,40.091c-5.653,1.512-9.834,6.664-9.834,12.787c0,3.029,1.033,5.815,2.749,8.049
		h-33.206V215.256z M418.042,263.384h24c2.619,0,4.75,2.131,4.75,4.75c0,2.619-2.131,4.75-4.75,4.75h-24
		c-2.619,0-4.75-2.131-4.75-4.75C413.292,265.515,415.423,263.384,418.042,263.384z M443.081,250.023
		c-2.905,2.906-6.768,4.506-10.877,4.506c-4.109,0-7.972-1.6-10.885-4.513l-43.268-43.053l21.862-21.862l43.168,43.167
		C449.079,234.266,449.079,244.025,443.081,250.023z M282.217,139.284c2.772,8.637,11.522,14.764,21.836,14.764
		c10.315,0,19.065-6.128,21.836-14.764h20.25c10.861,0,19.697,8.836,19.697,19.696v117.203H333.17
		c1.637-2.083,2.622-4.701,2.622-7.549c0-6.755-5.495-12.25-12.25-12.25h-81.271V158.98c0-10.86,8.836-19.696,19.696-19.696H282.217
		z M203.153,252.584c7.857,0,14.25-6.393,14.25-14.25v-7.07l16.368-16.369v41.489h-25.229c-6.755,0-12.25,5.495-12.25,12.25
		c0,2.849,0.985,5.466,2.622,7.549h-47.178v-23.6H203.153z M323.542,272.384h-115c-2.068,0-3.75-1.682-3.75-3.75
		s1.682-3.75,3.75-3.75h115c2.068,0,3.75,1.682,3.75,3.75S325.61,272.384,323.542,272.384z M217.403,194.318l11.784,13.139
		l-11.784,11.784V194.318z M233.771,159.364v40.475l-16.368-18.251v-5.855L233.771,159.364z M36.07,238.334v-8.418h74.473
		c2.347,0,4.25-1.903,4.25-4.25c0-2.347-1.903-4.25-4.25-4.25H36.07v-22.833h13.139c2.347,0,4.25-1.903,4.25-4.25
		c0-2.347-1.903-4.25-4.25-4.25H36.07v-69.749c0-3.17,2.58-5.75,5.75-5.75h161.333c3.171,0,5.75,2.58,5.75,5.75v11.749h-91.027
		c-2.347,0-4.25,1.903-4.25,4.25c0,2.347,1.903,4.25,4.25,4.25h91.027v97.751c0,3.17-2.579,5.75-5.75,5.75H41.82
		C38.649,244.084,36.07,241.504,36.07,238.334z M101.736,252.584h41.5v23.6h-41.5V252.584z M458.553,453.25H345.542
		c-2.347,0-4.25,1.903-4.25,4.25s1.903,4.25,4.25,4.25h113.012v23.667H38.486V378.25h46.556c2.347,0,4.25-1.903,4.25-4.25
		s-1.903-4.25-4.25-4.25H38.486v-29.5h97.823c2.347,0,4.25-1.903,4.25-4.25s-1.903-4.25-4.25-4.25H38.486v-15.192h375.806V407
		c0,2.347,1.903,4.25,4.25,4.25c2.347,0,4.25-1.903,4.25-4.25v-90.442h35.762V453.25z M482.792,302.308
		c0,3.17-2.516,5.75-5.609,5.75H16.735c-3.093,0-5.61-2.58-5.61-5.75v-11.875c0-3.17,2.517-5.75,5.61-5.75h460.448
		c3.093,0,5.609,2.58,5.609,5.75V302.308z"/> <path d="M122.486,162.584c-9.236,0-16.75,7.514-16.75,16.75s7.514,16.75,16.75,16.75c9.236,0,16.75-7.514,16.75-16.75
		S131.722,162.584,122.486,162.584z M122.486,187.584c-4.549,0-8.25-3.701-8.25-8.25s3.701-8.25,8.25-8.25
		c4.549,0,8.25,3.701,8.25,8.25S127.035,187.584,122.486,187.584z"/> </g>                </symbol><symbol viewBox="0 0 495.307 495.307" id="icon-mobile-application-development"><title>mobile-application-development</title> <g> <path d="M348.733,0l-202.16,0.001c-22.611,0-41.008,18.396-41.008,41.009v413.288c0,10.914,4.277,21.201,12.043,28.967
		c7.766,7.766,18.053,12.042,28.965,12.042l202.16-0.001c22.611,0,41.008-18.396,41.008-41.009V41.009
		C389.741,18.397,371.345,0,348.733,0z M114.065,45.26l267.176,0V98.35h-50.43c-2.348,0-4.25,1.903-4.25,4.25
		c0,2.347,1.902,4.25,4.25,4.25h50.43v255.766l-129.908,0.001c-2.348,0-4.25,1.903-4.25,4.25c0,2.347,1.902,4.25,4.25,4.25
		l129.908-0.001v24.263l-267.176,0V45.26z M146.573,8.5l202.16,0c16.484,0,30.131,12.336,32.221,28.259l-266.602,0
		C116.44,20.836,130.089,8.5,146.573,8.5z M348.733,486.806l-202.16,0.001c-8.643,0-16.795-3.392-22.955-9.553
		c-6.16-6.16-9.553-14.313-9.553-22.956v-17.611l71.4-0.001c2.348,0,4.25-1.903,4.25-4.25s-1.902-4.25-4.25-4.25l-71.4,0.001
		v-24.308l267.176,0v50.418C381.241,472.223,366.659,486.806,348.733,486.806z"/> <path d="M247.653,420.109c-13.025,0-23.621,10.597-23.621,23.622c0,13.025,10.596,23.622,23.621,23.622
		s23.623-10.597,23.623-23.623C271.276,430.706,260.679,420.109,247.653,420.109z M247.653,458.853
		c-8.338,0-15.121-6.784-15.121-15.122c0-8.338,6.783-15.122,15.121-15.122c8.338,0,15.123,6.784,15.123,15.121
		C262.776,452.069,255.991,458.853,247.653,458.853z"/> <path d="M142.679,110.407c1.088,0,2.176-0.415,3.006-1.245l32.855-32.856c1.66-1.66,1.66-4.351,0-6.011
		c-1.658-1.659-4.351-1.659-6.01,0l-32.855,32.856c-1.66,1.66-1.66,4.351,0,6.011C140.503,109.992,141.591,110.407,142.679,110.407z
		"/> <path d="M142.679,153.961c1.088,0,2.176-0.415,3.006-1.245l76.41-76.41c1.66-1.66,1.66-4.351,0-6.011
		c-1.658-1.659-4.352-1.659-6.01,0l-76.41,76.41c-1.66,1.66-1.66,4.351,0,6.011C140.503,153.546,141.591,153.961,142.679,153.961z"/> <path d="M265.646,70.296c-1.658-1.659-4.352-1.659-6.01,0L139.675,190.26c-1.66,1.66-1.66,4.351,0,6.011
		c0.828,0.83,1.916,1.245,3.004,1.245c1.088,0,2.176-0.415,3.006-1.245L265.646,76.307
		C267.306,74.646,267.306,71.955,265.646,70.296z"/> <path d="M227.489,362.617h-51.662c-2.348,0-4.25,1.903-4.25,4.25c0,2.347,1.902,4.25,4.25,4.25h51.662
		c2.348,0,4.25-1.903,4.25-4.25C231.739,364.52,229.837,362.617,227.489,362.617z"/> </g>                </symbol><symbol viewBox="0 0 491.148 491.148" id="icon-software-product-development"><title>software-product-development</title> <g> <path d="M216.396,252.217c-11.836,0-21.466,9.63-21.466,21.467c0,11.836,9.629,21.466,21.466,21.466
		c11.837,0,21.467-9.629,21.467-21.466C237.862,261.847,228.232,252.217,216.396,252.217z M216.396,286.649
		c-7.149,0-12.966-5.816-12.966-12.966c0-7.15,5.816-12.967,12.966-12.967c7.15,0,12.967,5.817,12.967,12.967
		C229.362,280.833,223.545,286.649,216.396,286.649z"/> <path d="M464.13,197.664h-32.585V30.074C431.545,13.491,418.054,0,401.472,0H31.324C14.741,0,1.25,13.491,1.25,30.074v265.883
		c0,16.583,13.491,30.074,30.074,30.074h129.511l-15.448,59.592h-1.221c-12.84,0-23.286,10.447-23.286,23.288v17.303
		c0,2.347,1.903,4.25,4.25,4.25h182.535c2.347,0,4.25-1.903,4.25-4.25v-17.303c0-12.841-10.447-23.288-23.289-23.288h-1.22
		l-15.449-59.592h48.057V465.38c0,14.209,11.56,25.768,25.769,25.768H464.13c14.209,0,25.768-11.56,25.768-25.77V223.433
		C489.898,209.224,478.339,197.664,464.13,197.664z M328.514,227.684l152.885-0.001v201.443H328.514V227.684z M480.848,219.183
		l-151.783,0.001c1.901-7.47,8.665-13.02,16.718-13.02H464.13C472.183,206.164,478.946,211.713,480.848,219.183z M345.782,197.664
		c-14.209,0-25.769,11.56-25.769,25.77v10.321H9.75V33.16h413.295v164.504H345.782z M31.324,8.5h370.147
		c10.023,0,18.446,6.881,20.858,16.16H10.465C12.877,15.381,21.301,8.5,31.324,8.5z M303.415,408.911v13.053H129.38v-13.053
		c0-8.154,6.633-14.788,14.786-14.788h144.46C296.781,394.123,303.415,400.757,303.415,408.911z M278.626,385.623H154.169
		l15.448-59.592h93.56L278.626,385.623z M31.324,317.531c-11.896,0-21.574-9.678-21.574-21.574v-26.31h65.618
		c2.347,0,4.25-1.903,4.25-4.25c0-2.347-1.903-4.25-4.25-4.25H9.75v-18.893h310.264v75.276H31.324z M464.13,482.648H345.782
		c-9.522,0-17.269-7.747-17.269-17.268v-8.548h40.037c2.347,0,4.25-1.903,4.25-4.25s-1.903-4.25-4.25-4.25h-40.037v-10.706h152.885
		v27.753C481.398,474.901,473.652,482.648,464.13,482.648z"/> <path d="M404.956,443.603c-8.596,0-15.59,6.995-15.59,15.592c0,8.596,6.994,15.59,15.59,15.59c8.597,0,15.592-6.994,15.592-15.591
		C420.548,450.597,413.553,443.603,404.956,443.603z M404.956,466.284c-3.909,0-7.09-3.181-7.09-7.09
		c0-3.911,3.181-7.092,7.09-7.092c3.911,0,7.092,3.181,7.092,7.091C412.048,463.103,408.867,466.284,404.956,466.284z"/> <path d="M459.369,250.47h-41.718c-2.347,0-4.25,1.903-4.25,4.25v38.465c0,2.347,1.903,4.25,4.25,4.25h41.718
		c2.347,0,4.25-1.903,4.25-4.25V254.72C463.619,252.373,461.716,250.47,459.369,250.47z M455.119,288.935h-33.218V258.97h33.218
		V288.935z"/> <path d="M353.478,297.435h41.745c2.347,0,4.25-1.903,4.25-4.25V254.72c0-2.347-1.903-4.25-4.25-4.25h-41.745
		c-2.347,0-4.25,1.903-4.25,4.25v38.465C349.228,295.532,351.13,297.435,353.478,297.435z M357.728,258.97h33.245v29.965h-33.245
		V258.97z"/> <path d="M459.369,310.397H353.478c-2.347,0-4.25,1.903-4.25,4.25v33.789c0,2.347,1.903,4.25,4.25,4.25h105.892
		c2.347,0,4.25-1.903,4.25-4.25v-33.789C463.619,312.3,461.716,310.397,459.369,310.397z M455.119,344.187h-97.392v-25.289h97.392
		V344.187z"/> <path d="M459.369,365.99H353.478c-2.347,0-4.25,1.903-4.25,4.25s1.903,4.25,4.25,4.25h105.892c2.347,0,4.25-1.903,4.25-4.25
		S461.716,365.99,459.369,365.99z"/> <path d="M459.369,384.387H353.478c-2.347,0-4.25,1.903-4.25,4.25s1.903,4.25,4.25,4.25h105.892c2.347,0,4.25-1.903,4.25-4.25
		S461.716,384.387,459.369,384.387z"/> <path d="M390.106,48.02h-229c-2.347,0-4.25,1.903-4.25,4.25v46c0,2.347,1.903,4.25,4.25,4.25h229c2.347,0,4.25-1.903,4.25-4.25v-46
		C394.356,49.922,392.454,48.02,390.106,48.02z M385.856,94.02h-220.5v-37.5h220.5V94.02z"/> <path d="M43.106,102.52h86c2.347,0,4.25-1.903,4.25-4.25v-46c0-2.347-1.903-4.25-4.25-4.25h-86c-2.347,0-4.25,1.903-4.25,4.25v46
		C38.856,100.617,40.759,102.52,43.106,102.52z M47.356,56.52h77.5v37.5h-77.5V56.52z"/> <path d="M390.106,119.687h-347c-2.347,0-4.25,1.903-4.25,4.25v20.067c0,2.347,1.903,4.25,4.25,4.25h347
		c2.347,0,4.25-1.903,4.25-4.25v-20.067C394.356,121.589,392.454,119.687,390.106,119.687z M385.856,139.754h-338.5v-11.567h338.5
		V139.754z"/> <path d="M125.106,165.828h-82c-2.347,0-4.25,1.903-4.25,4.25s1.903,4.25,4.25,4.25h82c2.347,0,4.25-1.903,4.25-4.25
		S127.454,165.828,125.106,165.828z"/> <path d="M125.106,187.828h-82c-2.347,0-4.25,1.903-4.25,4.25s1.903,4.25,4.25,4.25h82c2.347,0,4.25-1.903,4.25-4.25
		S127.454,187.828,125.106,187.828z"/> <path d="M389.115,165.828H162.17c-2.347,0-4.25,1.903-4.25,4.25s1.903,4.25,4.25,4.25h226.945c2.347,0,4.25-1.903,4.25-4.25
		S391.462,165.828,389.115,165.828z"/> <path d="M250.106,187.828H162.17c-2.347,0-4.25,1.903-4.25,4.25s1.903,4.25,4.25,4.25h87.936c2.347,0,4.25-1.903,4.25-4.25
		S252.454,187.828,250.106,187.828z"/> </g>                </symbol><symbol viewBox="0 0 487.446 487.446" id="icon-software-qa-and-testing"><title>software-qa-and-testing</title> <g> <path d="M246.83,62.735c0-2.347-1.903-4.25-4.25-4.25c-44.581,0-80.85,36.269-80.85,80.85c0,2.347,1.903,4.25,4.25,4.25
		s4.25-1.903,4.25-4.25c0-39.894,32.456-72.35,72.35-72.35C244.927,66.985,246.83,65.082,246.83,62.735z"/> <path d="M485.834,247.071c-29.577-23.419-58.583-15.534-69.318-11.269c-6.703-18.528-17.162-34.931-31.176-48.807
		c8.671-8.722,38.255-35.318,73.046-31.37c2.328,0.264,4.438-1.41,4.703-3.743c0.265-2.333-1.411-4.438-3.743-4.703
		c-39.078-4.443-70.913,24.469-80.248,34.007c-2.477-2.165-5.037-4.269-7.704-6.292c-9.256-7.019-19.508-13.089-30.638-18.184
		c1.008-5.726,1.54-11.562,1.54-17.377c0-41.216-25.136-76.671-60.883-91.842c10.443-11.772,45.286-44.436,102.923-34.173
		c2.306,0.411,4.518-1.128,4.929-3.439c0.412-2.311-1.128-4.518-3.439-4.929c-39.046-6.954-68.11,4.695-85.617,15.691
		c-14.599,9.169-23.685,19.26-27.294,23.701c-9.57-3.063-19.761-4.723-30.334-4.723c-10.563,0-20.745,1.657-30.307,4.714
		c-3.688-4.513-12.766-14.523-27.251-23.628C167.484,9.68,138.38-2.003,99.335,4.951c-2.311,0.412-3.851,2.618-3.439,4.929
		c0.412,2.31,2.617,3.851,4.929,3.439c29.069-5.175,55.772-0.335,79.368,14.391c11.488,7.17,19.406,15.07,23.578,19.772
		c-35.76,15.166-60.906,50.628-60.906,91.853c0,5.815,0.532,11.651,1.54,17.377c-11.129,5.095-21.382,11.165-30.638,18.184
		c-2.211,1.677-4.357,3.404-6.438,5.179c-9.014-9.206-40.082-37.344-79.229-32.895c-2.332,0.265-4.008,2.37-3.743,4.703
		c0.264,2.331,2.365,4.008,4.703,3.743c34.679-3.939,63.5,21.735,71.954,30.189c-14.39,13.9-25.142,30.405-32.049,49.092
		c-10.388-4.045-37.972-11.101-67.353,12.164c-1.84,1.457-2.151,4.13-0.694,5.97c0.839,1.06,2.081,1.612,3.335,1.612
		c0.924,0,1.855-0.3,2.635-0.918c26.513-20.994,51.071-14.102,59.377-10.764c-4.286,14.22-6.472,29.591-6.472,45.943
		c0,17.806,2.615,35.646,7.58,52.912c0.053,0.522,0.193,1.013,0.417,1.462c5.321,17.988,13.214,35.324,23.385,51.319
		c-14.78,3.792-51.501,16.33-67.173,49.939c-0.992,2.127-0.071,4.656,2.056,5.648c0.581,0.27,1.192,0.399,1.793,0.399
		c1.601,0,3.134-0.909,3.855-2.455c15.169-32.531,54.009-43.549,64.509-45.981c5.174,7.383,10.846,14.443,17.001,21.094
		c1.824,1.971,3.685,3.885,5.566,5.764c-15.51,4.242-50.033,17.042-65.182,49.531c-0.992,2.127-0.071,4.656,2.056,5.648
		c0.581,0.27,1.192,0.399,1.793,0.399c1.601,0,3.134-0.909,3.855-2.455c15.577-33.407,55.719-44.128,64.808-46.161
		c33.127,29.87,73.88,46.134,116.468,46.134c42.596,0,83.356-16.27,116.486-46.15c8.399,1.732,51.189,12.107,67.075,46.178
		c0.721,1.546,2.254,2.455,3.855,2.455c0.601,0,1.212-0.129,1.793-0.399c2.127-0.992,3.048-3.521,2.056-5.648
		c-15.333-32.882-51.63-45.544-67.39-49.609c1.855-1.854,3.689-3.742,5.489-5.686c6.197-6.697,11.906-13.806,17.108-21.245
		c10.409,2.286,51.335,13.208,66.687,46.132c0.721,1.546,2.254,2.455,3.855,2.455c0.601,0,1.212-0.129,1.793-0.399
		c2.128-0.992,3.048-3.521,2.056-5.648c-15.811-33.91-54.307-46.424-69.344-50.116c8.447-13.313,15.317-27.552,20.438-42.323
		c0.044-0.099,0.071-0.205,0.108-0.308c7.008-20.318,10.722-41.627,10.722-62.885c0-16.001-2.101-31.058-6.206-45.021
		c8.584-3.535,34.645-11.341,61.396,9.842c0.781,0.618,1.711,0.918,2.635,0.918c1.254,0,2.496-0.552,3.335-1.612
		C487.985,251.201,487.674,248.528,485.834,247.071z M151.365,139.334c0-50.296,40.919-91.215,91.215-91.215
		s91.215,40.919,91.215,91.215c0,4.656-0.376,9.325-1.083,13.931c-26.108-10.477-56.582-15.913-90.132-15.913
		s-64.023,5.436-90.132,15.913C151.742,148.66,151.365,143.99,151.365,139.334z M407.566,346.153H368.58
		c-2.347,0-4.25,1.903-4.25,4.25s1.903,4.25,4.25,4.25h35.953c-6.115,15.922-14.331,30.895-24.235,44.5H305.58
		c-2.347,0-4.25,1.903-4.25,4.25s1.903,4.25,4.25,4.25h68.17c-31.609,38.746-77.479,64.494-126.92,65.896V161.222
		c0-2.347-1.903-4.25-4.25-4.25c-2.347,0-4.25,1.903-4.25,4.25v312.327c-38.339-1.087-74.528-16.821-103.589-41.896h36.902
		c2.347,0,4.25-1.903,4.25-4.25s-1.903-4.25-4.25-4.25h-46.119c-21.587-21.267-38.424-47.954-48.09-77.5H190.58
		c2.347,0,4.25-1.903,4.25-4.25s-1.903-4.25-4.25-4.25H74.874c-2.115-7.677-3.742-15.525-4.851-23.5h54.557
		c2.347,0,4.25-1.903,4.25-4.25s-1.903-4.25-4.25-4.25H69.047c-0.489-5.368-0.753-10.783-0.753-16.238
		c0-24.673,4.928-45.63,13.554-63.262H206.58c2.347,0,4.25-1.903,4.25-4.25s-1.903-4.25-4.25-4.25H86.455
		c30.534-51.413,94.851-71.301,156.125-71.301c58.832,0,120.47,18.333,152.317,65.301h-95.986c-2.347,0-4.25,1.903-4.25,4.25
		s1.903,4.25,4.25,4.25h101.241c6.207,11.055,10.89,23.515,13.694,37.5H370.58c-2.347,0-4.25,1.903-4.25,4.25s1.903,4.25,4.25,4.25
		h44.714c1.032,7.358,1.573,15.106,1.573,23.262C416.867,308.683,413.573,327.962,407.566,346.153z"/> </g>                </symbol><symbol viewBox="0 0 491.957 491.957" id="icon-technical-consulting"><title>technical-consulting</title> <g> <path d="M151.105,100.857c27.324,0,49.554-22.231,49.554-49.555S178.43,1.748,151.105,1.748c-27.323,0-49.553,22.23-49.553,49.555
		S123.782,100.857,151.105,100.857z M151.105,10.248c22.637,0,41.054,18.417,41.054,41.055s-18.417,41.055-41.054,41.055
		c-22.637,0-41.053-18.417-41.053-41.055S128.469,10.248,151.105,10.248z"/> <path d="M112.747,295.254c-2.347,0-4.25,1.902-4.25,4.25v35.06c0,2.348,1.903,4.25,4.25,4.25c2.347,0,4.25-1.902,4.25-4.25v-35.06
		C116.997,297.156,115.094,295.254,112.747,295.254z"/> <path d="M491.425,422.161l-63.71-115.202h42.923c2.347,0,4.25-1.902,4.25-4.25V55.596c0-2.348-1.903-4.25-4.25-4.25h-92.592V23.135
		c0-2.348-1.903-4.25-4.25-4.25s-4.25,1.902-4.25,4.25v28.211h-92.591c-2.347,0-4.25,1.902-4.25,4.25v114.731l-15.56,14.524
		l-48.679-51.921c-13.258-16.134-38.872-26.732-57.361-26.732c-16.776,0-39.417,8.725-53.373,22.394L7.754,213.898
		c-9.94,9.402-10.383,25.141-0.985,35.082c4.874,5.154,11.45,7.756,18.04,7.756c6.121,0,12.254-2.245,17.043-6.773l43.155-40.916
		l-0.002,250.91c0,16.679,13.571,30.25,30.253,30.252c16.682,0,30.254-13.571,30.254-30.252l0.001-128.113
		c3.862,0.393,7.325,0.393,11.184,0l-0.002,128.113c0,16.681,13.571,30.252,30.253,30.252c16.682,0,30.254-13.571,30.254-30.252
		V214.848l20.633,22.025c4.874,5.154,11.465,7.759,18.066,7.759c6.029,0,12.062-2.179,16.803-6.563v64.64
		c0,2.348,1.903,4.25,4.25,4.25h42.552l-63.711,115.203c-1.136,2.054-0.392,4.64,1.663,5.775c2.054,1.137,4.64,0.392,5.776-1.662
		l65.986-119.317h40.326v117.26c0,2.348,1.903,4.25,4.25,4.25s4.25-1.902,4.25-4.25v-117.26h39.955l65.985,119.315
		c1.136,2.054,3.722,2.802,5.776,1.662C491.817,426.801,492.561,424.215,491.425,422.161z M36.008,243.791
		c-6.534,6.178-16.881,5.888-23.063-0.65c-6.178-6.536-5.887-16.884,0.654-23.07l71.576-68.123
		c-0.106,1.006-0.167,2.021-0.167,3.047l0,42.339L36.008,243.791z M208.703,459.957c0,9.503-6.128,17.596-14.638,20.551v-55.976
		c0-2.348-1.903-4.25-4.25-4.25c-2.347,0-4.25,1.902-4.25,4.25v56.959c0,0.059,0.015,0.113,0.017,0.171
		c-11.36-0.708-20.387-10.17-20.387-21.705l0.002-133c0-1.257-0.557-2.45-1.521-3.258c-0.771-0.645-1.739-0.992-2.729-0.992
		c-0.248,0-0.497,0.022-0.744,0.065c-3.232,0.575-6.294,0.866-9.1,0.866c-2.803,0-5.864-0.291-9.098-0.864
		c-1.238-0.221-2.509,0.12-3.472,0.928c-0.963,0.808-1.52,2-1.52,3.257l-0.001,132.998c0,11.414-8.839,20.795-20.03,21.677
		c0.002-0.049,0.014-0.095,0.014-0.144V371.297c0-2.348-1.903-4.25-4.25-4.25c-2.347,0-4.25,1.902-4.25,4.25v109.329
		c-8.693-2.852-14.991-11.037-14.991-20.669l0.002-304.963c0-21.855,35.378-40.297,57.598-40.297
		c22.22,0,57.598,18.441,57.598,40.297V459.957z M244.026,231.048l-26.823-28.632v-47.309l36.641,38.65
		c1.604,1.708,4.288,1.799,6.001,0.199l40.976-38.248c3.166-2.994,7.306-4.59,11.665-4.452c4.356,0.122,8.403,1.934,11.397,5.101
		c2.995,3.167,4.577,7.311,4.454,11.667c-0.122,4.356-1.934,8.403-5.077,11.375l-56.243,52.361
		C260.487,237.872,250.168,237.544,244.026,231.048z M281.205,230.165l47.869-44.566c4.818-4.553,7.573-10.709,7.759-17.336
		c0.186-6.626-2.22-12.929-6.774-17.745c-4.553-4.816-10.709-7.572-17.335-7.758c-6.633-0.191-12.927,2.22-17.723,6.755
		l-13.796,12.878V59.846h185.183v238.613H281.205V230.165z"/> <path d="M436.824,111.998c0-2.348-1.903-4.25-4.25-4.25h-134c-2.347,0-4.25,1.902-4.25,4.25c0,2.348,1.903,4.25,4.25,4.25h134
		C434.921,116.248,436.824,114.346,436.824,111.998z"/> <path d="M367.574,256.748h-61c-2.347,0-4.25,1.902-4.25,4.25c0,2.348,1.903,4.25,4.25,4.25h61c2.347,0,4.25-1.902,4.25-4.25
		C371.824,258.65,369.921,256.748,367.574,256.748z"/> <path d="M441.574,215.748h-92c-2.347,0-4.25,1.902-4.25,4.25c0,2.348,1.903,4.25,4.25,4.25h92c2.347,0,4.25-1.902,4.25-4.25
		C445.824,217.65,443.921,215.748,441.574,215.748z"/> </g>                </symbol><symbol viewBox="0 0 437.152 437.152" id="icon-technical-support"><title>technical-support</title> <path d="M422.312,202.544c-3.376-4.909-7.255-9.08-11.603-12.54c-4.519-30.673-17.111-62.634-34.288-87.406h8.508
	c0.006,0,0.012,0,0.02,0c2.348,0,4.25-1.902,4.25-4.25c0-1.054-0.384-2.019-1.02-2.762c-18.858-26.389-43.947-48.307-72.577-63.402
	c-29.689-15.654-63.24-23.929-97.025-23.929s-67.336,8.274-97.025,23.929C92.814,47.336,67.644,69.362,48.762,95.883
	c-0.923,1.296-1.045,2.999-0.315,4.413c0.729,1.413,2.187,2.302,3.777,2.302h8.545c-17.222,25.095-29.8,57.057-34.21,87.311
	c-4.396,3.477-8.311,7.682-11.718,12.636C5.132,216.666,0,236.664,0,260.377c0,23.712,5.132,43.71,14.841,57.831
	c10.582,15.392,26.003,23.683,45.878,24.691v3.478c0,7.857,6.393,14.25,14.25,14.25h3c7.857,0,14.25-6.393,14.25-14.25v-172
	c0-7.857-6.393-14.25-14.25-14.25h-3c-7.857,0-14.25,6.393-14.25,14.25v3.477c-9.127,0.463-17.311,2.468-24.521,5.985
	c5.438-28.519,18.428-58.81,35.008-81.241h16.899c1.199,0,2.343-0.507,3.148-1.396c32.527-35.873,78.935-56.447,127.323-56.447
	s94.796,20.574,127.323,56.447c0.806,0.889,1.949,1.396,3.148,1.396h16.871c16.825,22.406,29.598,52.094,35.122,81.28
	c-7.229-3.543-15.439-5.559-24.599-6.025v-3.477c0-7.857-6.393-14.25-14.25-14.25h-3c-7.857,0-14.25,6.393-14.25,14.25v172
	c0,7.857,6.393,14.25,14.25,14.25h3c7.857,0,14.25-6.393,14.25-14.25v-3.478c3.401-0.173,6.659-0.579,9.798-1.178v49.927
	c0,5.928-4.822,10.75-10.75,10.75H272.698v-8.75c0-7.857-6.393-14.25-14.25-14.25h-77c-7.857,0-14.25,6.393-14.25,14.25v21
	c0,7.857,6.393,14.25,14.25,14.25h77c7.857,0,14.25-6.393,14.25-14.25v-3.75H375.49c10.614,0,19.25-8.636,19.25-19.25v-52.151
	c11.273-3.891,20.502-11.006,27.571-21.288c9.709-14.121,14.841-34.119,14.841-57.832S432.021,216.666,422.312,202.544z
	 M69.219,174.377c0-3.171,2.579-5.75,5.75-5.75h3c3.171,0,5.75,2.579,5.75,5.75v172c0,3.17-2.579,5.75-5.75,5.75h-3
	c-3.171,0-5.75-2.58-5.75-5.75V174.377z M60.719,334.374c-16.896-0.986-29.965-8.023-38.874-20.981
	c-5.369-7.81-9.175-17.757-11.315-29.368h37.004c2.348,0,4.25-1.902,4.25-4.25c0-2.347-1.902-4.25-4.25-4.25H10.036
	c-0.251,0-0.494,0.032-0.733,0.074c-0.528-4.846-0.803-9.925-0.803-15.222c0-5.344,0.277-10.467,0.816-15.351h18.72
	c2.348,0,4.25-1.902,4.25-4.25c0-2.347-1.902-4.25-4.25-4.25H10.57c2.146-11.523,5.937-21.402,11.275-29.166
	c8.909-12.959,21.978-19.995,38.874-20.981V334.374z M218.576,36.255c-50.153,0-98.275,21.057-132.342,57.843H60.683
	c37.757-48.582,96.164-77.343,157.894-77.343S338.713,45.516,376.47,94.098h-25.552C316.852,57.312,268.729,36.255,218.576,36.255z
	 M264.198,414.647c0,3.17-2.579,5.75-5.75,5.75h-77c-3.171,0-5.75-2.58-5.75-5.75v-21c0-3.171,2.579-5.75,5.75-5.75h77
	c3.171,0,5.75,2.579,5.75,5.75V414.647z M367.942,346.377c0,3.17-2.579,5.75-5.75,5.75h-3c-3.171,0-5.75-2.58-5.75-5.75v-172
	c0-3.171,2.579-5.75,5.75-5.75h3c3.171,0,5.75,2.579,5.75,5.75V346.377z M415.308,313.393c-8.907,12.956-21.975,19.992-38.865,20.98
	V186.38c16.891,0.987,29.958,8.024,38.865,20.98c5.338,7.764,9.128,17.643,11.275,29.166h-25.065c-2.348,0-4.25,1.903-4.25,4.25
	c0,2.348,1.902,4.25,4.25,4.25h26.32c0.452,4.105,0.709,8.386,0.782,12.817c-0.496-0.202-1.036-0.318-1.604-0.318h-40.497
	c-2.348,0-4.25,1.903-4.25,4.25c0,2.348,1.902,4.25,4.25,4.25h40.497c0.542,0,1.056-0.111,1.532-0.296
	C427.852,285.337,423.318,301.741,415.308,313.393z"/>                </symbol></svg>