<svg xmlns="http://www.w3.org/2000/svg" width="0" height="0" style="display: none">

    <symbol id="open-menu-icon" viewBox="-646.5 655.6 77 59.5">
        <path d="M-572.2 661h-71.7c-1.5 0-2.7-1.2-2.7-2.7 0-1.5 1.2-2.7 2.7-2.7h71.7c1.5 0 2.7 1.2 2.7 2.7 0 1.5-1.2 2.7-2.7 2.7zM-589.8 688.1h-54c-1.5 0-2.7-1.2-2.7-2.7 0-1.5 1.2-2.7 2.7-2.7h54c1.5 0 2.7 1.2 2.7 2.7-.1 1.5-1.3 2.7-2.7 2.7zM-597.3 715.2h-46.6c-1.5 0-2.7-1.2-2.7-2.7 0-1.5 1.2-2.7 2.7-2.7h46.6c1.5 0 2.7 1.2 2.7 2.7 0 1.5-1.2 2.7-2.7 2.7z"/>
    </symbol>

    <symbol id="close-menu-icon" viewBox="-695 696.4 26 26">
        <path class="st0" d="M-691.9 699.6l19.8 19.6M-672.2 699.5l-19.6 19.8"/>
    </symbol>

    <symbol id="scroll-down-icon" viewBox="-695 695.6 26 26.8">
        <circle class="scroll-down-icon__circle" cx="-682" cy="709" r="11.7"/>
        <path class="scroll-down-icon__arrow" d="M-676.7 707.3l-5.3 5.3-5.3-5.3"/>
    </symbol>

    <symbol id="twitter-icon" viewBox="-658 659.3 100 100">
        <path d="M-623.6 744.9c32.5-.8 50.3-27.9 50.3-51.4 0-.8 0-1.6-.1-2.3 3.6-2.5 6.6-5.7 9.1-9.4-3.3 1.4-6.8 2.4-10.5 2.8 3.8-2.2 6.6-5.8 8-10-3.5 2.1-7.4 3.6-11.6 4.4-3.3-3.5-8.1-5.7-13.3-5.7-10.1 0-18.2 8.1-18.2 18.1 0 1.4.2 2.8.5 4.1-15.1-.8-28.6-8-37.5-18.9-1.6 2.7-2.5 5.8-2.5 9.1 0 6.3 3.2 11.8 8.1 15-3-.1-5.8-.9-8.3-2.3v.2c0 8.8 6.3 16.1 14.6 17.7-1.5.4-3.1.6-4.8.6-1.2 0-2.3-.1-3.4-.3 2.3 7.2 9 12.4 17 12.6-6.2 4.8-14.1 7.7-22.6 7.7-1.5 0-2.9-.1-4.3-.3 7.8 4.9 17 7.9 26.8 8.1h2.7" />
    </symbol>

    <symbol id="linkedin-icon" viewBox="541 -486.7 2500 2389">
        <path d="M541-204.2c0-80.4 28.2-146.8 84.5-199.1 56.3-52.3 129.5-78.4 219.6-78.4 88.5 0 160.1 25.7 214.8 77.2 56.3 53.1 84.5 122.3 84.5 207.5 0 77.2-27.3 141.6-82 193.1-56.3 53.1-130.3 79.6-222 79.6H838c-88.5 0-160.1-26.5-214.8-79.6S541-123.7 541-204.2zm31.4 2111.5v-1612h535.7v1612H572.4zm832.5 0h535.7v-900.1c0-56.3 6.4-99.7 19.3-130.3 22.5-54.7 56.7-101 102.6-138.8 45.8-37.8 103.4-56.7 172.5-56.7 180.2 0 270.3 121.5 270.3 364.4v861.5H3041V983.1c0-238.1-56.3-418.7-168.9-541.7-112.6-123.1-261.4-184.6-446.4-184.6-207.5 0-369.2 89.3-485 267.9v4.8h-2.4l2.4-4.8V295.3H1405c3.2 51.5 4.8 211.5 4.8 480.2-.1 268.7-1.7 646-4.9 1131.8z" />
    </symbol>

    <symbol id="facebook-icon" viewBox="-59 -541.7 1298 2500">
        <path d="M783.5 1958V817.9h382.7l57.3-444.3h-440V89.9c0-128.6 35.7-216.3 220.2-216.3l235.3-.1v-397.4c-40.7-5.4-180.4-17.5-342.8-17.5-339.2 0-571.5 207.1-571.5 587.3v327.7H-59v444.3h383.7V1958h458.8z"/>
    </symbol>

    <symbol id="upwork-icon" viewBox="541 451.2 897.4 631.2">
        <path d="M1225.2 807.1c-40.6 0-78.7-17.2-113.3-45.2l8.4-39.5.4-1.5c7.5-42.1 31.3-112.7 104.5-112.7 54.9 0 99.6 44.7 99.6 99.6-.3 54.6-44.9 99.3-99.6 99.3zm0-299.8c-93.5 0-166 60.8-195.4 160.7-45-67.5-79.1-148.6-99-216.9H830.1V713c0 51.6-42.1 93.7-93.7 93.7s-93.7-42.1-93.7-93.7V451.2H542V713c-.4 107.2 86.9 195.3 194.2 195.3 107.2 0 194.5-88 194.5-195.3v-43.9c19.6 40.8 43.6 82 72.6 118.6l-61.7 289.9h103l44.6-210.3c39.2 25.1 84.2 40.8 135.8 40.8 110.3 0 200.2-90.4 200.2-200.8.2-110.1-89.7-200-200-200z" />    
    </symbol>

    <symbol id="dedicated-develpoment-team" viewBox="-676 668.1 63.5 65.3">
        <path d="M-625.3 711.1c.2-.8.4-1.5.4-2.3.1-1.7-.4-3.1-1.4-4.1-1.6-1.7-4.2-2-6.1-2h-.5c2.3-2.5 3.9-5.6 4-9.2.9-.8 3.9-3.5 3.8-6.2-.1-2.6-1.8-2.8-2.3-2.8h-.3l.4-4.2c.3-5.4-2.5-7.1-4-7.6.2-.9-.1-1.6-.4-2-1.5-2.4-7-2.9-11.3-2.9h-1.9c-6.8 0-8.7 3.4-9.2 4.8-5.7.6-5.4 6.3-5.3 9v1.2c0 .6 0 1.2.1 1.8-.7 0-2.3.3-2.3 2.8-.1 2.7 2.9 5.4 3.8 6.2.2 3.4 1.7 6.5 3.8 8.9h-.7c-1.9 0-4.5.3-6.1 2-1 1-1.5 2.4-1.4 4.1 0 .8.2 1.5.4 2.3-8 2.6-13.5 10.2-13.5 18.6v3.6h63.5v-3.6c0-8.2-5.5-15.8-13.5-18.4zm-18-3c2.5 0 5.5-1.2 8.2-3.3 0 1.8-.3 5.2-2.4 7.5-1.4 1.7-3.4 2.6-6 2.7-2.6-.2-4.6-1.1-6-2.7-2.1-2.4-2.4-5.9-2.4-7.7 2.6 2.2 5.8 3.5 8.6 3.5zm-10.2-33.9h.6l.1-.6s.8-4.2 7.9-4.2h1.9c5.4 0 9.2.8 10.1 2.2.2.2.3.7 0 1.4l-.4 1 1 .1c.2 0 3.8.4 3.5 6.2l-.5 4.2-2.1.8c-.5-.6-1.1-.8-1.5-.9-.7-.1-1.7-.2-2.8-.2-1.9 0-3.8.2-3.9.2-1.4.2-2.4.7-2.9 1.6 0 .1-.1.2-.1.2h-1.6c0-.1-.1-.2-.1-.2-.5-.9-1.4-1.4-2.9-1.6-.1 0-1.9-.2-3.9-.2-1.2 0-2.1.1-2.8.2-.4.1-1.1.4-1.5.9l-2.4-1c-.1-.4-.1-.9-.1-1.3v-1.3c-.2-3.8.1-7.3 4.4-7.5zm21.3 13.7l-.1.8c-.3 2-.4 2.4-1.5 2.8 0 0-1.2.2-2.5.2-1.5 0-2.6-.3-3.2-.9-.2-.3-.9-1.6-1.5-3.1 0 0-.3-.6 0-1.1.2-.4.8-.7 1.7-.8 0 0 1.9-.2 3.7-.2 1.1 0 1.9.1 2.5.2.2.1 1.2.4.9 2.1zm-13.4-.1c-.6 1.5-1.3 2.8-1.5 3.1-.6.6-1.7.9-3.2.9-1.3 0-2.4-.2-2.4-.2-1.1-.3-1.2-.7-1.6-2.8l-.1-.8c-.3-1.7.7-2 .9-2.1.6-.1 1.5-.2 2.6-.2 1.9 0 3.7.2 3.7.2.9.1 1.5.4 1.7.8.2.4-.1 1-.1 1.1zm-10.7 5.2l-.3-.2c-1-.8-3.5-3.2-3.5-5.2 0-1.3.6-1.3.9-1.3.4 0 .9-.2 1.1-.5l2.1.8c-.1.4-.1.9 0 1.5l.1.8c.3 2 .5 3.3 2.7 4 .1 0 1.3.3 2.8.3 2 0 3.5-.5 4.3-1.4l.1-.1c0-.1 1-1.6 1.7-3.3 0-.1.2-.3.2-.7h1.4c.1.4.2.6.2.6.7 1.8 1.6 3.3 1.7 3.4l.1.1c.9.9 2.3 1.4 4.3 1.4 1.5 0 2.7-.3 2.8-.3 2.1-.6 2.3-2 2.6-4l.1-.8c.1-.6.1-1.1 0-1.5l2-.8c.2.1.4.2.7.2h.7c.3 0 .8 0 .8 1.3 0 2-2.5 4.4-3.5 5.2l-.3.2v.4c0 7.4-7.8 13.4-13 13.4-5.8 0-12.8-5.9-13-13.2l.2-.3zm-3.3 12.7c1.2-1.3 3.4-1.5 5-1.5.5 0 .9 0 1.3.1-.1 1.7.1 6 2.7 9.1 1.7 2 4.1 3.1 7.2 3.3 3-.2 5.4-1.3 7.1-3.3 2.6-3.1 2.8-7.4 2.7-9.1 1.4-.1 4.6-.2 6.2 1.5.7.7 1 1.7 1 3-.1 2-1.1 3.7-1.9 4.7-1.1 1.4-3 3.4-5.9 4.9-2.7 1.5-6 2.3-9.3 2.3-3.4 0-6.6-.8-9.3-2.3-2.9-1.6-4.8-3.5-5.9-4.9-.8-1-1.8-2.7-1.9-4.7 0-1.4.3-2.4 1-3.1zm46.3 26.1h-60.4v-2.1c0-7.9 5.2-14.9 12.6-17.3.3.7.7 1.3 1.2 1.9 1.2 1.5 3.3 3.6 6.4 5.3 3 1.6 6.4 2.5 10 2.5 3.6 0 7.1-.9 10-2.5 3.1-1.7 5.2-3.8 6.4-5.3.5-.6.9-1.2 1.2-1.9 7.4 2.4 12.6 9.4 12.6 17.3v2.1z"/>
    </symbol>

    <symbol id="software-product-development" viewBox="0 0 69.093 58.504">
        <path stroke-miterlimit="10" d="M68.347 45.265c0 1.65-1.35 3-3 3H3.817c-1.65 0-3-1.35-3-3V3.75c0-1.65 1.35-3 3-3h61.53c1.65 0 3 1.35 3 3v41.515zM.817 43h67.53" fill="none" stroke="#000" stroke-width="1.5" stroke-linecap="round" stroke-linejoin="round"/>
        <g stroke-miterlimit="10" fill="none" stroke="#000" stroke-width="1.5" stroke-linecap="round" stroke-linejoin="round">
            <path d="M28.02 48.25l-6.876 8.875M41.144 48.25l6.876 8.875"/>
        </g>
        <path stroke-miterlimit="10" fill="none" stroke="#000" stroke-width="1.5" stroke-linecap="round" stroke-linejoin="round" d="M15.832 57.75h37.5"/>
        <g>
            <g stroke-miterlimit="10" fill="none" stroke="#000" stroke-width="1.5" stroke-linecap="round" stroke-linejoin="round">
            <path d="M28.985 10.372h11.193v5.173H28.985zM17.88 27.863h8.348v5.984H17.88zM30.408 27.863h8.348v5.984h-8.348zM42.936 27.863h8.348v5.984h-8.348zM34.582 15.545v11.594"/>
            <path d="M22.136 27.863v-6.525h24.892v6.525"/>
            </g>
        </g>
    </symbol>

    <symbol id="mobile-application-development" viewBox="-658 646.3 70.1 86.1">
        <path d="M-619.6 721.8c-.6 0-1 .4-1 1v4.4c0 .6.4 1 1 1h11.8c.6 0 1-.4 1-1v-4.4c0-.6-.4-1-1-1h-11.8zm1 2h9.8v2.4h-9.8zM-625 674.5c-.3 0-.6.1-.8.3l-14.4 15.3-8.1-8.2c-.4-.4-1-.4-1.4 0-.4.4-.4 1 0 1.4l8.9 8.9c.4.4 1 .4 1.4 0l15.1-16c.4-.4.4-1 0-1.4-.2-.2-.4-.3-.7-.3z"/>
        <path d="M-628.5 646.4c-5.2 0-9.5 4.1-9.5 9.2v7.1c-11.1.5-20 9.7-20 20.9s8.9 20.4 20 20.9v18.7c0 5.1 4.3 9.2 9.5 9.2h31.1c5.2 0 9.5-4.1 9.5-9.2v-67.7c0-5.1-4.3-9.2-9.5-9.2-.1.1-31.1.1-31.1.1zm0 2h31.1c4.1 0 7.5 3.2 7.5 7.2v67.7c0 3.9-3.3 7.2-7.5 7.2h-31.1c-4.1 0-7.5-3.2-7.5-7.2v-18.7c1.4-.1 2.7-.3 4-.6v10.2c0 2.8 2.3 5.2 5.1 5.2h27.8c2.8 0 5.1-2.4 5.1-5.2v-55.5c0-2.9-2.3-5.2-5.1-5.2h-27.8c-2.8 0-5.1 2.4-5.1 5.2v4.5c-1.3-.3-2.6-.5-4-.6v-7.1c0-3.9 3.3-7.1 7.5-7.1zm1.6 7.1h27.8c1.7 0 3.1 1.4 3.1 3.2v55.4c0 1.8-1.4 3.2-3.1 3.2h-27.8c-1.7 0-3.1-1.4-3.1-3.2v-10.8c8.1-2.9 14-10.7 14-19.8 0-9.1-5.8-16.9-14-19.8v-5.1c0-1.7 1.4-3.1 3.1-3.1zm-10.1 9.1c10.5 0 19 8.5 19 19s-8.5 19-19 19-19-8.5-19-19 8.5-19 19-19z"/>
    </symbol>

    <symbol id="software-qa-and-testing" viewBox="-658 646.3 85.9 78.3">
        <path d="M-608.9 646.3c-.4 0-.7.2-.9.5l-3.4 5.8c-.6-.1-1.2-.1-1.8-.1-.6 0-1.2 0-1.8.1l-3.4-5.8c-.3-.5-.9-.6-1.4-.4-.5.2-.6.9-.4 1.4l3.1 5.2c-5.6 1.7-9.7 6.8-9.8 12.9-2.7 1.4-5.2 3.1-7.3 5.2l-7.9-7.9c-.4-.4-1-.4-1.4 0-.4.4-.4 1 0 1.4l8 8c-4.8 5.3-7.9 12.3-8.1 20H-657c-.6 0-1 .4-1 1s.4 1 1 1h11.4c.2 7.7 3.3 14.7 8.1 20l-8 8c-.4.4-.4 1 0 1.4.4.4 1 .4 1.4 0l7.9-7.9c5.5 5.3 12.9 8.5 21 8.5 8.2 0 15.6-3.3 21.1-8.5l8 8c.4.4 1 .4 1.4 0 .4-.4.4-1 0-1.4l-8-8c4.8-5.3 7.8-12.3 8.1-20h11.5c.6 0 1-.4 1-1s-.4-1-1-1h-11.5c-.2-7.7-3.3-14.7-8.1-20l8-8c.4-.4.4-1 0-1.4-.4-.4-1-.4-1.4 0l-8 8c-2.2-2.1-4.7-3.9-7.4-5.3-.2-6.1-4.2-11.2-9.8-12.9l3.1-5.2c.3-.5.1-1.1-.3-1.4 0-.1-.2-.2-.4-.2zm-6.1 8.2c6 0 11 4.6 11.6 10.5-3.6-1.5-7.5-2.3-11.6-2.3s-8 .8-11.6 2.3c.6-5.9 5.6-10.5 11.6-10.5zm0 10.2c15.8 0 28.6 13 28.6 29 0 15.7-12.2 28.4-27.6 29v-43.6c0-.6-.4-1-1-1s-1 .4-1 1v43.6c-15.3-.5-27.5-13.3-27.5-29-.1-16.1 12.7-29 28.5-29z"/>
    </symbol>

    <symbol id="technical-consulting" viewBox="-658 646.3 93.082 76">
          <g transform="translate(-3.418 -12)">
            <path d="M-562.5 658.3h-64.8c-.6 0-1 .4-1 1v13.9c.7 0 1.3.1 2 .2V670h62.8v41.9h-42c.6.6 1.2 1.3 1.8 2h41.2c.6 0 1-.4 1-1v-53.6c0-.5-.4-1-1-1zm-63.8 9.6v-7.6h62.8v7.6z"/>
            <path d="M-628.5 702.5c7.3 0 13.2-5.9 13.2-13.2 0-7.3-5.9-13.2-13.2-13.2-7.3 0-13.2 5.9-13.2 13.2 0 7.3 6 13.2 13.2 13.2zm0-24.4c6.2 0 11.2 5 11.2 11.2 0 6.2-5 11.2-11.2 11.2-6.2 0-11.2-5-11.2-11.2 0-6.2 5.1-11.2 11.2-11.2zM-628.5 706.1c-14.3 0-25.9 8.5-26 19-.1.5-.3 1.8.8 3.4 2.9 3.8 11.3 5.8 25.2 5.8 13.9 0 22.4-2 25.2-5.9 1.1-1.5.9-2.9.8-3.4-.1-10.5-11.7-18.9-26-18.9zm23.6 21.1c-1.4 1.9-6.2 5.1-23.5 5.1-17.1 0-22.1-3.1-23.5-5-.8-1-.6-1.8-.6-1.8 0-.1.1-.2.1-.3 0-9.4 10.8-17.1 24-17.1s24 7.7 24 17.1c0 .1 0 .2.1.3-.1 0 .1.7-.6 1.7z"/>
            <circle r="1.3" cy="664.6" cx="-622"/>
            <circle r="1.3" cy="664.6" cx="-617.9"/>
            <circle r="1.3" cy="664.6" cx="-613.7"/>
            <path d="M-581.6 697c.2.2.5.4.8.4.2 0 .5-.1.6-.2l9.2-7.8c.2-.2.4-.5.4-.8 0-.3-.1-.6-.4-.8l-9.2-7.8c-.4-.4-1.1-.3-1.4.1-.4.4-.3 1.1.1 1.4l8.3 7-8.3 7c-.4.4-.5 1.1-.1 1.5zM-598.1 679.4c-.4-.4-1-.5-1.4-.1l-9.2 7.8c-.2.2-.4.5-.4.8 0 .3.1.6.4.8l9.2 7.8c.2.2.4.2.6.2.3 0 .6-.1.8-.4.4-.4.3-1.1-.1-1.4l-8.3-7 8.3-7c.4-.4.4-1.1.1-1.5zM-594.1 699.8c.4 0 .8-.2.9-.6l8.4-21.9c.2-.5-.1-1.1-.6-1.3-.5-.2-1.1.1-1.3.6l-8.3 21.8c-.2.5.1 1.1.6 1.3.1 0 .2.1.3.1z"/>
        </g>
    </symbol>

    <symbol id="technical-support" viewBox="-658 646.3 84 90">
        <path d="M-616 646.3c-15.5 0-28 12.5-28 28v12h-3c-6.1 0-11 4.9-11 11v8c0 6.1 4.9 11 11 11h10c.6 0 1-.4 1-1v-28c0-.6-.4-1-1-1h-5v-12c0-14.4 11.6-26 26-26s26 11.6 26 26v12h-5c-.7 0-1 .6-1 1v28c0 .5.5 1 1 1h5c-.3 3.2-1.9 6.2-5 8.6-3.3 2.5-8.3 4.2-15.1 4.4-.5-2.8-3-5-5.9-5-3.3 0-6 2.7-6 6s2.7 6 6 6c3 0 5.4-2.2 5.9-5 7.2-.1 12.6-2 16.3-4.8 3.5-2.7 5.4-6.4 5.7-10.2h3.1c6.1 0 11-4.9 11-11v-8c0-6.1-4.9-11-11-11h-3v-12c0-15.5-12.5-28-28-28zm-31 42h9v26h-9c-5 0-9-4-9-9v-8c0-5 4-9 9-9zm53 0h9c5 0 9 4 9 9v8c0 5-4 9-9 9h-9zm-22 38c2.2 0 4 1.8 4 4s-1.8 4-4 4-4-1.8-4-4 1.8-4 4-4z"/>
    </symbol>

    <symbol id="full-cycle-solutions" viewBox="-658 646.3 93.662 83.756">
        <path d="M-575.338 698.095c5.5 0 9.9-4.4 10-9.9 0-5.5-4.4-9.9-9.9-10-1.3 0-2.6.3-3.9.8l-7.9-13.7c4.4-3.2 5.4-9.4 2.2-13.9s-9.4-5.4-13.9-2.2c-2.2 1.6-3.6 3.9-4 6.6h-16.3c-.8-5.4-5.9-9.1-11.3-8.3-5.4.8-9.1 5.9-8.3 11.3.4 2.4 1.6 4.6 3.5 6.1l-8.1 14c-5.1-2.1-10.9.3-13 5.3-2.1 5 .3 10.9 5.3 13 2.5 1 5.2 1 7.7 0l8.1 14c-4.3 3.5-4.9 9.8-1.4 14.1 3.5 4.3 9.8 4.9 14.1 1.4 4.3-3.5 4.9-9.8 1.4-14.1-3-3.7-8.2-4.7-12.4-2.5l-8-13.9c4.5-3.1 5.7-9.3 2.6-13.8-.7-1-1.6-1.9-2.6-2.6l8-13.9c4.8 2.6 10.8.7 13.4-4.1.7-1.3 1.1-2.7 1.1-4.1h16.2c.3 5.5 4.9 9.7 10.4 9.4 1.3-.1 2.5-.4 3.6-.9l7.9 13.7c-4.5 3.1-5.7 9.3-2.6 13.8.7 1 1.6 1.9 2.6 2.6l-7.8 13.7c-5-2.3-11-.1-13.2 5-2.2 5.1-.1 11 5 13.2 5.1 2.2 11 .1 13.2-5 2-4.3.6-9.5-3.2-12.2l7.9-13.7c1 .5 2.3.8 3.6.8zm-53.6 13c4.4 0 7.9 3.6 7.9 7.9 0 4.3-3.6 7.9-7.9 7.9-4.4 0-7.9-3.6-7.9-7.9 0-4.3 3.6-7.9 7.9-7.9zm-10.3-23c0 4.4-3.6 7.9-7.9 7.9-4.3 0-7.9-3.6-7.9-7.9 0-4.3 3.6-7.9 7.9-7.9 4.3 0 7.9 3.5 7.9 7.9zm10.3-23c-4.4 0-7.9-3.6-7.9-7.9 0-4.3 3.6-7.9 7.9-7.9 4.3 0 7.9 3.6 7.9 7.9 0 4.3-3.5 7.9-7.9 7.9zm39.7-.9c-3.9 2.1-8.7.6-10.8-3.2-2.1-3.8-.6-8.7 3.2-10.8 3.9-2.1 8.7-.6 10.8 3.2.6 1.2 1 2.4 1 3.8 0 2.9-1.6 5.6-4.2 7zm4.2 54.8c.1 4.4-3.5 8-7.8 8-4.4.1-8-3.5-8-7.8-.1-4.4 3.5-8 7.8-8h.1c4.4-.1 7.9 3.4 7.9 7.8zm1.8-30.9c0-4.4 3.6-7.9 7.9-7.9 4.3 0 7.9 3.6 7.9 7.9 0 4.3-3.6 7.9-7.9 7.9-4.3.1-7.9-3.5-7.9-7.9z" stroke="#000" stroke-width="2" stroke-miterlimit="10"/>
    </symbol>

    <symbol id="project-based" viewBox="-658 646.3 89.9 89.8">
        <path d="M-619.1 646.3c5.5 0 10 4.5 10 10 0 3.8-2.2 7.2-5.3 8.8l5.5 17.2c.3 0 .6-.1.8-.1 4.2 0 8 1.9 10.5 4.8l12.8-11.2c-.8-1.4-1.3-3-1.3-4.7 0-4.9 4.1-9 9-9s9 4.1 9 9-4.1 9-9 9c-1.8 0-3.5-.5-4.9-1.4l-13.4 11.7c.8 1.8 1.2 3.7 1.2 5.8 0 3.1-1.1 6-2.8 8.3l11.6 11.6c1.8-1.2 3.9-2 6.2-2 6.1 0 11 4.9 11 11s-4.9 11-11 11-11-4.9-11-11c0-2.3.7-4.4 2-6.2l-11.6-11.6c-2.3 1.8-5.2 2.8-8.4 2.8-2.9 0-5.5-.8-7.7-2.3l-5.4 6.1c1.4 1.7 2.2 3.9 2.2 6.2 0 5.5-4.5 10-10 10s-10-4.5-10-10 4.5-10 10-10c1.7 0 3.3.4 4.8 1.2l5.6-6.2c-2.1-2.4-3.3-5.6-3.3-9 0-1.3.2-2.5.5-3.7l-21.9-6.8c-1.4 2.1-3.9 3.4-6.6 3.4-4.4 0-8-3.6-8-8s3.6-8 8-8 8 3.6 8 8v.8l22.2 6.8c1.6-2.6 4.1-4.7 7.1-5.8l-5.4-16.9h-.8c-5.5 0-10-4.5-10-10-.2-5.1 4.3-9.6 9.8-9.6zm0 4c-3.3 0-6 2.7-6 6s2.7 6 6 6 6-2.7 6-6-2.7-6-6-6zm42 16c-2.8 0-5 2.2-5 5s2.2 5 5 5 5-2.2 5-5-2.2-5-5-5zm-73 11c-2.2 0-4 1.8-4 4s1.8 4 4 4 4-1.8 4-4-1.8-4-4-4zm42 9c-5.5 0-10 4.5-10 10s4.5 10 10 10 10-4.5 10-10-4.5-10-10-10zm-21 28c-3.3 0-6 2.7-6 6s2.7 6 6 6 6-2.7 6-6-2.7-6-6-6zm50 4c-3.9 0-7 3.1-7 7s3.1 7 7 7 7-3.1 7-7-3.1-7-7-7z"/>
    </symbol>

    <symbol id="quotes-right" viewBox="0 0 32 32">
        <path d="M25 20c-3.866 0-7-3.134-7-7s3.134-7 7-7 7 3.134 7 7l0.031 1c0 7.732-6.268 14-14 14v-4c2.671 0 5.182-1.040 7.071-2.929 0.364-0.364 0.695-0.75 0.995-1.157-0.357 0.056-0.724 0.086-1.097 0.086zM7 20c-3.866 0-7-3.134-7-7s3.134-7 7-7 7 3.134 7 7l0.031 1c0 7.732-6.268 14-14 14v-4c2.671 0 5.182-1.040 7.071-2.929 0.364-0.364 0.695-0.75 0.995-1.157-0.357 0.056-0.724 0.086-1.097 0.086z"></path>
    </symbol>

    <symbol id="mail-envelope" viewBox="0 0 32 32">
        <path d="M28 5h-24c-2.209 0-4 1.792-4 4v13c0 2.209 1.791 4 4 4h24c2.209 0 4-1.791 4-4v-13c0-2.208-1.791-4-4-4zM2 10.25l6.999 5.25-6.999 5.25v-10.5zM30 22c0 1.104-0.898 2-2 2h-24c-1.103 0-2-0.896-2-2l7.832-5.875 4.368 3.277c0.533 0.398 1.166 0.6 1.8 0.6 0.633 0 1.266-0.201 1.799-0.6l4.369-3.277 7.832 5.875zM30 20.75l-7-5.25 7-5.25v10.5zM17.199 18.602c-0.349 0.262-0.763 0.4-1.199 0.4s-0.851-0.139-1.2-0.4l-12.8-9.602c0-1.103 0.897-2 2-2h24c1.102 0 2 0.897 2 2l-12.801 9.602z"></path>
    </symbol>

    <symbol id="arrow-right" viewBox="0 0 32 32">
        <path d="M11.086 22.086l2.829 2.829 8.914-8.914-8.914-8.914-2.828 2.828 6.086 6.086z"></path>
    </symbol>

    <symbol id="arrow-left" viewBox="0 0 32 32">
        <path d="M20.914 9.914l-2.829-2.829-8.914 8.914 8.914 8.914 2.828-2.828-6.086-6.086z"></path>
    </symbol>

    <symbol id="arrow-up" viewBox="0 0 32 32">
        <path d="M22.086 20.914l2.829-2.829-8.914-8.914-8.914 8.914 2.828 2.828 6.086-6.086z"></path>
    </symbol>              

</svg>