<svg xmlns="http://www.w3.org/2000/svg" viewBox="-676 668.1 63.5 65.3">
  <path d="M-626 711.4c.2-.8.4-1.5.4-2.3.1-1.7-.4-3.1-1.4-4.1-1.6-1.7-4.2-2-6.1-2h-.5c2.3-2.5 3.9-5.6 4-9.2.9-.8 3.9-3.5 3.8-6.2-.1-2.6-1.8-2.8-2.3-2.8h-.3l.4-4.2c.3-5.4-2.5-7.1-4-7.6.2-.9-.1-1.6-.4-2-1.5-2.4-7-2.9-11.3-2.9h-1.9c-6.8 0-8.7 3.4-9.2 4.8-5.7.6-5.4 6.3-5.3 9v1.2c0 .6 0 1.2.1 1.8-.7 0-2.3.3-2.3 2.8-.1 2.7 2.9 5.4 3.8 6.2.2 3.4 1.7 6.5 3.8 8.9h-.7c-1.9 0-4.5.3-6.1 2-1 1-1.5 2.4-1.4 4.1 0 .8.2 1.5.4 2.3-8 2.6-13.5 10.2-13.5 18.6v3.6h63.5v-3.6c0-8.2-5.5-15.8-13.5-18.4zm-18-3c2.5 0 5.5-1.2 8.2-3.3 0 1.8-.3 5.2-2.4 7.5-1.4 1.7-3.4 2.6-6 2.7-2.6-.2-4.6-1.1-6-2.7-2.1-2.4-2.4-5.9-2.4-7.7 2.6 2.2 5.8 3.5 8.6 3.5zm-10.2-33.9h.6l.1-.6s.8-4.2 7.9-4.2h1.9c5.4 0 9.2.8 10.1 2.2.2.2.3.7 0 1.4l-.4 1 1 .1c.2 0 3.8.4 3.5 6.2l-.5 4.2-2.1.8c-.5-.6-1.1-.8-1.5-.9-.7-.1-1.7-.2-2.8-.2-1.9 0-3.8.2-3.9.2-1.4.2-2.4.7-2.9 1.6 0 .1-.1.2-.1.2h-1.6c0-.1-.1-.2-.1-.2-.5-.9-1.4-1.4-2.9-1.6-.1 0-1.9-.2-3.9-.2-1.2 0-2.1.1-2.8.2-.4.1-1.1.4-1.5.9l-2.4-1c-.1-.4-.1-.9-.1-1.3V682c-.2-3.8.1-7.3 4.4-7.5zm21.3 13.7l-.1.8c-.3 2-.4 2.4-1.5 2.8 0 0-1.2.2-2.5.2-1.5 0-2.6-.3-3.2-.9-.2-.3-.9-1.6-1.5-3.1 0 0-.3-.6 0-1.1.2-.4.8-.7 1.7-.8 0 0 1.9-.2 3.7-.2 1.1 0 1.9.1 2.5.2.2.1 1.2.4.9 2.1zm-13.4-.1c-.6 1.5-1.3 2.8-1.5 3.1-.6.6-1.7.9-3.2.9-1.3 0-2.4-.2-2.4-.2-1.1-.3-1.2-.7-1.6-2.8l-.1-.8c-.3-1.7.7-2 .9-2.1.6-.1 1.5-.2 2.6-.2 1.9 0 3.7.2 3.7.2.9.1 1.5.4 1.7.8.2.4-.1 1-.1 1.1zm-10.7 5.2l-.3-.2c-1-.8-3.5-3.2-3.5-5.2 0-1.3.6-1.3.9-1.3.4 0 .9-.2 1.1-.5l2.1.8c-.1.4-.1.9 0 1.5l.1.8c.3 2 .5 3.3 2.7 4 .1 0 1.3.3 2.8.3 2 0 3.5-.5 4.3-1.4l.1-.1c0-.1 1-1.6 1.7-3.3 0-.1.2-.3.2-.7h1.4c.1.4.2.6.2.6.7 1.8 1.6 3.3 1.7 3.4l.1.1c.9.9 2.3 1.4 4.3 1.4 1.5 0 2.7-.3 2.8-.3 2.1-.6 2.3-2 2.6-4l.1-.8c.1-.6.1-1.1 0-1.5l2-.8c.2.1.4.2.7.2h.7c.3 0 .8 0 .8 1.3 0 2-2.5 4.4-3.5 5.2l-.3.2v.4c0 7.4-7.8 13.4-13 13.4-5.8 0-12.8-5.9-13-13.2l.2-.3zm-3.3 12.7c1.2-1.3 3.4-1.5 5-1.5.5 0 .9 0 1.3.1-.1 1.7.1 6 2.7 9.1 1.7 2 4.1 3.1 7.2 3.3 3-.2 5.4-1.3 7.1-3.3 2.6-3.1 2.8-7.4 2.7-9.1 1.4-.1 4.6-.2 6.2 1.5.7.7 1 1.7 1 3-.1 2-1.1 3.7-1.9 4.7-1.1 1.4-3 3.4-5.9 4.9-2.7 1.5-6 2.3-9.3 2.3-3.4 0-6.6-.8-9.3-2.3-2.9-1.6-4.8-3.5-5.9-4.9-.8-1-1.8-2.7-1.9-4.7 0-1.4.3-2.4 1-3.1zm46.3 26.1h-60.4V730c0-7.9 5.2-14.9 12.6-17.3.3.7.7 1.3 1.2 1.9 1.2 1.5 3.3 3.6 6.4 5.3 3 1.6 6.4 2.5 10 2.5 3.6 0 7.1-.9 10-2.5 3.1-1.7 5.2-3.8 6.4-5.3.5-.6.9-1.2 1.2-1.9 7.4 2.4 12.6 9.4 12.6 17.3v2.1z"/>
</svg>