<svg xmlns="http://www.w3.org/2000/svg" viewBox="0 0 69 40.333">
  <path d="M67.479 2.315A3 3 0 0 0 65 1.001H4a2.999 2.999 0 0 0-2.479 1.314L34.5 26.381 67.479 2.315zM1.106 3.251A2.945 2.945 0 0 0 1 4v32.333c0 1.158.666 2.153 1.629 2.653l20.826-19.427L1.106 3.251zM45.552 19.555l20.604 19.546A3.004 3.004 0 0 0 68 36.334V4c0-.26-.044-.508-.106-.749L45.552 19.555z" fill="none"/>
  <path d="M34.795 27.404a.507.507 0 0 1-.59 0l-9.929-7.245L3.748 39.308c.084.007.166.025.252.025h60.95l-20.218-19.18-9.937 7.251z" fill="none"/>
  <path d="M68.542 2.158c-.007-.009-.017-.014-.024-.022C67.845.872 66.529 0 65 0H4C2.473 0 1.158.87.485 2.132c-.008.01-.02.015-.028.025a.514.514 0 0 0-.076.165A3.966 3.966 0 0 0 0 4v32.333c0 2.206 1.794 4 4 4h61c2.206 0 4-1.794 4-4V4a3.96 3.96 0 0 0-.39-1.694.508.508 0 0 0-.068-.148zM4 1h61c1.03 0 1.939.522 2.479 1.314L34.5 26.381 1.521 2.314A2.999 2.999 0 0 1 4 1zM1 36.333V4c0-.26.044-.508.106-.749l22.348 16.308L2.629 38.986A2.991 2.991 0 0 1 1 36.333zm3 3c-.086 0-.167-.018-.252-.025l20.528-19.149 9.929 7.245a.507.507 0 0 0 .59 0l9.936-7.251 20.219 19.18H4zm64-3a3.003 3.003 0 0 1-1.844 2.767L45.552 19.555 67.894 3.252c.063.241.106.489.106.749v32.332z"/>
</svg>
