<svg xmlns="http://www.w3.org/2000/svg" height="86.1" width="70.1" viewBox="-658 646.3 70.1 86.1">
  <path d="M-619.6 721.8c-.6 0-1 .4-1 1v4.4c0 .6.4 1 1 1h11.8c.6 0 1-.4 1-1v-4.4c0-.6-.4-1-1-1h-11.8zm1 2h9.8v2.4h-9.8zM-625 674.5c-.3 0-.6.1-.8.3l-14.4 15.3-8.1-8.2c-.4-.4-1-.4-1.4 0-.4.4-.4 1 0 1.4l8.9 8.9c.4.4 1 .4 1.4 0l15.1-16c.4-.4.4-1 0-1.4-.2-.2-.4-.3-.7-.3z"/>
  <path d="M-628.5 646.4c-5.2 0-9.5 4.1-9.5 9.2v7.1c-11.1.5-20 9.7-20 20.9s8.9 20.4 20 20.9v18.7c0 5.1 4.3 9.2 9.5 9.2h31.1c5.2 0 9.5-4.1 9.5-9.2v-67.7c0-5.1-4.3-9.2-9.5-9.2-.1.1-31.1.1-31.1.1zm0 2h31.1c4.1 0 7.5 3.2 7.5 7.2v67.7c0 3.9-3.3 7.2-7.5 7.2h-31.1c-4.1 0-7.5-3.2-7.5-7.2v-18.7c1.4-.1 2.7-.3 4-.6v10.2c0 2.8 2.3 5.2 5.1 5.2h27.8c2.8 0 5.1-2.4 5.1-5.2v-55.5c0-2.9-2.3-5.2-5.1-5.2h-27.8c-2.8 0-5.1 2.4-5.1 5.2v4.5c-1.3-.3-2.6-.5-4-.6v-7.1c0-3.9 3.3-7.1 7.5-7.1zm1.6 7.1h27.8c1.7 0 3.1 1.4 3.1 3.2v55.4c0 1.8-1.4 3.2-3.1 3.2h-27.8c-1.7 0-3.1-1.4-3.1-3.2v-10.8c8.1-2.9 14-10.7 14-19.8 0-9.1-5.8-16.9-14-19.8v-5.1c0-1.7 1.4-3.1 3.1-3.1zm-10.1 9.1c10.5 0 19 8.5 19 19s-8.5 19-19 19-19-8.5-19-19 8.5-19 19-19z"/>
</svg>
