<svg xmlns="http://www.w3.org/2000/svg" height="89.8" width="89.9" viewBox="-658 646.3 89.9 89.8">
  <path d="M-619.1 646.3c5.5 0 10 4.5 10 10 0 3.8-2.2 7.2-5.3 8.8l5.5 17.2c.3 0 .6-.1.8-.1 4.2 0 8 1.9 10.5 4.8l12.8-11.2c-.8-1.4-1.3-3-1.3-4.7 0-4.9 4.1-9 9-9s9 4.1 9 9-4.1 9-9 9c-1.8 0-3.5-.5-4.9-1.4l-13.4 11.7c.8 1.8 1.2 3.7 1.2 5.8 0 3.1-1.1 6-2.8 8.3l11.6 11.6c1.8-1.2 3.9-2 6.2-2 6.1 0 11 4.9 11 11s-4.9 11-11 11-11-4.9-11-11c0-2.3.7-4.4 2-6.2l-11.6-11.6c-2.3 1.8-5.2 2.8-8.4 2.8-2.9 0-5.5-.8-7.7-2.3l-5.4 6.1c1.4 1.7 2.2 3.9 2.2 6.2 0 5.5-4.5 10-10 10s-10-4.5-10-10 4.5-10 10-10c1.7 0 3.3.4 4.8 1.2l5.6-6.2c-2.1-2.4-3.3-5.6-3.3-9 0-1.3.2-2.5.5-3.7l-21.9-6.8c-1.4 2.1-3.9 3.4-6.6 3.4-4.4 0-8-3.6-8-8s3.6-8 8-8 8 3.6 8 8v.8l22.2 6.8c1.6-2.6 4.1-4.7 7.1-5.8l-5.4-16.9h-.8c-5.5 0-10-4.5-10-10-.2-5.1 4.3-9.6 9.8-9.6zm0 4c-3.3 0-6 2.7-6 6s2.7 6 6 6 6-2.7 6-6-2.7-6-6-6zm42 16c-2.8 0-5 2.2-5 5s2.2 5 5 5 5-2.2 5-5-2.2-5-5-5zm-73 11c-2.2 0-4 1.8-4 4s1.8 4 4 4 4-1.8 4-4-1.8-4-4-4zm42 9c-5.5 0-10 4.5-10 10s4.5 10 10 10 10-4.5 10-10-4.5-10-10-10zm-21 28c-3.3 0-6 2.7-6 6s2.7 6 6 6 6-2.7 6-6-2.7-6-6-6zm50 4c-3.9 0-7 3.1-7 7s3.1 7 7 7 7-3.1 7-7-3.1-7-7-7z"/>
</svg>