<svg xmlns="http://www.w3.org/2000/svg" viewBox="-658 646.3 84 90" width="84" height="90">
  <path d="M-616 646.3c-15.5 0-28 12.5-28 28v12h-3c-6.1 0-11 4.9-11 11v8c0 6.1 4.9 11 11 11h10c.6 0 1-.4 1-1v-28c0-.6-.4-1-1-1h-5v-12c0-14.4 11.6-26 26-26s26 11.6 26 26v12h-5c-.7 0-1 .6-1 1v28c0 .5.5 1 1 1h5c-.3 3.2-1.9 6.2-5 8.6-3.3 2.5-8.3 4.2-15.1 4.4-.5-2.8-3-5-5.9-5-3.3 0-6 2.7-6 6s2.7 6 6 6c3 0 5.4-2.2 5.9-5 7.2-.1 12.6-2 16.3-4.8 3.5-2.7 5.4-6.4 5.7-10.2h3.1c6.1 0 11-4.9 11-11v-8c0-6.1-4.9-11-11-11h-3v-12c0-15.5-12.5-28-28-28zm-31 42h9v26h-9c-5 0-9-4-9-9v-8c0-5 4-9 9-9zm53 0h9c5 0 9 4 9 9v8c0 5-4 9-9 9h-9zm-22 38c2.2 0 4 1.8 4 4s-1.8 4-4 4-4-1.8-4-4 1.8-4 4-4z"/>
</svg>