<svg xmlns="http://www.w3.org/2000/svg" height="76" width="93.082" viewBox="-658 646.3 93.082 76">
  <g transform="translate(-3.418 -12)">
    <path d="M-562.5 658.3h-64.8c-.6 0-1 .4-1 1v13.9c.7 0 1.3.1 2 .2V670h62.8v41.9h-42c.6.6 1.2 1.3 1.8 2h41.2c.6 0 1-.4 1-1v-53.6c0-.5-.4-1-1-1zm-63.8 9.6v-7.6h62.8v7.6z"/>
    <path d="M-628.5 702.5c7.3 0 13.2-5.9 13.2-13.2 0-7.3-5.9-13.2-13.2-13.2-7.3 0-13.2 5.9-13.2 13.2 0 7.3 6 13.2 13.2 13.2zm0-24.4c6.2 0 11.2 5 11.2 11.2 0 6.2-5 11.2-11.2 11.2-6.2 0-11.2-5-11.2-11.2 0-6.2 5.1-11.2 11.2-11.2zM-628.5 706.1c-14.3 0-25.9 8.5-26 19-.1.5-.3 1.8.8 3.4 2.9 3.8 11.3 5.8 25.2 5.8 13.9 0 22.4-2 25.2-5.9 1.1-1.5.9-2.9.8-3.4-.1-10.5-11.7-18.9-26-18.9zm23.6 21.1c-1.4 1.9-6.2 5.1-23.5 5.1-17.1 0-22.1-3.1-23.5-5-.8-1-.6-1.8-.6-1.8 0-.1.1-.2.1-.3 0-9.4 10.8-17.1 24-17.1s24 7.7 24 17.1c0 .1 0 .2.1.3-.1 0 .1.7-.6 1.7z"/>
    <circle r="1.3" cy="664.6" cx="-622"/>
    <circle r="1.3" cy="664.6" cx="-617.9"/>
    <circle r="1.3" cy="664.6" cx="-613.7"/>
    <path d="M-581.6 697c.2.2.5.4.8.4.2 0 .5-.1.6-.2l9.2-7.8c.2-.2.4-.5.4-.8 0-.3-.1-.6-.4-.8l-9.2-7.8c-.4-.4-1.1-.3-1.4.1-.4.4-.3 1.1.1 1.4l8.3 7-8.3 7c-.4.4-.5 1.1-.1 1.5zM-598.1 679.4c-.4-.4-1-.5-1.4-.1l-9.2 7.8c-.2.2-.4.5-.4.8 0 .3.1.6.4.8l9.2 7.8c.2.2.4.2.6.2.3 0 .6-.1.8-.4.4-.4.3-1.1-.1-1.4l-8.3-7 8.3-7c.4-.4.4-1.1.1-1.5zM-594.1 699.8c.4 0 .8-.2.9-.6l8.4-21.9c.2-.5-.1-1.1-.6-1.3-.5-.2-1.1.1-1.3.6l-8.3 21.8c-.2.5.1 1.1.6 1.3.1 0 .2.1.3.1z"/>
  </g>
</svg>