<?xml version="1.0" encoding="utf-8"?>
<!-- Generator: Adobe Illustrator 19.0.0, SVG Export Plug-In . SVG Version: 6.00 Build 0)  -->
<svg version="1.1" id="Layer_1" xmlns="http://www.w3.org/2000/svg" xmlns:xlink="http://www.w3.org/1999/xlink" x="0px" y="0px"
	 viewBox="0 0 1600 1200" style="enable-background:new 0 0 1600 1200;" xml:space="preserve">
<style type="text/css">
	.st0{fill:#272A47;}
	.st1{fill:#47B2F4;}
</style>
<g id="XMLID_191_">
	<g id="XMLID_218_">
		<g id="XMLID_232_">
			<path id="XMLID_233_" class="st0" d="M562.8,678.3c7.2,0,13.4-2.6,18.5-7.7c5.1-5.1,7.7-11.3,7.7-18.5v-78.6h17.5v78.6
				c0,12-4.3,22.3-12.8,30.9c-8.5,8.5-18.8,12.8-30.9,12.8V678.3z"/>
		</g>
		<g id="XMLID_228_">
			<path id="XMLID_229_" class="st0" d="M683.9,687.1c-7.5,5.8-16.2,8.6-26.2,8.6c-12,0-22.3-4.3-30.9-12.8
				c-8.5-8.5-12.8-18.8-12.8-30.9c0-12,4.3-22.3,12.8-30.9c8.5-8.5,18.8-12.8,30.9-12.8c10,0,18.7,2.9,26.2,8.6v-8.6h17.5v87.3
				h-17.5V687.1z M657.7,625.9c-7.2,0-13.4,2.6-18.5,7.7c-5.1,5.1-7.7,11.3-7.7,18.5c0,7.2,2.6,13.4,7.7,18.5
				c5.1,5.1,11.3,7.7,18.5,7.7c7.2,0,13.4-2.6,18.5-7.7c5.1-5.1,7.7-11.3,7.7-18.5c0-7.2-2.6-13.4-7.7-18.5
				C671.1,628.5,664.9,625.9,657.7,625.9z"/>
		</g>
		<g id="XMLID_225_">
			<path id="XMLID_226_" class="st0" d="M799.6,608.5v-34.9h17.5v34.9h25.1v17.5h-25.1v26.2c0,7.2,2.6,13.4,7.7,18.5
				c5.1,5.1,11.3,7.7,18.5,7.7v17.5c-12,0-22.3-4.3-30.9-12.8c-8.5-8.5-12.8-18.8-12.8-30.9v-26.2h-8.7v-17.5H799.6z"/>
		</g>
		<g id="XMLID_222_">
			<path id="XMLID_223_" class="st0" d="M854.2,695.8v-87.3h17.5v87.3H854.2z"/>
		</g>
		<g id="XMLID_219_">
			<path id="XMLID_220_" class="st0" d="M945.4,665.7l15,9c-1.9,3-4.1,5.7-6.6,8.3c-8.6,8.6-18.9,12.8-30.9,12.8
				c-12,0-22.3-4.3-30.9-12.8c-8.5-8.5-12.8-18.8-12.8-30.9c0-12,4.3-22.3,12.8-30.9c8.5-8.5,18.8-12.8,30.9-12.8
				c12,0,22.3,4.2,30.9,12.7c2.6,2.6,4.8,5.4,6.6,8.4l-15,9c-1.1-1.7-2.4-3.4-4-5c-5.1-5.1-11.3-7.7-18.5-7.7
				c-7.2,0-13.4,2.6-18.5,7.7c-5.1,5.1-7.7,11.3-7.7,18.5c0,7.2,2.6,13.4,7.7,18.5c5.1,5.1,11.3,7.7,18.5,7.7
				c7.2,0,13.4-2.6,18.5-7.7C943,669.1,944.3,667.4,945.4,665.7z"/>
		</g>
	</g>
	<g id="XMLID_214_">
		<g id="XMLID_215_">
			<path id="XMLID_216_" class="st0" d="M1036.7,617.6l-7.5,16.1c-9.1-5.4-19.9-8.9-26.8-8.9c-6.5,0-10.9,2.3-10.9,7
				c0,15.9,45.9,7,45.8,38c0,16.9-14.6,26-33.7,26c-14.1,0-28.3-5.4-38-13.7l7.7-15.9c8.9,7.9,21.4,12.9,30.5,12.9
				c8,0,12.8-3,12.8-8.2c0-16.2-45.9-6.8-45.9-37.3c0-15.6,13.4-25.5,33.3-25.5C1016.1,608.2,1028.1,611.9,1036.7,617.6z"/>
		</g>
	</g>
	<g id="XMLID_210_">
		<g id="XMLID_211_">
			<path id="XMLID_212_" class="st0" d="M782.4,617.6l-7.5,16.1c-9.1-5.4-19.9-8.9-26.8-8.9c-6.5,0-10.9,2.3-10.9,7
				c0,15.9,45.9,7,45.8,38c0,16.9-14.6,26-33.7,26c-14.1,0-28.3-5.4-38-13.7l7.7-15.9c8.9,7.9,21.4,12.9,30.5,12.9
				c8,0,12.8-3,12.8-8.2c0-16.2-45.9-6.8-45.9-37.3c0-15.6,13.4-25.5,33.3-25.5C761.7,608.2,773.8,611.9,782.4,617.6z"/>
		</g>
	</g>
	<path id="XMLID_15_" class="st1" d="M928.3,551.6c-5.3,0-10.1,1.8-13.9,4.9l-17.1-27.8c3-2.5,4.9-6.3,4.9-10.5
		c0-7.7-6.2-13.9-13.9-13.9c-7.7,0-13.9,6.2-13.9,13.9c0,0.4,0,0.8,0.1,1.2c-13.6,3.2-30.8,7.3-40.8,9.7c-3.4-8-11.3-13.6-20.5-13.6
		c-12.3,0-22.3,10-22.3,22.3c0,12.3,10,22.3,22.3,22.3c5.6,0,10.7-2.1,14.6-5.5L851,574c-1.3,2.1-2,4.5-2,7.2
		c0,7.7,6.2,13.9,13.9,13.9c7.1,0,13-5.4,13.8-12.3l30.7-1.4c3.1,8.6,11.3,14.7,21,14.7c12.3,0,22.3-10,22.3-22.3
		S940.6,551.6,928.3,551.6z M875.5,523.6c1.2,2.8,3.4,5.2,6.1,6.7l-15.5,37.4c-1-0.2-2.1-0.4-3.2-0.4c-3.5,0-6.6,1.3-9.1,3.4
		l-23-19.4c2.9-3.8,4.6-8.5,4.6-13.6c0-1.5-0.2-3-0.4-4.4C841.9,531.6,854,528.7,875.5,523.6z M813.2,547.6c-5.5,0-10-4.5-10-10
		c0-5.5,4.5-10,10-10s10,4.5,10,10C823.1,543.2,818.7,547.6,813.2,547.6z M876.5,578.4c-0.8-3.8-3.1-7-6.3-9l15.6-37.6
		c0.8,0.2,1.7,0.2,2.6,0.2c1.9,0,3.7-0.4,5.3-1.1l17.6,28.7c-3.2,3.9-5.1,8.8-5.1,14.2c0,1.1,0.1,2.1,0.2,3.2L876.5,578.4z
		 M928.3,583.8c-5.5,0-10-4.5-10-10s4.5-10,10-10s10,4.5,10,10S933.8,583.8,928.3,583.8z"/>
</g>
</svg>
