<svg cls=="icon-linkedin" xmlns="http://www.w3.org/2000/svg" width="33" height="33" viewBox="541 -486.7 2500 2389">
    <path d="M541-204.2c0-80.4 28.2-146.8 84.5-199.1 56.3-52.3 129.5-78.4 219.6-78.4 88.5 0 160.1 25.7 214.8 77.2 56.3 53.1 84.5 122.3 84.5 207.5 0 77.2-27.3 141.6-82 193.1-56.3 53.1-130.3 79.6-222 79.6H838c-88.5 0-160.1-26.5-214.8-79.6S541-123.7 541-204.2zm31.4 2111.5v-1612h535.7v1612H572.4zm832.5 0h535.7v-900.1c0-56.3 6.4-99.7 19.3-130.3 22.5-54.7 56.7-101 102.6-138.8 45.8-37.8 103.4-56.7 172.5-56.7 180.2 0 270.3 121.5 270.3 364.4v861.5H3041V983.1c0-238.1-56.3-418.7-168.9-541.7-112.6-123.1-261.4-184.6-446.4-184.6-207.5 0-369.2 89.3-485 267.9v4.8h-2.4l2.4-4.8V295.3H1405c3.2 51.5 4.8 211.5 4.8 480.2-.1 268.7-1.7 646-4.9 1131.8z" />
</svg>