<svg class="icon-twitter" xmlns="http://www.w3.org/2000/svg" width="34" height="27" viewBox="-658 659.3 100 100">
    <path d="M-623.6 744.9c32.5-.8 50.3-27.9 50.3-51.4 0-.8 0-1.6-.1-2.3 3.6-2.5 6.6-5.7 9.1-9.4-3.3 1.4-6.8 2.4-10.5 2.8 3.8-2.2 6.6-5.8 8-10-3.5 2.1-7.4 3.6-11.6 4.4-3.3-3.5-8.1-5.7-13.3-5.7-10.1 0-18.2 8.1-18.2 18.1 0 1.4.2 2.8.5 4.1-15.1-.8-28.6-8-37.5-18.9-1.6 2.7-2.5 5.8-2.5 9.1 0 6.3 3.2 11.8 8.1 15-3-.1-5.8-.9-8.3-2.3v.2c0 8.8 6.3 16.1 14.6 17.7-1.5.4-3.1.6-4.8.6-1.2 0-2.3-.1-3.4-.3 2.3 7.2 9 12.4 17 12.6-6.2 4.8-14.1 7.7-22.6 7.7-1.5 0-2.9-.1-4.3-.3 7.8 4.9 17 7.9 26.8 8.1h2.7" />
</svg>