<svg class="icon-upwork" xmlns="http://www.w3.org/2000/svg" width="47" height="32" viewBox="541 451.2 897.4 631.2">
    <path d="M1225.2 807.1c-40.6 0-78.7-17.2-113.3-45.2l8.4-39.5.4-1.5c7.5-42.1 31.3-112.7 104.5-112.7 54.9 0 99.6 44.7 99.6 99.6-.3 54.6-44.9 99.3-99.6 99.3zm0-299.8c-93.5 0-166 60.8-195.4 160.7-45-67.5-79.1-148.6-99-216.9H830.1V713c0 51.6-42.1 93.7-93.7 93.7s-93.7-42.1-93.7-93.7V451.2H542V713c-.4 107.2 86.9 195.3 194.2 195.3 107.2 0 194.5-88 194.5-195.3v-43.9c19.6 40.8 43.6 82 72.6 118.6l-61.7 289.9h103l44.6-210.3c39.2 25.1 84.2 40.8 135.8 40.8 110.3 0 200.2-90.4 200.2-200.8.2-110.1-89.7-200-200-200z" />
</svg>