<?xml version="1.0" encoding="iso-8859-1"?>
<!-- Generator: Adobe Illustrator 18.0.0, SVG Export Plug-In . SVG Version: 6.00 Build 0)  -->
<!DOCTYPE svg PUBLIC "-//W3C//DTD SVG 1.1//EN" "http://www.w3.org/Graphics/SVG/1.1/DTD/svg11.dtd">
<svg version="1.1" id="Capa_1" xmlns="http://www.w3.org/2000/svg" xmlns:xlink="http://www.w3.org/1999/xlink" x="0px" y="0px"
	 viewBox="0 0 493.917 493.917" style="enable-background:new 0 0 493.917 493.917;" xml:space="preserve">
<g>
	<path d="M259.782,105.981c9.661,14.115,25.887,23.399,44.245,23.399c18.38,0,34.625-9.306,44.281-23.45
		c22.143-11.938,21.881-32.249,21.762-40.984c-0.493-36.033-27.425-63.325-64.039-64.894c-19.322-0.828-30.502,8.581-33.923,12.025
		c-2.991,0.678-9.642,2.705-16.295,8.248c-7.913,6.591-17.451,19.646-17.958,44.408C237.676,73.502,237.272,93.911,259.782,105.981z
		 M304.027,120.879c-24.86,0-45.085-20.225-45.085-45.084V63.237c11.656-4.42,18.84-16.708,22.37-24.55
		c9.609,10.114,33.231,30.551,67.799,31.61v5.497C349.112,100.655,328.887,120.879,304.027,120.879z M246.353,64.906
		c0.826-40.374,27.356-44.55,28.461-44.705c1.059-0.136,2.044-0.685,2.731-1.503c0.376-0.447,9.451-10.95,28.121-10.156
		c31.964,1.37,55.475,25.14,55.904,56.518c0.079,5.745,0.195,14.839-5.404,23.051c0.935-3.958,1.445-8.078,1.445-12.317v-5.832
		c1.664-0.64,2.817-2.273,2.728-4.152c-0.112-2.344-2.098-4.164-4.447-4.043c-44.766,2.129-72.33-33.373-72.6-33.727l-0.009,0.006
		c-0.521-0.69-1.247-1.234-2.138-1.506c-2.243-0.683-4.621,0.578-5.307,2.822c-0.078,0.253-8.191,25.384-24.217,26.955
		c-2.336,0.229-4.044,2.308-3.815,4.644c0.159,1.627,1.219,2.946,2.636,3.521v11.311c0,4.362,0.537,8.6,1.525,12.662
		C246.973,81.355,246.186,73.086,246.353,64.906z"/>
	<path d="M305.509,87.108h-5.393c-10.273,0-18.631,8.358-18.631,18.631v5.572c0,2.347,1.903,4.25,4.25,4.25
		c2.347,0,4.25-1.903,4.25-4.25v-5.572c0-5.586,4.545-10.131,10.131-10.131h5.393c5.586,0,10.131,4.545,10.131,10.131v5.572
		c0,2.347,1.903,4.25,4.25,4.25c2.347,0,4.25-1.903,4.25-4.25v-5.572C324.14,95.466,315.782,87.108,305.509,87.108z"/>
	<path d="M307.822,103.574h-10.019c-2.347,0-4.25,1.903-4.25,4.25c0,2.347,1.903,4.25,4.25,4.25h10.019
		c2.347,0,4.25-1.903,4.25-4.25C312.072,105.477,310.169,103.574,307.822,103.574z"/>
	<path d="M318.264,198.129l14.375,10c0.729,0.507,1.578,0.761,2.427,0.761c0.848,0,1.695-0.253,2.424-0.759l14.403-10
		c1.144-0.794,1.826-2.099,1.826-3.491v-18.75c0-2.347-1.903-4.25-4.25-4.25h-28.778c-2.347,0-4.25,1.903-4.25,4.25v18.75
		C316.442,196.031,317.123,197.335,318.264,198.129z M324.942,180.14h20.278v12.277l-10.15,7.047l-10.127-7.045V180.14z"/>
	<path d="M328.525,169.807h20.944c2.347,0,4.25-1.903,4.25-4.25c0-2.347-1.903-4.25-4.25-4.25h-20.944
		c-2.347,0-4.25,1.903-4.25,4.25C324.275,167.904,326.178,169.807,328.525,169.807z"/>
	<path d="M477.182,276.183h-24.64c1.717-2.234,2.75-5.02,2.75-8.049c0-4.963-2.747-9.292-6.796-11.562
		c0.196-0.184,0.405-0.347,0.596-0.539c9.312-9.312,9.312-24.463,0-33.776l-81.205-81.205c-5.176-6.268-13.004-10.27-21.749-10.27
		h-23.672c-2.171,0-3.994,1.637-4.226,3.796c-0.661,6.15-6.893,10.968-14.189,10.968c-7.295,0-13.527-4.818-14.188-10.968
		c-0.232-2.159-2.054-3.796-4.226-3.796h-23.672c-8.219,0-15.626,3.537-20.785,9.167c-0.032,0.03-0.069,0.051-0.1,0.082
		l-23.679,23.678v-43.377c0-7.857-6.393-14.25-14.25-14.25H41.82c-7.857,0-14.25,6.393-14.25,14.25v118
		c0,7.857,6.393,14.25,14.25,14.25h51.417v23.6H16.735c-7.78,0-14.11,6.393-14.11,14.25v11.875c0,7.857,6.33,14.25,14.11,14.25
		h13.251v173.108c0,2.347,1.903,4.25,4.25,4.25h428.567c2.347,0,4.25-1.903,4.25-4.25V316.558h10.129
		c7.78,0,14.109-6.393,14.109-14.25v-11.875C491.292,282.576,484.962,276.183,477.182,276.183z M374.336,159.523l19.567,19.567
		l-19.567,19.567V159.523z M374.336,215.256l40.29,40.091c-5.653,1.512-9.834,6.664-9.834,12.787c0,3.029,1.033,5.815,2.749,8.049
		h-33.206V215.256z M418.042,263.384h24c2.619,0,4.75,2.131,4.75,4.75c0,2.619-2.131,4.75-4.75,4.75h-24
		c-2.619,0-4.75-2.131-4.75-4.75C413.292,265.515,415.423,263.384,418.042,263.384z M443.081,250.023
		c-2.905,2.906-6.768,4.506-10.877,4.506c-4.109,0-7.972-1.6-10.885-4.513l-43.268-43.053l21.862-21.862l43.168,43.167
		C449.079,234.266,449.079,244.025,443.081,250.023z M282.217,139.284c2.772,8.637,11.522,14.764,21.836,14.764
		c10.315,0,19.065-6.128,21.836-14.764h20.25c10.861,0,19.697,8.836,19.697,19.696v117.203H333.17
		c1.637-2.083,2.622-4.701,2.622-7.549c0-6.755-5.495-12.25-12.25-12.25h-81.271V158.98c0-10.86,8.836-19.696,19.696-19.696H282.217
		z M203.153,252.584c7.857,0,14.25-6.393,14.25-14.25v-7.07l16.368-16.369v41.489h-25.229c-6.755,0-12.25,5.495-12.25,12.25
		c0,2.849,0.985,5.466,2.622,7.549h-47.178v-23.6H203.153z M323.542,272.384h-115c-2.068,0-3.75-1.682-3.75-3.75
		s1.682-3.75,3.75-3.75h115c2.068,0,3.75,1.682,3.75,3.75S325.61,272.384,323.542,272.384z M217.403,194.318l11.784,13.139
		l-11.784,11.784V194.318z M233.771,159.364v40.475l-16.368-18.251v-5.855L233.771,159.364z M36.07,238.334v-8.418h74.473
		c2.347,0,4.25-1.903,4.25-4.25c0-2.347-1.903-4.25-4.25-4.25H36.07v-22.833h13.139c2.347,0,4.25-1.903,4.25-4.25
		c0-2.347-1.903-4.25-4.25-4.25H36.07v-69.749c0-3.17,2.58-5.75,5.75-5.75h161.333c3.171,0,5.75,2.58,5.75,5.75v11.749h-91.027
		c-2.347,0-4.25,1.903-4.25,4.25c0,2.347,1.903,4.25,4.25,4.25h91.027v97.751c0,3.17-2.579,5.75-5.75,5.75H41.82
		C38.649,244.084,36.07,241.504,36.07,238.334z M101.736,252.584h41.5v23.6h-41.5V252.584z M458.553,453.25H345.542
		c-2.347,0-4.25,1.903-4.25,4.25s1.903,4.25,4.25,4.25h113.012v23.667H38.486V378.25h46.556c2.347,0,4.25-1.903,4.25-4.25
		s-1.903-4.25-4.25-4.25H38.486v-29.5h97.823c2.347,0,4.25-1.903,4.25-4.25s-1.903-4.25-4.25-4.25H38.486v-15.192h375.806V407
		c0,2.347,1.903,4.25,4.25,4.25c2.347,0,4.25-1.903,4.25-4.25v-90.442h35.762V453.25z M482.792,302.308
		c0,3.17-2.516,5.75-5.609,5.75H16.735c-3.093,0-5.61-2.58-5.61-5.75v-11.875c0-3.17,2.517-5.75,5.61-5.75h460.448
		c3.093,0,5.609,2.58,5.609,5.75V302.308z"/>
	<path d="M122.486,162.584c-9.236,0-16.75,7.514-16.75,16.75s7.514,16.75,16.75,16.75c9.236,0,16.75-7.514,16.75-16.75
		S131.722,162.584,122.486,162.584z M122.486,187.584c-4.549,0-8.25-3.701-8.25-8.25s3.701-8.25,8.25-8.25
		c4.549,0,8.25,3.701,8.25,8.25S127.035,187.584,122.486,187.584z"/>
</g>
<g>
</g>
<g>
</g>
<g>
</g>
<g>
</g>
<g>
</g>
<g>
</g>
<g>
</g>
<g>
</g>
<g>
</g>
<g>
</g>
<g>
</g>
<g>
</g>
<g>
</g>
<g>
</g>
<g>
</g>
</svg>
