<?xml version="1.0" encoding="iso-8859-1"?>
<!-- Generator: Adobe Illustrator 18.0.0, SVG Export Plug-In . SVG Version: 6.00 Build 0)  -->
<!DOCTYPE svg PUBLIC "-//W3C//DTD SVG 1.1//EN" "http://www.w3.org/Graphics/SVG/1.1/DTD/svg11.dtd">
<svg version="1.1" id="Capa_1" xmlns="http://www.w3.org/2000/svg" xmlns:xlink="http://www.w3.org/1999/xlink" x="0px" y="0px"
	 viewBox="0 0 495.307 495.307" style="enable-background:new 0 0 495.307 495.307;" xml:space="preserve">
<g>
	<path d="M348.733,0l-202.16,0.001c-22.611,0-41.008,18.396-41.008,41.009v413.288c0,10.914,4.277,21.201,12.043,28.967
		c7.766,7.766,18.053,12.042,28.965,12.042l202.16-0.001c22.611,0,41.008-18.396,41.008-41.009V41.009
		C389.741,18.397,371.345,0,348.733,0z M114.065,45.26l267.176,0V98.35h-50.43c-2.348,0-4.25,1.903-4.25,4.25
		c0,2.347,1.902,4.25,4.25,4.25h50.43v255.766l-129.908,0.001c-2.348,0-4.25,1.903-4.25,4.25c0,2.347,1.902,4.25,4.25,4.25
		l129.908-0.001v24.263l-267.176,0V45.26z M146.573,8.5l202.16,0c16.484,0,30.131,12.336,32.221,28.259l-266.602,0
		C116.44,20.836,130.089,8.5,146.573,8.5z M348.733,486.806l-202.16,0.001c-8.643,0-16.795-3.392-22.955-9.553
		c-6.16-6.16-9.553-14.313-9.553-22.956v-17.611l71.4-0.001c2.348,0,4.25-1.903,4.25-4.25s-1.902-4.25-4.25-4.25l-71.4,0.001
		v-24.308l267.176,0v50.418C381.241,472.223,366.659,486.806,348.733,486.806z"/>
	<path d="M247.653,420.109c-13.025,0-23.621,10.597-23.621,23.622c0,13.025,10.596,23.622,23.621,23.622
		s23.623-10.597,23.623-23.623C271.276,430.706,260.679,420.109,247.653,420.109z M247.653,458.853
		c-8.338,0-15.121-6.784-15.121-15.122c0-8.338,6.783-15.122,15.121-15.122c8.338,0,15.123,6.784,15.123,15.121
		C262.776,452.069,255.991,458.853,247.653,458.853z"/>
	<path d="M142.679,110.407c1.088,0,2.176-0.415,3.006-1.245l32.855-32.856c1.66-1.66,1.66-4.351,0-6.011
		c-1.658-1.659-4.351-1.659-6.01,0l-32.855,32.856c-1.66,1.66-1.66,4.351,0,6.011C140.503,109.992,141.591,110.407,142.679,110.407z
		"/>
	<path d="M142.679,153.961c1.088,0,2.176-0.415,3.006-1.245l76.41-76.41c1.66-1.66,1.66-4.351,0-6.011
		c-1.658-1.659-4.352-1.659-6.01,0l-76.41,76.41c-1.66,1.66-1.66,4.351,0,6.011C140.503,153.546,141.591,153.961,142.679,153.961z"
		/>
	<path d="M265.646,70.296c-1.658-1.659-4.352-1.659-6.01,0L139.675,190.26c-1.66,1.66-1.66,4.351,0,6.011
		c0.828,0.83,1.916,1.245,3.004,1.245c1.088,0,2.176-0.415,3.006-1.245L265.646,76.307
		C267.306,74.646,267.306,71.955,265.646,70.296z"/>
	<path d="M227.489,362.617h-51.662c-2.348,0-4.25,1.903-4.25,4.25c0,2.347,1.902,4.25,4.25,4.25h51.662
		c2.348,0,4.25-1.903,4.25-4.25C231.739,364.52,229.837,362.617,227.489,362.617z"/>
</g>
<g>
</g>
<g>
</g>
<g>
</g>
<g>
</g>
<g>
</g>
<g>
</g>
<g>
</g>
<g>
</g>
<g>
</g>
<g>
</g>
<g>
</g>
<g>
</g>
<g>
</g>
<g>
</g>
<g>
</g>
</svg>
