<?xml version="1.0" encoding="iso-8859-1"?>
<!-- Generator: Adobe Illustrator 18.0.0, SVG Export Plug-In . SVG Version: 6.00 Build 0)  -->
<!DOCTYPE svg PUBLIC "-//W3C//DTD SVG 1.1//EN" "http://www.w3.org/Graphics/SVG/1.1/DTD/svg11.dtd">
<svg version="1.1" id="Capa_1" xmlns="http://www.w3.org/2000/svg" xmlns:xlink="http://www.w3.org/1999/xlink" x="0px" y="0px"
	 viewBox="0 0 437.152 437.152" style="enable-background:new 0 0 437.152 437.152;" xml:space="preserve">
<path d="M422.312,202.544c-3.376-4.909-7.255-9.08-11.603-12.54c-4.519-30.673-17.111-62.634-34.288-87.406h8.508
	c0.006,0,0.012,0,0.02,0c2.348,0,4.25-1.902,4.25-4.25c0-1.054-0.384-2.019-1.02-2.762c-18.858-26.389-43.947-48.307-72.577-63.402
	c-29.689-15.654-63.24-23.929-97.025-23.929s-67.336,8.274-97.025,23.929C92.814,47.336,67.644,69.362,48.762,95.883
	c-0.923,1.296-1.045,2.999-0.315,4.413c0.729,1.413,2.187,2.302,3.777,2.302h8.545c-17.222,25.095-29.8,57.057-34.21,87.311
	c-4.396,3.477-8.311,7.682-11.718,12.636C5.132,216.666,0,236.664,0,260.377c0,23.712,5.132,43.71,14.841,57.831
	c10.582,15.392,26.003,23.683,45.878,24.691v3.478c0,7.857,6.393,14.25,14.25,14.25h3c7.857,0,14.25-6.393,14.25-14.25v-172
	c0-7.857-6.393-14.25-14.25-14.25h-3c-7.857,0-14.25,6.393-14.25,14.25v3.477c-9.127,0.463-17.311,2.468-24.521,5.985
	c5.438-28.519,18.428-58.81,35.008-81.241h16.899c1.199,0,2.343-0.507,3.148-1.396c32.527-35.873,78.935-56.447,127.323-56.447
	s94.796,20.574,127.323,56.447c0.806,0.889,1.949,1.396,3.148,1.396h16.871c16.825,22.406,29.598,52.094,35.122,81.28
	c-7.229-3.543-15.439-5.559-24.599-6.025v-3.477c0-7.857-6.393-14.25-14.25-14.25h-3c-7.857,0-14.25,6.393-14.25,14.25v172
	c0,7.857,6.393,14.25,14.25,14.25h3c7.857,0,14.25-6.393,14.25-14.25v-3.478c3.401-0.173,6.659-0.579,9.798-1.178v49.927
	c0,5.928-4.822,10.75-10.75,10.75H272.698v-8.75c0-7.857-6.393-14.25-14.25-14.25h-77c-7.857,0-14.25,6.393-14.25,14.25v21
	c0,7.857,6.393,14.25,14.25,14.25h77c7.857,0,14.25-6.393,14.25-14.25v-3.75H375.49c10.614,0,19.25-8.636,19.25-19.25v-52.151
	c11.273-3.891,20.502-11.006,27.571-21.288c9.709-14.121,14.841-34.119,14.841-57.832S432.021,216.666,422.312,202.544z
	 M69.219,174.377c0-3.171,2.579-5.75,5.75-5.75h3c3.171,0,5.75,2.579,5.75,5.75v172c0,3.17-2.579,5.75-5.75,5.75h-3
	c-3.171,0-5.75-2.58-5.75-5.75V174.377z M60.719,334.374c-16.896-0.986-29.965-8.023-38.874-20.981
	c-5.369-7.81-9.175-17.757-11.315-29.368h37.004c2.348,0,4.25-1.902,4.25-4.25c0-2.347-1.902-4.25-4.25-4.25H10.036
	c-0.251,0-0.494,0.032-0.733,0.074c-0.528-4.846-0.803-9.925-0.803-15.222c0-5.344,0.277-10.467,0.816-15.351h18.72
	c2.348,0,4.25-1.902,4.25-4.25c0-2.347-1.902-4.25-4.25-4.25H10.57c2.146-11.523,5.937-21.402,11.275-29.166
	c8.909-12.959,21.978-19.995,38.874-20.981V334.374z M218.576,36.255c-50.153,0-98.275,21.057-132.342,57.843H60.683
	c37.757-48.582,96.164-77.343,157.894-77.343S338.713,45.516,376.47,94.098h-25.552C316.852,57.312,268.729,36.255,218.576,36.255z
	 M264.198,414.647c0,3.17-2.579,5.75-5.75,5.75h-77c-3.171,0-5.75-2.58-5.75-5.75v-21c0-3.171,2.579-5.75,5.75-5.75h77
	c3.171,0,5.75,2.579,5.75,5.75V414.647z M367.942,346.377c0,3.17-2.579,5.75-5.75,5.75h-3c-3.171,0-5.75-2.58-5.75-5.75v-172
	c0-3.171,2.579-5.75,5.75-5.75h3c3.171,0,5.75,2.579,5.75,5.75V346.377z M415.308,313.393c-8.907,12.956-21.975,19.992-38.865,20.98
	V186.38c16.891,0.987,29.958,8.024,38.865,20.98c5.338,7.764,9.128,17.643,11.275,29.166h-25.065c-2.348,0-4.25,1.903-4.25,4.25
	c0,2.348,1.902,4.25,4.25,4.25h26.32c0.452,4.105,0.709,8.386,0.782,12.817c-0.496-0.202-1.036-0.318-1.604-0.318h-40.497
	c-2.348,0-4.25,1.903-4.25,4.25c0,2.348,1.902,4.25,4.25,4.25h40.497c0.542,0,1.056-0.111,1.532-0.296
	C427.852,285.337,423.318,301.741,415.308,313.393z"/>
<g>
</g>
<g>
</g>
<g>
</g>
<g>
</g>
<g>
</g>
<g>
</g>
<g>
</g>
<g>
</g>
<g>
</g>
<g>
</g>
<g>
</g>
<g>
</g>
<g>
</g>
<g>
</g>
<g>
</g>
</svg>
