<?xml version="1.0" encoding="iso-8859-1"?>
<!-- Generator: Adobe Illustrator 18.0.0, SVG Export Plug-In . SVG Version: 6.00 Build 0)  -->
<!DOCTYPE svg PUBLIC "-//W3C//DTD SVG 1.1//EN" "http://www.w3.org/Graphics/SVG/1.1/DTD/svg11.dtd">
<svg version="1.1" id="Capa_1" xmlns="http://www.w3.org/2000/svg" xmlns:xlink="http://www.w3.org/1999/xlink" x="0px" y="0px"
	 viewBox="0 0 491.957 491.957" style="enable-background:new 0 0 491.957 491.957;" xml:space="preserve">
<g>
	<path d="M151.105,100.857c27.324,0,49.554-22.231,49.554-49.555S178.43,1.748,151.105,1.748c-27.323,0-49.553,22.23-49.553,49.555
		S123.782,100.857,151.105,100.857z M151.105,10.248c22.637,0,41.054,18.417,41.054,41.055s-18.417,41.055-41.054,41.055
		c-22.637,0-41.053-18.417-41.053-41.055S128.469,10.248,151.105,10.248z"/>
	<path d="M112.747,295.254c-2.347,0-4.25,1.902-4.25,4.25v35.06c0,2.348,1.903,4.25,4.25,4.25c2.347,0,4.25-1.902,4.25-4.25v-35.06
		C116.997,297.156,115.094,295.254,112.747,295.254z"/>
	<path d="M491.425,422.161l-63.71-115.202h42.923c2.347,0,4.25-1.902,4.25-4.25V55.596c0-2.348-1.903-4.25-4.25-4.25h-92.592V23.135
		c0-2.348-1.903-4.25-4.25-4.25s-4.25,1.902-4.25,4.25v28.211h-92.591c-2.347,0-4.25,1.902-4.25,4.25v114.731l-15.56,14.524
		l-48.679-51.921c-13.258-16.134-38.872-26.732-57.361-26.732c-16.776,0-39.417,8.725-53.373,22.394L7.754,213.898
		c-9.94,9.402-10.383,25.141-0.985,35.082c4.874,5.154,11.45,7.756,18.04,7.756c6.121,0,12.254-2.245,17.043-6.773l43.155-40.916
		l-0.002,250.91c0,16.679,13.571,30.25,30.253,30.252c16.682,0,30.254-13.571,30.254-30.252l0.001-128.113
		c3.862,0.393,7.325,0.393,11.184,0l-0.002,128.113c0,16.681,13.571,30.252,30.253,30.252c16.682,0,30.254-13.571,30.254-30.252
		V214.848l20.633,22.025c4.874,5.154,11.465,7.759,18.066,7.759c6.029,0,12.062-2.179,16.803-6.563v64.64
		c0,2.348,1.903,4.25,4.25,4.25h42.552l-63.711,115.203c-1.136,2.054-0.392,4.64,1.663,5.775c2.054,1.137,4.64,0.392,5.776-1.662
		l65.986-119.317h40.326v117.26c0,2.348,1.903,4.25,4.25,4.25s4.25-1.902,4.25-4.25v-117.26h39.955l65.985,119.315
		c1.136,2.054,3.722,2.802,5.776,1.662C491.817,426.801,492.561,424.215,491.425,422.161z M36.008,243.791
		c-6.534,6.178-16.881,5.888-23.063-0.65c-6.178-6.536-5.887-16.884,0.654-23.07l71.576-68.123
		c-0.106,1.006-0.167,2.021-0.167,3.047l0,42.339L36.008,243.791z M208.703,459.957c0,9.503-6.128,17.596-14.638,20.551v-55.976
		c0-2.348-1.903-4.25-4.25-4.25c-2.347,0-4.25,1.902-4.25,4.25v56.959c0,0.059,0.015,0.113,0.017,0.171
		c-11.36-0.708-20.387-10.17-20.387-21.705l0.002-133c0-1.257-0.557-2.45-1.521-3.258c-0.771-0.645-1.739-0.992-2.729-0.992
		c-0.248,0-0.497,0.022-0.744,0.065c-3.232,0.575-6.294,0.866-9.1,0.866c-2.803,0-5.864-0.291-9.098-0.864
		c-1.238-0.221-2.509,0.12-3.472,0.928c-0.963,0.808-1.52,2-1.52,3.257l-0.001,132.998c0,11.414-8.839,20.795-20.03,21.677
		c0.002-0.049,0.014-0.095,0.014-0.144V371.297c0-2.348-1.903-4.25-4.25-4.25c-2.347,0-4.25,1.902-4.25,4.25v109.329
		c-8.693-2.852-14.991-11.037-14.991-20.669l0.002-304.963c0-21.855,35.378-40.297,57.598-40.297
		c22.22,0,57.598,18.441,57.598,40.297V459.957z M244.026,231.048l-26.823-28.632v-47.309l36.641,38.65
		c1.604,1.708,4.288,1.799,6.001,0.199l40.976-38.248c3.166-2.994,7.306-4.59,11.665-4.452c4.356,0.122,8.403,1.934,11.397,5.101
		c2.995,3.167,4.577,7.311,4.454,11.667c-0.122,4.356-1.934,8.403-5.077,11.375l-56.243,52.361
		C260.487,237.872,250.168,237.544,244.026,231.048z M281.205,230.165l47.869-44.566c4.818-4.553,7.573-10.709,7.759-17.336
		c0.186-6.626-2.22-12.929-6.774-17.745c-4.553-4.816-10.709-7.572-17.335-7.758c-6.633-0.191-12.927,2.22-17.723,6.755
		l-13.796,12.878V59.846h185.183v238.613H281.205V230.165z"/>
	<path d="M436.824,111.998c0-2.348-1.903-4.25-4.25-4.25h-134c-2.347,0-4.25,1.902-4.25,4.25c0,2.348,1.903,4.25,4.25,4.25h134
		C434.921,116.248,436.824,114.346,436.824,111.998z"/>
	<path d="M367.574,256.748h-61c-2.347,0-4.25,1.902-4.25,4.25c0,2.348,1.903,4.25,4.25,4.25h61c2.347,0,4.25-1.902,4.25-4.25
		C371.824,258.65,369.921,256.748,367.574,256.748z"/>
	<path d="M441.574,215.748h-92c-2.347,0-4.25,1.902-4.25,4.25c0,2.348,1.903,4.25,4.25,4.25h92c2.347,0,4.25-1.902,4.25-4.25
		C445.824,217.65,443.921,215.748,441.574,215.748z"/>
</g>
<g>
</g>
<g>
</g>
<g>
</g>
<g>
</g>
<g>
</g>
<g>
</g>
<g>
</g>
<g>
</g>
<g>
</g>
<g>
</g>
<g>
</g>
<g>
</g>
<g>
</g>
<g>
</g>
<g>
</g>
</svg>
